<svg xmlns="http://www.w3.org/2000/svg" width="119.275" height="135.651" viewBox="0 0 119.275 135.651">
  <g id="contact-us" transform="translate(-4.992 -1.293)">
    <path id="Path_581" data-name="Path 581" d="M70.005,44.128V41.92a2.209,2.209,0,0,0,2.209-2.209V33.085a22.085,22.085,0,1,0-44.171,0v6.626a2.209,2.209,0,0,0,2.209,2.209v2.209A19.877,19.877,0,0,0,41.294,61.907v2.619L28.383,68.038A15.526,15.526,0,0,0,17,82.954V97.133a2.209,2.209,0,0,0,2.209,2.209H81.048a2.209,2.209,0,0,0,2.209-2.209V82.954A15.528,15.528,0,0,0,71.867,68.036l-12.9-3.509V61.907A19.877,19.877,0,0,0,70.005,44.128ZM32.46,33.085a17.668,17.668,0,0,1,35.337,0v4.309a10.974,10.974,0,0,1-8.313-6L58.73,29.89a2.209,2.209,0,0,0-3.534-.574l-3.664,3.66A15.358,15.358,0,0,1,40.6,37.5H32.46Zm2.209,11.043V41.92H40.6A19.738,19.738,0,0,0,54.656,36.1L56.2,34.552a15.334,15.334,0,0,0,9.386,6.9v2.679a15.46,15.46,0,0,1-30.92,0ZM52.337,81.673v-5.59l7.951-6.626,3.092.839v3.83L50.128,87.378,36.877,74.127V70.3l3.092-.839L47.92,76.09v5.583Zm26.5,1.281v11.97H21.417V82.954A11.1,11.1,0,0,1,29.551,72.3l2.909-.784v3.534a2.208,2.208,0,0,0,.647,1.561l15.46,15.46a2.209,2.209,0,0,0,3.123,0l15.46-15.46a2.209,2.209,0,0,0,.647-1.561V71.514l2.9.791A11.1,11.1,0,0,1,78.839,82.954Zm-23.523-15.1-5.188,4.322-5.188-4.32a2.184,2.184,0,0,0,.771-1.643V63.493a19.3,19.3,0,0,0,8.834,0v2.721a2.184,2.184,0,0,0,.771,1.641Z" transform="translate(14.512 11.731)" fill="#ffac0d"/>
    <path id="Path_582" data-name="Path 582" d="M45.668,27H41.251a4.417,4.417,0,0,1-8.834,0H28a8.834,8.834,0,0,0,17.668,0Z" transform="translate(27.806 31.068)" fill="#ffac0d"/>
    <path id="Path_583" data-name="Path 583" d="M38.308,9.712l5.3-5.3L40.481,1.293l-8.834,8.834a2.209,2.209,0,0,0,0,3.123l8.834,8.834L43.6,18.961l-4.779-4.779a55.214,55.214,0,0,1,7.129,108.66l1.012,4.3A59.631,59.631,0,0,0,38.308,9.708Z" transform="translate(31.432 0)" fill="#ffac0d"/>
    <path id="Path_584" data-name="Path 584" d="M57.367,110.781,54.244,113.9l4.779,4.779a55.214,55.214,0,0,1-7.129-108.66l-1.012-4.3a59.631,59.631,0,0,0,8.657,117.439l-5.3,5.3,3.123,3.123,8.834-8.834a2.209,2.209,0,0,0,0-3.123Z" transform="translate(0 5.356)" fill="#ffac0d"/>
  </g>
</svg>
