<svg xmlns="http://www.w3.org/2000/svg" width="149.066" height="137.402" viewBox="0 0 149.066 137.402">
  <g id="feedback" transform="translate(0 0)">
    <path id="Path_677" data-name="Path 677" d="M248,350.5h14.51v19.511H248Zm0,0" transform="translate(-175.219 -246.17)" fill="#78d2fa"/>
    <path id="Path_678" data-name="Path 678" d="M252.825,422.438H240.095a6.427,6.427,0,0,0-6.427,6.428v4.421h25.585v-4.421A6.427,6.427,0,0,0,252.825,422.438Zm0,0" transform="translate(-164.585 -298.597)" fill="#c9f3ff"/>
    <path id="Path_679" data-name="Path 679" d="M230.36,102.715H151.28a9.28,9.28,0,0,1-9.28-9.28V19.78a9.28,9.28,0,0,1,9.28-9.28h79.08a9.28,9.28,0,0,1,9.28,9.28V93.436A9.28,9.28,0,0,1,230.36,102.715Zm0,0" transform="translate(-93.286 -7.788)" fill="#c9f3ff"/>
    <path id="Path_680" data-name="Path 680" d="M121.984,182.547A12.13,12.13,0,0,0,111,194.622v8.018h21.969v-8.018A12.129,12.129,0,0,0,121.984,182.547Zm0,0" transform="translate(-78.267 -128.87)" fill="#ff5d5d"/>
    <path id="Path_681" data-name="Path 681" d="M129.518,117.586a7.848,7.848,0,0,0-4.3,7V127.3a7.851,7.851,0,0,0,4.3,7,7.852,7.852,0,0,0,4.3-7V124.59A7.849,7.849,0,0,0,129.518,117.586Zm0,0" transform="translate(-88.594 -83.147)" fill="#fcc69d"/>
    <path id="Path_682" data-name="Path 682" d="M343.122,182.357c-.178-.008-.356-.013-.535-.013H332.13A12.13,12.13,0,0,0,320,194.474v8.018h11.527v-8.018A12.129,12.129,0,0,1,343.122,182.357Zm0,0" transform="translate(-225.56 -128.724)" fill="#fff"/>
    <path id="Path_683" data-name="Path 683" d="M374.095,182.391A12.129,12.129,0,0,0,362.5,194.508v8.018H385.69v-8.018A12.129,12.129,0,0,0,374.095,182.391Zm0,0" transform="translate(-253.981 -128.758)" fill="#72d8ff"/>
    <path id="Path_684" data-name="Path 684" d="M361.76,125.02v-2.707a7.853,7.853,0,0,1,4.5-7.1,7.855,7.855,0,0,0-11.209,7.1v2.707a7.853,7.853,0,0,0,11.209,7.1A7.852,7.852,0,0,1,361.76,125.02Zm0,0" transform="translate(-251.056 -80.9)" fill="#fff"/>
    <path id="Path_685" data-name="Path 685" d="M388.79,127.041v-2.707a7.853,7.853,0,0,0-4.5-7.1,7.854,7.854,0,0,0-4.5,7.1v2.707a7.852,7.852,0,0,0,4.5,7.1A7.852,7.852,0,0,0,388.79,127.041Zm0,0" transform="translate(-268.697 -82.894)" fill="#fcc69d"/>
    <path id="Path_686" data-name="Path 686" d="M134.509.5H14.557A14.574,14.574,0,0,0,0,15.057v75.7a14.574,14.574,0,0,0,14.557,14.557h7.424a2.911,2.911,0,1,0,0-5.823H14.557a8.744,8.744,0,0,1-8.734-8.734v-75.7a8.744,8.744,0,0,1,8.734-8.734H134.509a8.744,8.744,0,0,1,8.734,8.734v75.7a8.744,8.744,0,0,1-8.734,8.734H45.7a2.911,2.911,0,0,0,0,5.823H58.375v15.349a9.826,9.826,0,0,0-7.715,9.584v4.746a2.911,2.911,0,0,0,2.911,2.911H95.5a2.911,2.911,0,0,0,2.911-2.911v-4.746a9.826,9.826,0,0,0-7.715-9.584V105.312h43.817a14.574,14.574,0,0,0,14.557-14.557v-75.7A14.574,14.574,0,0,0,134.509.5ZM92.584,130.245v1.834h-36.1v-1.834a3.993,3.993,0,0,1,3.988-3.988H88.6A3.993,3.993,0,0,1,92.584,130.245Zm-7.715-9.811H64.2V105.312H84.869Zm0,0" transform="translate(0 -0.5)"/>
    <path id="Path_687" data-name="Path 687" d="M109.712,340.5a2.713,2.713,0,1,0,1.918.795A2.728,2.728,0,0,0,109.712,340.5Zm0,0" transform="translate(-75.761 -241.211)"/>
    <path id="Path_688" data-name="Path 688" d="M54,137.711v8.018a2.713,2.713,0,0,0,2.712,2.712H91.429a2.713,2.713,0,0,0,2.712-2.712v-8.018a14.868,14.868,0,0,0-11.126-14.37,10.5,10.5,0,0,0,1.62-5.612v-2.707a10.565,10.565,0,0,0-21.13,0v2.707a10.5,10.5,0,0,0,1.62,5.612A14.868,14.868,0,0,0,54,137.711Zm14.93-22.689a5.14,5.14,0,1,1,10.281,0v2.707a5.14,5.14,0,1,1-10.281,0Zm-9.506,22.689a9.429,9.429,0,0,1,9.419-9.417H79.3a9.429,9.429,0,0,1,9.418,9.417v5.306H59.424Zm0,0" transform="translate(-39.354 -73.106)"/>
    <path id="Path_689" data-name="Path 689" d="M310,137.711v8.018a2.713,2.713,0,0,0,2.712,2.712h34.716a2.713,2.713,0,0,0,2.712-2.712v-8.018a14.868,14.868,0,0,0-11.125-14.37,10.5,10.5,0,0,0,1.62-5.612v-2.707a10.565,10.565,0,1,0-21.13,0v2.707a10.5,10.5,0,0,0,1.62,5.612A14.868,14.868,0,0,0,310,137.711Zm14.93-22.689a5.14,5.14,0,1,1,10.281,0v2.707a5.14,5.14,0,1,1-10.281,0Zm-9.506,22.689a9.429,9.429,0,0,1,9.419-9.417H335.3a9.429,9.429,0,0,1,9.418,9.417v5.306H315.424Zm0,0" transform="translate(-215.72 -73.106)"/>
    <path id="Path_690" data-name="Path 690" d="M233.668,76.394a2.712,2.712,0,0,0,2.712,2.712h9.671a2.711,2.711,0,0,0,4.288,3.232l4.027-4.027a2.711,2.711,0,0,0,0-3.835l-4.027-4.027a2.712,2.712,0,0,0-4.289,3.232h-9.671A2.712,2.712,0,0,0,233.668,76.394Zm0,0" transform="translate(-164.784 -50.899)"/>
    <path id="Path_691" data-name="Path 691" d="M193.384,89.924a2.713,2.713,0,1,0-1.918-.795A2.73,2.73,0,0,0,193.384,89.924Zm0,0" transform="translate(-135.004 -59.97)"/>
    <path id="Path_692" data-name="Path 692" d="M191.462,141.811l4.026,4.027a2.711,2.711,0,0,0,4.289-3.232H221.11a2.712,2.712,0,1,0,0-5.424H199.777a2.711,2.711,0,0,0-4.289-3.232l-4.027,4.027A2.712,2.712,0,0,0,191.462,141.811Zm0,0" transform="translate(-133.964 -94.222)"/>
  </g>
</svg>
