<svg xmlns="http://www.w3.org/2000/svg" width="868.644" height="606.102" viewBox="0 0 868.644 606.102">
  <g id="undraw_directions_x53j" transform="translate(0 0)">
    <path id="Path_109" data-name="Path 109" d="M443.9,166.823A204.8,204.8,0,0,0,197.81,139.111C276.686,167.346,363.716,168.384,443.9,166.823Z" transform="translate(-97.484 -89.342)" fill="#0075f0" opacity="0.1"/>
    <path id="Path_110" data-name="Path 110" d="M1008.416,699.807,922.282,550.618a2.74,2.74,0,0,0-4.758,0L831.39,699.807a2.74,2.74,0,0,0,2.375,4.152h25.694a2.757,2.757,0,0,1,2.749,2.749v31.839a2.749,2.749,0,0,0,2.74,2.749h33.525a2.749,2.749,0,0,0,2.749-2.749V723.159a2.74,2.74,0,0,1,2.74-2.74h31.872a2.749,2.749,0,0,1,2.749,2.74v15.388a2.749,2.749,0,0,0,2.749,2.749h33.517a2.749,2.749,0,0,0,2.749-2.749V706.675a2.749,2.749,0,0,1,2.749-2.749h25.694a2.749,2.749,0,0,0,2.375-4.119ZM888.3,716.317a2.74,2.74,0,0,1-1.943.83H874.291a2.749,2.749,0,0,1,0-5.5h12.091a2.749,2.749,0,0,1,1.943,4.692Zm79.125,0a2.741,2.741,0,0,1-1.943.83H953.424a2.749,2.749,0,0,1,0-5.5h12.108a2.749,2.749,0,0,1,1.943,4.692Z" transform="translate(-204.845 -163.773)" fill="#0075f0" opacity="0.1"/>
    <path id="Path_111" data-name="Path 111" d="M369.8,701.389,283.668,552.2a2.749,2.749,0,0,0-4.758,0l-74.4,128.86a227.267,227.267,0,0,0,31.133,32.146h12.124a2.749,2.749,0,1,1,0,5.5h-5.116a133.112,133.112,0,0,0,19.931,12.4v-6.353A2.749,2.749,0,0,1,265.332,722H297.2a2.749,2.749,0,0,1,2.74,2.749v15.38a2.675,2.675,0,0,0,.257,1.154,2.749,2.749,0,0,0,2.491,1.594h33.525a2.691,2.691,0,0,0,2.184-1.1,2.641,2.641,0,0,0,.556-1.661V708.265a2.749,2.749,0,0,1,2.749-2.749H367.4a2.749,2.749,0,0,0,2.4-4.127Zm-56.927,12.623a2.741,2.741,0,0,1,1.943-.83h12.091a2.749,2.749,0,0,1,0,5.5h-12.1a2.749,2.749,0,0,1-1.943-4.692Zm-54.1-55.208a2.749,2.749,0,0,1-2.749-2.749V635.178a2.749,2.749,0,0,1,2.749-2.749h45.052a2.749,2.749,0,0,1,2.74,2.749v20.877a2.749,2.749,0,0,1-2.74,2.749Z" transform="translate(-98.62 -164.042)" fill="#0075f0" opacity="0.1"/>
    <path id="Path_112" data-name="Path 112" d="M744.983,397.855H638.4V374.8a5.514,5.514,0,0,0-5.514-5.514h-31.3V344.731a3.471,3.471,0,0,0-3.471-3.471H557.793a3.471,3.471,0,0,0-3.471,3.471v24.548h-36.8a5.514,5.514,0,0,0-5.514,5.514v23.053H410.373a1.121,1.121,0,0,0-1.113,1.121V705.011a1.121,1.121,0,0,0,1.113,1.121h67.548a1.121,1.121,0,0,0,1.121-1.121V663.838a1.129,1.129,0,0,1,1.121-1.121H508.7a1.13,1.13,0,0,1,1.121,1.121v41.173a1.121,1.121,0,0,0,1.113,1.121H644.425a1.129,1.129,0,0,0,1.121-1.121V663.838a1.121,1.121,0,0,1,1.113-1.121h28.534a1.121,1.121,0,0,1,1.121,1.121v41.173a1.129,1.129,0,0,0,1.121,1.121h67.548a1.129,1.129,0,0,0,1.121-1.121V398.976a1.129,1.129,0,0,0-1.121-1.121ZM466.951,648.416a1.113,1.113,0,0,1-1.113,1.113H424.117A1.113,1.113,0,0,1,423,648.416V634.191a1.121,1.121,0,0,1,1.121-1.121h41.722a1.121,1.121,0,0,1,1.113,1.121Zm0-36.822a1.113,1.113,0,0,1-1.113,1.121H424.117A1.113,1.113,0,0,1,423,611.594V597.352a1.113,1.113,0,0,1,1.121-1.121h41.721a1.113,1.113,0,0,1,1.113,1.121Zm0-36.814a1.121,1.121,0,0,1-1.113,1.121H424.117A1.121,1.121,0,0,1,423,574.781V560.53a1.121,1.121,0,0,1,1.121-1.121h41.721a1.121,1.121,0,0,1,1.113,1.121Zm0-36.822a1.113,1.113,0,0,1-1.113,1.121H424.117A1.113,1.113,0,0,1,423,537.959V523.742a1.113,1.113,0,0,1,1.121-1.121h41.721a1.113,1.113,0,0,1,1.113,1.121Zm0-36.814a1.121,1.121,0,0,1-1.113,1.121H424.117A1.121,1.121,0,0,1,423,501.145v-14.25a1.113,1.113,0,0,1,1.121-1.113h41.721a1.113,1.113,0,0,1,1.113,1.113Zm0-36.814a1.113,1.113,0,0,1-1.113,1.113H424.117A1.113,1.113,0,0,1,423,464.332v-14.25a1.121,1.121,0,0,1,1.121-1.121h41.721a1.121,1.121,0,0,1,1.113,1.121Zm0-36.822a1.113,1.113,0,0,1-1.113,1.121H424.117A1.113,1.113,0,0,1,423,427.51V413.293a1.113,1.113,0,0,1,1.121-1.121h41.721a1.113,1.113,0,0,1,1.113,1.121Zm98.914,220.9a1.113,1.113,0,0,1-1.121,1.113H523.022a1.121,1.121,0,0,1-1.121-1.113V634.191a1.129,1.129,0,0,1,1.121-1.121h41.721a1.121,1.121,0,0,1,1.121,1.121Zm0-36.822a1.113,1.113,0,0,1-1.121,1.121H523.022a1.121,1.121,0,0,1-1.121-1.121V597.352a1.121,1.121,0,0,1,1.121-1.121h41.721a1.113,1.113,0,0,1,1.121,1.121Zm0-36.814a1.121,1.121,0,0,1-1.121,1.121H523.022a1.13,1.13,0,0,1-1.121-1.121V560.53a1.129,1.129,0,0,1,1.121-1.121h41.721a1.121,1.121,0,0,1,1.121,1.121Zm0-36.822a1.113,1.113,0,0,1-1.121,1.121H523.022a1.121,1.121,0,0,1-1.121-1.121V523.742a1.121,1.121,0,0,1,1.121-1.121h41.721a1.113,1.113,0,0,1,1.121,1.121Zm0-36.814a1.121,1.121,0,0,1-1.121,1.121H523.022a1.13,1.13,0,0,1-1.121-1.121V486.895a1.121,1.121,0,0,1,1.121-1.113h41.721a1.113,1.113,0,0,1,1.121,1.113Zm0-36.814a1.113,1.113,0,0,1-1.121,1.113H523.022a1.121,1.121,0,0,1-1.121-1.113V450.081a1.129,1.129,0,0,1,1.121-1.121h41.721a1.121,1.121,0,0,1,1.121,1.121Zm0-36.822a1.113,1.113,0,0,1-1.121,1.121H523.022A1.121,1.121,0,0,1,521.9,427.5V413.293a1.121,1.121,0,0,1,1.121-1.121h41.721a1.113,1.113,0,0,1,1.121,1.121Zm67.59,220.9a1.113,1.113,0,0,1-1.121,1.113H590.612a1.121,1.121,0,0,1-1.121-1.113V634.191a1.13,1.13,0,0,1,1.121-1.121h41.721a1.121,1.121,0,0,1,1.121,1.121Zm0-36.822a1.113,1.113,0,0,1-1.121,1.121H590.612a1.121,1.121,0,0,1-1.121-1.121V597.352a1.121,1.121,0,0,1,1.121-1.121h41.721a1.113,1.113,0,0,1,1.121,1.121Zm0-36.814a1.121,1.121,0,0,1-1.121,1.121H590.612a1.13,1.13,0,0,1-1.121-1.121V560.53a1.13,1.13,0,0,1,1.121-1.121h41.721a1.121,1.121,0,0,1,1.121,1.121Zm0-36.822a1.113,1.113,0,0,1-1.121,1.121H590.612a1.121,1.121,0,0,1-1.121-1.121v-14.2a1.121,1.121,0,0,1,1.121-1.121h41.721a1.113,1.113,0,0,1,1.121,1.121Zm0-36.814a1.121,1.121,0,0,1-1.121,1.121H590.612a1.129,1.129,0,0,1-1.121-1.121V486.895a1.121,1.121,0,0,1,1.121-1.113h41.721a1.113,1.113,0,0,1,1.121,1.113Zm0-36.814a1.113,1.113,0,0,1-1.121,1.113H590.612a1.121,1.121,0,0,1-1.121-1.113V450.081a1.129,1.129,0,0,1,1.121-1.121h41.721a1.121,1.121,0,0,1,1.121,1.121Zm0-36.822a1.113,1.113,0,0,1-1.121,1.121H590.612a1.121,1.121,0,0,1-1.121-1.121v-14.2a1.121,1.121,0,0,1,1.121-1.121h41.721a1.113,1.113,0,0,1,1.121,1.121Zm98.914,220.9a1.121,1.121,0,0,1-1.121,1.113H689.526a1.113,1.113,0,0,1-1.121-1.113v-14.2a1.121,1.121,0,0,1,1.121-1.121h41.73a1.129,1.129,0,0,1,1.121,1.121Zm0-36.822a1.121,1.121,0,0,1-1.121,1.121H689.526a1.113,1.113,0,0,1-1.121-1.121V597.352a1.113,1.113,0,0,1,1.121-1.121h41.73a1.121,1.121,0,0,1,1.121,1.121Zm0-36.814a1.129,1.129,0,0,1-1.121,1.121H689.526a1.121,1.121,0,0,1-1.121-1.121V560.53a1.121,1.121,0,0,1,1.121-1.121h41.73a1.129,1.129,0,0,1,1.121,1.121Zm0-36.822a1.121,1.121,0,0,1-1.121,1.121H689.526a1.113,1.113,0,0,1-1.121-1.121V523.742a1.113,1.113,0,0,1,1.121-1.121h41.73a1.121,1.121,0,0,1,1.121,1.121Zm0-36.814a1.129,1.129,0,0,1-1.121,1.121H689.526a1.121,1.121,0,0,1-1.121-1.121V486.895a1.113,1.113,0,0,1,1.121-1.113h41.73a1.121,1.121,0,0,1,1.121,1.113Zm0-36.814a1.121,1.121,0,0,1-1.113,1.138h-41.73a1.113,1.113,0,0,1-1.121-1.113v-14.25a1.121,1.121,0,0,1,1.121-1.121h41.73a1.129,1.129,0,0,1,1.121,1.121Zm0-36.822a1.121,1.121,0,0,1-1.121,1.121H689.526a1.113,1.113,0,0,1-1.121-1.121V413.293a1.113,1.113,0,0,1,1.121-1.121h41.73a1.121,1.121,0,0,1,1.121,1.121Z" transform="translate(-133.337 -128.509)" fill="#0075f0" opacity="0.1"/>
    <path id="Path_113" data-name="Path 113" d="M433.291,302.992a23.991,23.991,0,0,0-13.927,1.511,20.52,20.52,0,0,1-16.8-.041,23.435,23.435,0,0,0-19.665.39,12.249,12.249,0,0,1-5.664,1.412c-7.972,0-14.607-8.03-15.986-18.627a15.289,15.289,0,0,0,3.986-4.293c4.675-7.532,11.917-12.374,20.047-12.374s15.28,4.783,19.931,12.232a15.372,15.372,0,0,0,13.246,7.275h.208C425.078,290.477,430.575,295.568,433.291,302.992Z" transform="translate(-125.196 -116.591)" fill="#0075f0" opacity="0.1"/>
    <path id="Path_114" data-name="Path 114" d="M457.538,263.691l-12.888,8.172,7.823-14.225a12.739,12.739,0,0,0-7.8-2.782h-.208a15.081,15.081,0,0,1-2.674-.2l-4.352,2.774,1.877-3.4a15.529,15.529,0,0,1-7.64-5.813l-7.823,4.983,4.925-9c-4.576-5.489-10.738-8.853-17.514-8.853-8.13,0-15.372,4.833-20.047,12.365a14.989,14.989,0,0,1-13.287,7.15h-.44c-8.977,0-16.252,10.173-16.252,22.729s7.275,22.729,16.252,22.729a12.132,12.132,0,0,0,5.664-1.42,23.435,23.435,0,0,1,19.665-.382,20.52,20.52,0,0,0,16.725,0,23.427,23.427,0,0,1,19.5.374,12.166,12.166,0,0,0,5.6,1.387c8.977,0,16.252-10.181,16.252-22.729A28.866,28.866,0,0,0,457.538,263.691Z" transform="translate(-125.195 -110.549)" fill="#0075f0" opacity="0.1"/>
    <path id="Path_115" data-name="Path 115" d="M898.715,487.429a16.866,16.866,0,0,0-9.749,1.055,14.342,14.342,0,0,1-11.709,0,16.41,16.41,0,0,0-13.769.274,8.537,8.537,0,0,1-3.961.988c-5.581,0-10.223-5.622-11.186-13.038a10.853,10.853,0,0,0,2.79-3.006c3.272-5.273,8.3-8.662,14.026-8.662s10.7,3.322,13.976,8.562a10.746,10.746,0,0,0,9.268,5.091h.149C892.951,478.676,896.8,482.238,898.715,487.429Z" transform="translate(-207.786 -149.496)" fill="#0075f0" opacity="0.1"/>
    <path id="Path_116" data-name="Path 116" d="M915.666,459.944l-9.019,5.722,5.473-9.965a8.919,8.919,0,0,0-5.456-1.943h-.141a10.7,10.7,0,0,1-1.868-.141l-3.064,1.935,1.312-2.375a10.953,10.953,0,0,1-5.348-4.061l-5.489,3.455,3.455-6.286c-3.2-3.845-7.474-6.2-12.257-6.2-5.688,0-10.8,3.388-14.034,8.662a10.481,10.481,0,0,1-9.276,4.983h-.274c-6.278,0-11.377,7.117-11.377,15.9s5.1,15.911,11.377,15.911a8.538,8.538,0,0,0,3.961-.988,16.376,16.376,0,0,1,13.769-.266,14.425,14.425,0,0,0,11.709,0,16.4,16.4,0,0,1,13.644.266,8.6,8.6,0,0,0,3.92.963c6.286,0,11.377-7.117,11.377-15.911A20.223,20.223,0,0,0,915.666,459.944Z" transform="translate(-207.779 -145.264)" fill="#0075f0" opacity="0.1"/>
    <path id="Path_117" data-name="Path 117" d="M315.62,423.422a16.874,16.874,0,0,1,9.749,1.055,14.317,14.317,0,0,0,11.7,0,16.409,16.409,0,0,1,13.769.274,8.562,8.562,0,0,0,3.961.988c5.581,0,10.231-5.622,11.194-13.038a10.738,10.738,0,0,1-2.79-3.006c-3.255-5.29-8.346-8.695-14.051-8.695s-10.7,3.322-13.968,8.562a10.8,10.8,0,0,1-9.284,5.107h-.141C321.342,414.669,317.488,418.232,315.62,423.422Z" transform="translate(-117.46 -138.638)" fill="#0075f0" opacity="0.1"/>
    <path id="Path_118" data-name="Path 118" d="M294.653,395.943l9.019,5.7-5.481-9.965a8.935,8.935,0,0,1,5.456-1.943h.149a10.793,10.793,0,0,0,1.868-.141l3.056,1.935-1.312-2.375a10.97,10.97,0,0,0,5.356-4.061l5.473,3.471-3.463-6.286a16.024,16.024,0,0,1,12.266-6.2c5.689,0,10.8,3.388,14.034,8.661a10.472,10.472,0,0,0,9.276,4.983h.3c6.286,0,11.377,7.117,11.377,15.9s-5.091,15.911-11.377,15.911a8.586,8.586,0,0,1-3.961-.988,16.376,16.376,0,0,0-13.769-.266,14.408,14.408,0,0,1-11.7,0,16.418,16.418,0,0,0-13.653.266,8.57,8.57,0,0,1-3.92.963c-6.278,0-11.377-7.117-11.377-15.911a20.221,20.221,0,0,1,2.383-9.65Z" transform="translate(-113.5 -134.411)" fill="#0075f0" opacity="0.1"/>
    <path id="Path_119" data-name="Path 119" d="M295.68,785.03c11.244,7.142,27.446-.083,38.765,6.951,2.923,1.81,5.282,4.476,8.3,6.12,3.629,1.985,7.9,2.342,12.025,2.491,34.563,1.337,69.707-8.3,103.407-.515,9.426,2.176,18.643,5.713,28.3,6.228,16.684.905,32.67-7.233,49.37-7.682,25.329-.681,50.217,16.268,74.657,9.583,8.039-2.2,15.413-6.893,23.709-7.682,9.243-.83,18.129,3.2,27.114,5.547,31.864,8.3,65.049-5.149,97.992-6.154,21.484-.656,42.76,4.028,64.226,5.107,15.264.764,30.56-.307,45.807-1.37,5.813-.407,11.9-.905,16.767-4.094s7.856-10.04,4.85-15.023Z" transform="translate(-114.079 -203.67)" fill="#3f3d56"/>
    <path id="Path_120" data-name="Path 120" d="M295.68,785.03c11.244,7.142,27.446-.083,38.765,6.951,2.923,1.81,5.282,4.476,8.3,6.12,3.629,1.985,7.9,2.342,12.025,2.491,34.563,1.337,69.707-8.3,103.407-.515,9.426,2.176,18.643,5.713,28.3,6.228,16.684.905,32.67-7.233,49.37-7.682,25.329-.681,50.217,16.268,74.657,9.583,8.039-2.2,15.413-6.893,23.709-7.682,9.243-.83,18.129,3.2,27.114,5.547,31.864,8.3,65.049-5.149,97.992-6.154,21.484-.656,42.76,4.028,64.226,5.107,15.264.764,30.56-.307,45.807-1.37,5.813-.407,11.9-.905,16.767-4.094s7.856-10.04,4.85-15.023Z" transform="translate(-114.079 -203.67)" opacity="0.1"/>
    <path id="Path_121" data-name="Path 121" d="M295.68,780.03c11.244,7.142,27.446-.083,38.765,6.951,2.923,1.81,5.282,4.476,8.3,6.12,3.629,1.985,7.9,2.342,12.025,2.491,34.563,1.337,69.707-8.3,103.407-.515,9.426,2.176,18.643,5.713,28.3,6.228,16.684.905,32.67-7.233,49.37-7.682,25.329-.681,50.217,16.268,74.657,9.583,8.039-2.2,15.413-6.893,23.709-7.682,9.243-.83,18.129,3.2,27.114,5.547,31.864,8.3,65.049-5.149,97.992-6.154,21.484-.656,42.76,4.028,64.226,5.107,15.264.764,30.56-.307,45.807-1.37,5.813-.407,11.9-.905,16.767-4.094s7.856-10.04,4.85-15.023Z" transform="translate(-114.079 -202.822)" fill="#3f3d56"/>
    <g id="Group_134" data-name="Group 134" transform="translate(26.879 172.873)" opacity="0.1">
      <path id="Path_122" data-name="Path 122" d="M194.1,649.29a20.3,20.3,0,0,1-2.682,10.281,21.043,21.043,0,0,1,0,20.562,18.894,18.894,0,0,1,2.026,4.983,377.11,377.11,0,0,1-24.988-37.37h0a19.931,19.931,0,0,1,2.624-8.769,20.3,20.3,0,0,1-2.682-10.281,21.143,21.143,0,0,1,1.212-7.15,17.766,17.766,0,0,1,1.47-3.131c2.342-3.978,6.029-6.544,10.165-6.544s7.831,2.566,10.173,6.544a18.5,18.5,0,0,1,1.437,3.031,21.284,21.284,0,0,1,1.246,7.25,20.3,20.3,0,0,1-2.682,10.281A20.3,20.3,0,0,1,194.1,649.29Z" transform="translate(-119.376 -347.265)" fill="#3f3d56"/>
      <ellipse id="Ellipse_1" data-name="Ellipse 1" cx="12.847" cy="16.825" rx="12.847" ry="16.825" transform="translate(49.024 244.085)" fill="#3f3d56"/>
      <ellipse id="Ellipse_2" data-name="Ellipse 2" cx="12.847" cy="16.825" rx="12.847" ry="16.825" transform="translate(49.024 223.523)" fill="#3f3d56"/>
      <path id="Path_123" data-name="Path 123" d="M232.524,430.894a61.27,61.27,0,0,1-13.179,38.059,61.561,61.561,0,0,1-36.54,98.466c-1.478.3-2.981.531-4.5.714a62.184,62.184,0,0,1-14.118.075q-2.342-.249-4.626-.689a60.872,60.872,0,0,1-19.1-6.984,613.32,613.32,0,0,1-28.908-69.583,61.278,61.278,0,0,1,11.037-21.965,61.611,61.611,0,0,1-9.965-57.807l46.737,15.687L115.531,404.1a61.812,61.812,0,0,1,7.017-11.228A61.561,61.561,0,1,1,224.22,323.983L179.035,357.2l49-25.412a61.636,61.636,0,0,1-1.179,48.772l-36.54-.274,33.766,5.547a61.812,61.812,0,0,1-4.792,7.042A61.287,61.287,0,0,1,232.524,430.894Z" transform="translate(-109.367 -293.239)" fill="#0075f0"/>
      <path id="Path_124" data-name="Path 124" d="M232.533,534.966a61.575,61.575,0,0,1-49.667,60.4c-1.488.3-2.991.533-4.511.716a62.188,62.188,0,0,1-14.118.075q-2.342-.249-4.626-.689a60.87,60.87,0,0,1-19.1-6.984,613.293,613.293,0,0,1-28.949-69.616A61.279,61.279,0,0,1,122.6,496.907a61.312,61.312,0,0,1-13.179-38.092c0-6.909,118.189,27.587,109.934,38.059A61.27,61.27,0,0,1,232.533,534.966Z" transform="translate(-109.376 -321.16)" opacity="0.1"/>
    </g>
    <g id="Group_135" data-name="Group 135" transform="translate(785.036 238.952)" opacity="0.1">
      <path id="Path_125" data-name="Path 125" d="M1090.12,637.65c-2.408,7.69-4.983,15.322-7.624,22.779a21.29,21.29,0,0,1-1.1-6.818C1081.4,646.2,1085.054,639.9,1090.12,637.65Z" transform="translate(-1032.339 -417.715)" fill="#3f3d56"/>
      <path id="Path_126" data-name="Path 126" d="M1105.929,460.239c0,14.574-2.94,37.6-8.3,63.944a702.312,702.312,0,0,1-17.564,68.561c-2.408,7.69-4.983,15.322-7.624,22.779-3.031,8.471-6.228,16.709-9.575,24.589a61.793,61.793,0,0,1-27.33-96.14,61.852,61.852,0,0,1-9.965-57.932l46.738,15.72-43.831-22.821a62.007,62.007,0,0,1,7.017-11.253,61.785,61.785,0,0,1,24.183-94.878,105.924,105.924,0,0,1,40.484,53.09l-8.1,6.029,8.686-4.509a105.4,105.4,0,0,1,5.057,27.662h-2.442l2.491.407C1105.929,457.058,1105.929,458.636,1105.929,460.239Z" transform="translate(-1022.321 -372.81)" fill="#0075f0"/>
      <path id="Path_127" data-name="Path 127" d="M1097.683,551.16a702.272,702.272,0,0,1-17.564,68.561c-2.408,7.69-4.983,15.322-7.624,22.779-3.031,8.471-6.228,16.708-9.575,24.589a61.793,61.793,0,0,1-27.33-96.14,61.535,61.535,0,0,1-13.171-38.134C1022.42,528.664,1065.37,539.542,1097.683,551.16Z" transform="translate(-1022.338 -399.787)" opacity="0.1"/>
    </g>
    <path id="Path_128" data-name="Path 128" d="M945.536,417.176v-.39a105.4,105.4,0,0,0-5.057-27.662c-.166-.507-.332-1.021-.507-1.52A105.419,105.419,0,0,0,761.5,351.571a148.988,148.988,0,0,0-8.4-29.456,473.028,473.028,0,0,1-83.567,3.114,337.164,337.164,0,0,0,52.982,19.241l-.648,2.408a340.239,340.239,0,0,1-59.227-22.173l-5.738-2.782,6.361.415a473.179,473.179,0,0,0,88.857-2.549A149.83,149.83,0,0,0,725.95,278.2c-47.8-4.817-95.227-14.848-139.514-34.738l1.021-2.267c43.108,19.374,89.306,29.331,135.944,34.231a149.28,149.28,0,0,0-237.283,25.221A205.028,205.028,0,0,0,435.262,185.3a478.849,478.849,0,0,1-78.7,23.842,475.968,475.968,0,0,1-123.022,9.791,337.157,337.157,0,0,0,52.982,19.242l-.648,2.408a340.241,340.241,0,0,1-59.211-22.173l-5.738-2.782,6.361.415a472.7,472.7,0,0,0,206.249-32.678q-3.7-4.044-7.607-7.906c-81.732,1.661-170.748.83-251.334-28.509A205.56,205.56,0,0,0,77,322.066c0,38.582,10.6,91.639,29.066,144.871a615.562,615.562,0,0,0,28.991,69.757c5.639,11.46,11.626,22.6,17.913,33.259h0a377.494,377.494,0,0,0,24.988,37.37q2.442,3.214,4.941,6.311a227.964,227.964,0,0,0,31.125,32.279h0q3.463,2.89,6.967,5.506a132.705,132.705,0,0,0,19.931,12.457c12.183,6.1,24.755,9.683,37.619,10.2,1.03.042,2.068.066,3.1.066v.424H839.7v-.424h.415a28.235,28.235,0,0,0,9.434-1.661c19.731-7,37.9-35.111,53.007-70.638,3.322-7.881,6.544-16.119,9.575-24.589,2.674-7.474,5.215-15.089,7.624-22.779a702.325,702.325,0,0,0,17.564-68.561c5.323-26.342,8.3-49.37,8.3-63.944C945.644,420.34,945.644,418.763,945.536,417.176Z" transform="translate(-77 -95.562)" fill="#0075f0" opacity="0.1"/>
    <path id="Path_129" data-name="Path 129" d="M399.774,747.091l15.895-9.351a38.308,38.308,0,0,0-8.13-9.725l-29.987,9.326,23.5-13.81A38.2,38.2,0,0,0,344.5,757.039c0,21.093,17.1,21.824,38.2,21.824s38.2-.731,38.2-21.824a38.026,38.026,0,0,0-3.28-15.5Z" transform="translate(-122.356 -192.529)" fill="#0075f0"/>
    <path id="Path_130" data-name="Path 130" d="M403.813,772.592a29.7,29.7,0,0,0-5.63-4.418c-2.89-1.918-5.871-3.878-9.276-4.526-2.99-.573-6.071-.091-9.135-.266a21.309,21.309,0,0,1-13.96-6.394c-2.167-2.242-3.878-4.983-6.486-6.718a14.266,14.266,0,0,0-9.724-1.785,24.121,24.121,0,0,0-2.873.59,38.076,38.076,0,0,0-2.259,12.963c0,21.093,17.1,21.824,38.2,21.824,10.239,0,19.532-.174,26.391-2.757l-1.146-2.143a30.225,30.225,0,0,0-4.1-6.37Z" transform="translate(-122.351 -197.527)" opacity="0.1"/>
    <circle id="Ellipse_3" data-name="Ellipse 3" cx="29.688" cy="29.688" r="29.688" transform="translate(424.847 124.583)" fill="#3f3d56"/>
    <path id="Path_131" data-name="Path 131" d="M593.827,545.048c3.064,21.5-.673,43.424-6.494,64.343a47.781,47.781,0,0,1-4.293,11.319c-2.035,3.5-4.866,6.5-7.258,9.791-4.983,6.859-7.906,14.948-10.638,22.953a647.442,647.442,0,0,0-18.951,67.532,4.626,4.626,0,0,0,0,2.882c.722,1.661,2.915,1.877,4.717,1.869l23.3-.125c.83-1.594-.706-3.322-1.661-4.85-3.322-5.165-.133-11.875,2.8-17.281a185.8,185.8,0,0,0,16.426-41.522c1.594-6.087,2.89-12.307,5.481-18.046,3.131-6.959,8.039-12.947,12.025-19.457,4.634-7.565,8.014-15.778,11.369-24.025,4.684-11.444,9.409-23.028,11.253-35.252,1.736-11.477.88-23.169-.249-34.721a2.192,2.192,0,0,0-2.541-2.491l-31.266-1.611c-6.444-.332-7.972-1.744-6.992,4.584C591.535,535.664,593.146,540.265,593.827,545.048Z" transform="translate(-156.516 -159.83)" fill="#3f3d56"/>
    <path id="Path_132" data-name="Path 132" d="M593.827,545.048c3.064,21.5-.673,43.424-6.494,64.343a47.781,47.781,0,0,1-4.293,11.319c-2.035,3.5-4.866,6.5-7.258,9.791-4.983,6.859-7.906,14.948-10.638,22.953a647.442,647.442,0,0,0-18.951,67.532,4.626,4.626,0,0,0,0,2.882c.722,1.661,2.915,1.877,4.717,1.869l23.3-.125c.83-1.594-.706-3.322-1.661-4.85-3.322-5.165-.133-11.875,2.8-17.281a185.8,185.8,0,0,0,16.426-41.522c1.594-6.087,2.89-12.307,5.481-18.046,3.131-6.959,8.039-12.947,12.025-19.457,4.634-7.565,8.014-15.778,11.369-24.025,4.684-11.444,9.409-23.028,11.253-35.252,1.736-11.477.88-23.169-.249-34.721a2.192,2.192,0,0,0-2.541-2.491l-31.266-1.611c-6.444-.332-7.972-1.744-6.992,4.584C591.535,535.664,593.146,540.265,593.827,545.048Z" transform="translate(-156.516 -159.83)" opacity="0.1"/>
    <path id="Path_133" data-name="Path 133" d="M608.693,485.524c-6.353,9.135-13.013,19.648-10.9,30.585,1.6,8.3,7.931,14.74,13.9,20.761,23.867,23.967,47.335,50.591,55.457,83.435,2.093,8.487,3.106,17.2,4.908,25.744,3.272,15.529,9.135,30.378,14.948,45.135l15.579,39.321a23.551,23.551,0,0,0,22.505-14.948c-2.043-.158-4.709-2.134-5.9-3.8-6.643-9.193-8.005-21.019-9.708-32.23-1.885-12.39-4.4-24.681-6.926-36.963l-11.161-54.344c-1.287-6.27-2.574-12.548-4.252-18.726-6.494-23.933-18.8-46.5-20.7-71.252-.282-3.637-.457-7.632-2.923-10.331-2.591-2.848-6.843-3.322-10.688-3.546C637.268,483.373,623.848,481.854,608.693,485.524Z" transform="translate(-165.236 -152.575)" fill="#3f3d56"/>
    <path id="Path_134" data-name="Path 134" d="M556.6,759.242a24.8,24.8,0,0,0-5.165-.664A10.729,10.729,0,0,0,543,763.186a20.969,20.969,0,0,0-2.267,4.983l-2.251,6.461c-.664,1.893-1.312,4.077-.324,5.813a6.161,6.161,0,0,0,3.023,2.334c5.448,2.425,11.626,2.558,17.522,3.139,5.763.565,11.477,1.578,17.165,2.641,1.96.374,3.911.747,5.9.947a70.25,70.25,0,0,0,13.337-.4l4.576-.44a16.474,16.474,0,0,0,4.5-.83,5.672,5.672,0,0,0,3.322-2.981c1.129-2.8-1.3-6.112-4.26-6.693-1.2-.233-2.491-.125-3.671-.282a17.339,17.339,0,0,1-4.019-1.2c-5.813-2.3-11.767-4.626-16.916-8.246-1.428-1-2.923-2.408-2.765-4.152a8.468,8.468,0,0,1,.739-2.151,7.856,7.856,0,0,0,.066-5.556c-.282-.764-.83-1.569-1.6-1.661-2.192-.266-1.927,2.932-2.251,4.152-.44,1.661-1.237,1.81-2.8,1.661C565.536,760.313,561.052,760.089,556.6,759.242Z" transform="translate(-155.106 -198.642)" fill="#f2f2f2"/>
    <path id="Path_135" data-name="Path 135" d="M718.322,780.958a14.658,14.658,0,0,0,3.172,8.927,6.941,6.941,0,0,0,2.259,1.819,9.069,9.069,0,0,0,4.152.656,33.258,33.258,0,0,0,11.535-2.334,32.968,32.968,0,0,1,3.986-1.5,44.735,44.735,0,0,1,5.182-.747c6.868-.988,12.9-5.041,19.532-7.092a41.067,41.067,0,0,0,5.813-1.91,26.643,26.643,0,0,0,6.835-5.34,16.383,16.383,0,0,0,3.139-3.762c1.221-2.267,1.3-4.983,1.345-7.549a2.151,2.151,0,0,0-.2-1.171,1.745,1.745,0,0,0-.747-.59c-2.018-1-4.41-.5-6.644-.108-8.072,1.437-16.335,1.171-24.531.905a3.563,3.563,0,0,1-3.77-2.151l-3.114-4.983c-.889-1.428-2.3-3.064-3.911-2.574-1.287.39-1.81,1.968-1.76,3.322s.465,2.7.208,4.019a5.489,5.489,0,0,1-2.657,3.455,16.973,16.973,0,0,1-4.152,1.594c-4.584,1.3-9.916,2.765-13.462,6.137C717.923,772.371,718.164,777.727,718.322,780.958Z" transform="translate(-185.725 -198.044)" fill="#f2f2f2"/>
    <path id="Path_136" data-name="Path 136" d="M709.862,382.888a19.241,19.241,0,0,0,4.534-4.933,20.106,20.106,0,0,0,1.935-6.818l1.3-8.238c.722-4.543,1.57-9.351,4.6-12.814s9.068-4.7,12.149-1.279a10.658,10.658,0,0,1,2.209,5.514,40.144,40.144,0,0,1-9.816,33.218c-3.729,4.086-8.3,7.333-12.249,11.194-3.438,3.322-6.419,7.134-9.592,10.746A132.39,132.39,0,0,1,678.8,432.316c.116-6.179.905-12.805,0-18.942-.673-4.435-2.491-6.826,1.8-9.724C690.571,396.872,700.628,390.744,709.862,382.888Z" transform="translate(-178.877 -129.445)" fill="#fbbebe"/>
    <path id="Path_137" data-name="Path 137" d="M614.373,314.428c-.324,4.418-2.159,8.936-5.813,11.485q15.521,5.431,30.618,11.975c-1.943-1.868-2.533-4.734-2.624-7.424-.257-7.034,2.176-13.951,5.73-20.014a4.859,4.859,0,0,0,.938-2.641c-.116-1.96-2.442-2.865-4.352-3.322a107.012,107.012,0,0,0-19.864-2.882c-2.865-.091-6.262-1-5.614,2.649A40.1,40.1,0,0,1,614.373,314.428Z" transform="translate(-167.129 -121.757)" fill="#fbbebe"/>
    <circle id="Ellipse_4" data-name="Ellipse 4" cx="24.274" cy="24.274" r="24.274" transform="translate(442.984 146.49)" fill="#fbbebe"/>
    <path id="Path_138" data-name="Path 138" d="M656.5,361.758a29.366,29.366,0,0,0-3.081-5.165c-4.4-6.32-8.919-12.631-14.566-17.863a90.671,90.671,0,0,0-13.827-10.156,31.382,31.382,0,0,0-8.653-4.152,33.854,33.854,0,0,0-5.556-.756l-6.3-.515a5.157,5.157,0,0,0-1.661.05c-1.711.432-2.491,2.558-2.126,4.277s1.661,3.114,2.807,4.418c.282,12.864-5.439,25.553-6.212,38.4-1.354,22.464,12.357,43.357,13.453,65.838a7.1,7.1,0,0,1-.316,3.015c-.183.465-.457.889-.664,1.345a13.142,13.142,0,0,0-.739,4.567,23.2,23.2,0,0,1-6.835,14.632,10.158,10.158,0,0,0,3.853,2.94c2.649,1.154,5.813,1.254,8.628,2.06,7.341,2.143,14.865,4.3,22.5,3.845A19.848,19.848,0,0,0,638.934,462c1.08-.673,2.325.764,2.491,2.026s-.075,2.732.83,3.646,2.051.772,3.156.631c4.659-.59,9.135-2.159,13.7-3.214s9.451-1.561,13.893-.05c.9-1.138.515-2.823-.216-4.069a18.175,18.175,0,0,1-2.184-3.729,8.371,8.371,0,0,1-.266-2.45c0-7.1,1.462-14.275.075-21.243-.407-2.043-1.055-4.036-1.47-6.087a52.5,52.5,0,0,1-.6-12.141c.108-4.061-.382-8.454-.465-12.573a40.117,40.117,0,0,0-.332-5.091c-.282-1.769-.83-3.5-.98-5.282-.448-4.534,1.379-9.035,1.1-13.586C667.219,371.881,659.189,368.128,656.5,361.758Z" transform="translate(-165.208 -125.431)" fill="#ff6f61"/>
    <path id="Path_139" data-name="Path 139" d="M595.94,365.687c-5.88,15.6-8.753,32.138-11.626,48.564l-6.644,38.582c-1.885,10.9-3.779,21.874-3.7,32.935,0,3.106.2,6.27-.615,9.268-1.063,3.936-3.7,7.217-5.705,10.8a35.526,35.526,0,0,0-3.82,24.025c.681,3.446,2.541,7.358,6.037,7.756,2.873.316,5.356-1.968,7.034-4.327,3.853-5.406,5.763-11.933,7.474-18.361a415.317,415.317,0,0,0,11.518-64.019,62.326,62.326,0,0,1,1.154-8.138,57.764,57.764,0,0,1,2.807-8.105q3.812-9.45,7.632-18.9c5.871-14.558,11.776-29.182,19.839-42.652-7.972-2.292-16.268-4.983-24.241-7.25C600.782,365.18,598.315,365.587,595.94,365.687Z" transform="translate(-159.434 -132.615)" fill="#fbbebe"/>
    <path id="Path_140" data-name="Path 140" d="M615.178,376.236c-5.581-1.2-11.352-.83-17.049-.972a3.679,3.679,0,0,1-2.292-.6c-1.154-.988-.664-2.84-.083-4.244l2.757-6.644a9.666,9.666,0,0,1,2.209-3.671c1.4-1.246,3.38-1.553,5.24-1.777,6.054-.7,12.282-.93,18.153.706s11.394,5.356,14.018,10.862c1.1,2.292,1.6,5.182.149,7.266-2.159,3.1-7,6.56-10.613,4.866C623.341,379.981,620.028,377.266,615.178,376.236Z" transform="translate(-164.853 -131.313)" fill="#ff6f61"/>
    <path id="Path_141" data-name="Path 141" d="M639.408,241.834a24.515,24.515,0,0,0-13.536,3.9,29.689,29.689,0,0,0-29.149-6.826,16.966,16.966,0,1,0-19.6,19.632,29.689,29.689,0,1,0,56.985,16.684,26.57,26.57,0,0,0,5.323.54c11.709,0,21.21-7.6,21.21-16.966S651.1,241.834,639.408,241.834Z" transform="translate(-159.412 -108.772)" fill="#3f3d56"/>
    <path id="Path_142" data-name="Path 142" d="M658.21,274.58a25.825,25.825,0,0,1-5.323-.54A29.539,29.539,0,0,1,649,282.586a26.659,26.659,0,0,0,4.983.482c10.945,0,19.931-6.644,21.085-15.147A23.4,23.4,0,0,1,658.21,274.58Z" transform="translate(-173.986 -116.073)" opacity="0.1"/>
    <path id="Path_143" data-name="Path 143" d="M609.7,289.6a29.73,29.73,0,0,1-28.385-38.433,16.966,16.966,0,0,1-14.026-16.709,16.677,16.677,0,0,1,.274-3.039,16.966,16.966,0,0,0,9.517,28.235A29.688,29.688,0,1,0,633.8,277.244,29.63,29.63,0,0,1,609.7,289.6Z" transform="translate(-159.413 -109.885)" opacity="0.1"/>
    <rect id="Rectangle_23" data-name="Rectangle 23" width="0.556" height="4.601" rx="0.278" transform="matrix(0.814, 0.581, -0.581, 0.814, 558.298, 229.22)" fill="#3a3768"/>
    <rect id="Rectangle_24" data-name="Rectangle 24" width="0.316" height="1.511" rx="0.158" transform="matrix(0.814, 0.581, -0.581, 0.814, 545.297, 215.51)" fill="#3a3768"/>
    <rect id="Rectangle_25" data-name="Rectangle 25" width="0.349" height="2.633" rx="0.174" transform="matrix(0.814, 0.581, -0.581, 0.814, 543.667, 217.77)" fill="#3a3768"/>
    <rect id="Rectangle_26" data-name="Rectangle 26" width="0.332" height="2.657" rx="0.166" transform="matrix(0.814, 0.581, -0.581, 0.814, 541.616, 220.67)" fill="#3a3768"/>
    <rect id="Rectangle_27" data-name="Rectangle 27" width="18.668" height="37.943" rx="2.52" transform="matrix(0.814, 0.581, -0.581, 0.814, 549.119, 213.093)" fill="#3a3768"/>
    <rect id="Rectangle_28" data-name="Rectangle 28" width="18.668" height="37.943" rx="2.52" transform="matrix(0.814, 0.581, -0.581, 0.814, 549.119, 213.093)" opacity="0.1"/>
    <rect id="Rectangle_29" data-name="Rectangle 29" width="18.668" height="37.943" rx="2.52" transform="matrix(0.814, 0.581, -0.581, 0.814, 548.35, 211.544)" fill="#3a3768"/>
    <path id="Path_144" data-name="Path 144" d="M745.665,350.354l-1.736-1.246-.149.208a1.212,1.212,0,0,1-1.661.291l-5.547-3.961a1.221,1.221,0,0,1-.282-1.7l.149-.208-1.661-1.163a1.478,1.478,0,0,0-2.068.34l-19.167,26.865a1.487,1.487,0,0,0,.341,2.068l10.912,7.781a1.478,1.478,0,0,0,2.068-.349l19.167-26.857a1.478,1.478,0,0,0-.365-2.068Z" transform="translate(-184.883 -128.684)" fill="#0075f0"/>
    <rect id="Rectangle_30" data-name="Rectangle 30" width="2.608" height="0.531" rx="0.266" transform="matrix(0.814, 0.581, -0.581, 0.814, 553.819, 216.85)" fill="#e6e8ec"/>
    <circle id="Ellipse_5" data-name="Ellipse 5" cx="0.299" cy="0.299" r="0.299" transform="translate(556.015 218.706)" fill="#e6e8ec"/>
    <path id="Path_145" data-name="Path 145" d="M735.64,99A55.64,55.64,0,0,0,680,154.64c0,30.726,58.3,132.489,58.3,132.489s52.982-101.721,52.982-132.489A55.64,55.64,0,0,0,735.64,99Zm0,92.744a12.076,12.076,0,1,1,0,.025Z" transform="translate(-179.243 -87.432)" fill="#0075f0"/>
    <path id="Path_146" data-name="Path 146" d="M735.64,99A55.64,55.64,0,0,0,680,154.64c0,30.726,58.3,132.489,58.3,132.489s52.982-101.721,52.982-132.489A55.64,55.64,0,0,0,735.64,99Zm0,92.744a12.076,12.076,0,1,1,0,.025Z" transform="translate(-179.243 -87.432)" opacity="0.1"/>
    <path id="Path_147" data-name="Path 147" d="M735.64,85.07A55.64,55.64,0,0,0,680,140.71c0,30.726,58.3,144.082,58.3,144.082s52.982-113.339,52.982-144.074A55.641,55.641,0,0,0,735.631,85.07Zm0,92.744a29.149,29.149,0,1,1,29.148-29.149,29.149,29.149,0,0,1-29.148,29.149Z" transform="translate(-179.243 -85.07)" fill="#0075f0"/>
  </g>
</svg>
