<svg xmlns="http://www.w3.org/2000/svg" width="137.403" height="137.4" viewBox="0 0 137.403 137.4">
  <g id="support" transform="translate(0 0)">
    <path id="Path_664" data-name="Path 664" d="M351.048,35.355l-.041-.1a8.089,8.089,0,0,1,1.7-8.846l.888-.888-9.359-9.359-.888.888a8.088,8.088,0,0,1-8.846,1.7l-.1-.041a8.072,8.072,0,0,1-5.033-7.452V10.006h-1.3a40.672,40.672,0,0,0,3.811,66.881,8.151,8.151,0,0,1,2.509-1.621l.1-.041a8.065,8.065,0,0,1,8.819,1.694l.93.93,9.359-9.359-.906-.906a8.074,8.074,0,0,1-1.7-8.838l.044-.106a8.055,8.055,0,0,1,7.435-5.016h1.282V40.388H358.5A8.072,8.072,0,0,1,351.048,35.355Z" transform="translate(-224.853 -7.506)" fill="#c8f5ff"/>
    <ellipse id="Ellipse_11" data-name="Ellipse 11" cx="18.65" cy="18.65" rx="18.65" ry="18.65" transform="translate(77.091 23.01)" fill="#fff"/>
    <ellipse id="Ellipse_12" data-name="Ellipse 12" cx="6" cy="6" rx="6" ry="6" transform="translate(89.188 36.213)" fill="#ff5a5a"/>
    <g id="Group_186" data-name="Group 186" transform="translate(21.971 60.7)">
      <path id="Path_665" data-name="Path 665" d="M84.927,224H82.25a5.323,5.323,0,0,0-5.323,5.323v5.354A5.323,5.323,0,0,0,82.25,240h2.677" transform="translate(-76.927 -224.001)" fill="#78d2fa"/>
      <path id="Path_666" data-name="Path 666" d="M292.921,240H295.6a5.323,5.323,0,0,0,5.323-5.323v-5.354A5.323,5.323,0,0,0,295.6,224h-2.677Z" transform="translate(-238.921 -224.003)" fill="#78d2fa"/>
    </g>
    <g id="Group_187" data-name="Group 187" transform="translate(24.028 36.011)">
      <path id="Path_667" data-name="Path 667" d="M202.425,149.835v-24a20.007,20.007,0,0,0-15.083-19.389,20.007,20.007,0,0,0-15.083,19.389v24a20.007,20.007,0,0,0,15.083,19.389A20.006,20.006,0,0,0,202.425,149.835Z" transform="translate(-149.548 -106.446)" fill="#ffcdac"/>
      <path id="Path_668" data-name="Path 668" d="M144.369,364.613l-16.407-3.726c-3.841-1.284-6.4-2.871-6.4-6.413V346.75h-4.381v7.724c0,3.542-2.558,5.129-6.4,6.413l-16.407,3.726c-7.721,1.624-12.964,5.432-12.964,12.134v8.814h75.921l0-8.814C157.332,370.046,152.089,366.238,144.369,364.613Z" transform="translate(-81.415 -286.673)" fill="#ffcdac"/>
    </g>
    <path id="Path_669" data-name="Path 669" d="M157.33,419.947c0-6.7-5.243-10.51-12.964-12.134l-2.563-.582-12.685-2.881-9.745,5.831-8.75,5.235L96.942,407.23l-2.566.583c-7.721,1.624-12.964,5.432-12.964,12.134v8.814h75.921Z" transform="translate(-57.385 -293.862)" fill="#ff5a5a"/>
    <path id="Path_670" data-name="Path 670" d="M337,132.5a8.5,8.5,0,1,0-8.5,8.5A8.509,8.509,0,0,0,337,132.5Zm-12,0a3.5,3.5,0,1,1,3.5,3.5A3.5,3.5,0,0,1,325,132.5Z" transform="translate(-233.227 -90.376)"/>
    <path id="Path_671" data-name="Path 671" d="M193.468,307.109a2.5,2.5,0,1,0,1.768.73A2.517,2.517,0,0,0,193.468,307.109Z" transform="translate(-139.576 -224.464)"/>
    <path id="Path_672" data-name="Path 672" d="M77.38,491.924a2.5,2.5,0,1,0,1.768.733A2.519,2.519,0,0,0,77.38,491.924Z" transform="translate(-56.16 -359.542)"/>
    <path id="Path_673" data-name="Path 673" d="M421.116,152.155h.01a2.5,2.5,0,0,0,2.49-2.51l0-.208a2.5,2.5,0,1,0-5,.07l0,.158A2.5,2.5,0,0,0,421.116,152.155Z" transform="translate(-304.558 -107.417)"/>
    <path id="Path_674" data-name="Path 674" d="M347.553,206.776h.035a21.1,21.1,0,0,0,16.169-7.868,2.5,2.5,0,0,0-3.89-3.141,16.115,16.115,0,0,1-12.349,6.01,2.5,2.5,0,0,0,.034,5Z" transform="translate(-251.331 -142.183)"/>
    <path id="Path_675" data-name="Path 675" d="M187.3,106.489a20.006,20.006,0,0,0-15.045,19.379v10.719a44.809,44.809,0,0,0,13.063-5.086v.022a20.159,20.159,0,0,0,14.255,5.9h2.85V125.961A20.1,20.1,0,0,0,187.3,106.489Z" transform="translate(-125.055 -77.289)" fill="#fae196"/>
    <path id="Path_676" data-name="Path 676" d="M134.719,32.619H133.37a5.97,5.97,0,0,1-5.518-3.743l-.046-.112a5.992,5.992,0,0,1,1.248-6.567l.953-.953a2.684,2.684,0,0,0,0-3.8L119.961,7.4a2.684,2.684,0,0,0-3.8,0l-.953.953A5.993,5.993,0,0,1,108.643,9.6l-.113-.047a5.97,5.97,0,0,1-3.741-5.517V2.689A2.684,2.684,0,0,0,102.106.005H87.9a2.684,2.684,0,0,0-2.684,2.684V4.064a5.959,5.959,0,0,1-3.742,5.508l-.1.044a5.977,5.977,0,0,1-6.557-1.243L73.839,7.4a2.684,2.684,0,0,0-3.8,0L60,17.447a2.684,2.684,0,0,0,0,3.8l1.678,1.678a4.45,4.45,0,0,1,1.306,3.026,24.113,24.113,0,0,0-5.84-.715H50.7A24.18,24.18,0,0,0,26.548,49.384v8.051h-.19a8.407,8.407,0,0,0-8.4,8.4v5.747a8.407,8.407,0,0,0,8.4,8.4h.675A24.23,24.23,0,0,0,38.812,96.163a2.688,2.688,0,0,0-.041.451v4.351c0,1.47-.378,2.815-4.98,4.377l-17.631,4.011C5.738,111.555,0,117.164,0,125.15v9.571A2.684,2.684,0,0,0,2.684,137.4h9.4a2.684,2.684,0,0,0,0-5.367H5.367V125.15c0-5.333,4.011-8.883,11.922-10.55l.042-.009,12.934-2.943a2.674,2.674,0,0,0,.349.208L52.7,122.641a2.683,2.683,0,0,0,2.355,0l22.09-10.785.038-.021L89.3,114.591l.042.009c7.911,1.667,11.922,5.216,11.922,10.551l0,6.887H33.146a2.684,2.684,0,1,0,0,5.367h70.8a2.684,2.684,0,0,0,2.684-2.685l0-9.57c0-7.985-5.738-13.595-16.16-15.8l-17.631-4.012c-4.6-1.562-4.98-2.907-4.98-4.377V96.871c0-.028,0-.056,0-.084A24.239,24.239,0,0,0,80.807,79.976h.676a8.407,8.407,0,0,0,8.4-8.4V65.831a8.407,8.407,0,0,0-8.4-8.4h-.19V49.383a24,24,0,0,0-2.99-11.63A17.422,17.422,0,0,1,94.768,25.072,17.2,17.2,0,0,1,107.1,29.979a2.684,2.684,0,0,0,3.743-3.847,22.583,22.583,0,0,0-16.144-6.427A22.844,22.844,0,0,0,74.52,32.63a24.3,24.3,0,0,0-6.339-4.723,9.791,9.791,0,0,0-2.495-8.558L72,13.04A11.349,11.349,0,0,0,83.44,14.567l.1-.04a11.314,11.314,0,0,0,6.969-9.154H99.5a11.329,11.329,0,0,0,6.984,9.145l.1.041a11.361,11.361,0,0,0,11.423-1.521L124.37,19.4a11.361,11.361,0,0,0-1.521,11.421l.041.1a11.332,11.332,0,0,0,9.146,6.986V46.9a11.323,11.323,0,0,0-9.16,6.985l-.037.089a11.345,11.345,0,0,0,1.53,11.438l-6.356,6.355a11.346,11.346,0,0,0-11.448-1.548l-.093.039a11.294,11.294,0,0,0-6.977,9.18H87.9a2.684,2.684,0,0,0,0,5.367h14.208a2.684,2.684,0,0,0,2.684-2.684V80.709a5.933,5.933,0,0,1,3.72-5.486l.118-.049a5.969,5.969,0,0,1,6.54,1.237l1,1a2.683,2.683,0,0,0,1.9.786h0a2.684,2.684,0,0,0,1.9-.786l10.046-10.046a2.684,2.684,0,0,0,0-3.8l-.972-.972a5.974,5.974,0,0,1-1.246-6.55l.054-.13a5.953,5.953,0,0,1,5.5-3.724h1.376a2.684,2.684,0,0,0,2.684-2.684V35.3A2.683,2.683,0,0,0,134.719,32.619ZM23.328,71.579V65.832a3.034,3.034,0,0,1,3.03-3.03h.19V74.609h-.19A3.034,3.034,0,0,1,23.328,71.579Zm45.92,38.162-15.368,7.5-15.9-7.763c2.809-1.272,6.158-3.662,6.158-8.515V98.391A24.1,24.1,0,0,0,50.7,99.3h6.44a24.129,24.129,0,0,0,5.348-.6v2.265C62.489,106.171,66.342,108.542,69.248,109.74ZM57.141,93.931H50.7A18.806,18.806,0,0,1,31.916,75.146V64.679h8.569a38.182,38.182,0,0,0,19.378-5.23,19.716,19.716,0,0,0,13.206,5.029h2.858V75.145a18.683,18.683,0,0,1-1.466,7.274H62.989a2.684,2.684,0,0,0,0,5.367h8.035A18.74,18.74,0,0,1,57.141,93.931ZM81.483,62.8a3.034,3.034,0,0,1,3.03,3.03v5.747a3.034,3.034,0,0,1-3.03,3.03h-.19V62.8ZM75.926,49.383v9.728H73.068a14.386,14.386,0,0,1-8.608-2.829,39.06,39.06,0,0,0,3.188-2.854,2.684,2.684,0,0,0-3.8-3.8,32.834,32.834,0,0,1-23.369,9.68H31.915V49.383A18.806,18.806,0,0,1,50.7,30.6h6.44A18.807,18.807,0,0,1,75.926,49.383Z" transform="translate(0 -0.005)"/>
  </g>
</svg>
