<svg xmlns="http://www.w3.org/2000/svg" xmlns:xlink="http://www.w3.org/1999/xlink" width="537.817" height="407.601" viewBox="0 0 537.817 407.601">
  <defs>
    <linearGradient id="linear-gradient" y1="0.5" x2="0.999" y2="0.5" gradientUnits="objectBoundingBox">
      <stop offset="0" stop-color="gray" stop-opacity="0.251"/>
      <stop offset="0.54" stop-color="gray" stop-opacity="0.122"/>
      <stop offset="1" stop-color="gray" stop-opacity="0.102"/>
    </linearGradient>
    <linearGradient id="linear-gradient-2" x1="0.5" y1="1" x2="0.5" y2="0" xlink:href="#linear-gradient"/>
  </defs>
  <g id="undraw_newsletter_vovu_1_" data-name="undraw_newsletter_vovu (1)" transform="translate(0.001 0.005)">
    <ellipse id="Ellipse_35" data-name="Ellipse 35" cx="196.001" cy="56" rx="196.001" ry="56" transform="translate(93.285 295.595)" fill="#f5f5f5"/>
    <path id="Path_818" data-name="Path 818" d="M931.3,324.92s-34.72,34.72-15.12,86.24-33.6,137.2-33.6,137.2.56-.084,1.63-.269C955.52,535.5,990.952,453.945,951.3,393.358,936.576,370.835,924.451,344.408,931.3,324.92Z" transform="translate(-455.534 -191.171)" fill="#f7be52"/>
    <path id="Path_819" data-name="Path 819" d="M931.3,324.92s-19.6,42.56,0,77.28,3.36,132.161-48.72,146.161" transform="translate(-455.534 -191.171)" fill="none" stroke="#535461" stroke-miterlimit="10" stroke-width="2"/>
    <path id="Path_820" data-name="Path 820" d="M986.192,575.349s-39.62-6.311-43.232,29.2-76.16,40.427-76.16,40.427.47.325,1.361.907c59.92,39.335,117.2,25.054,108.573-27.177C973.5,599.289,973.761,579.784,986.192,575.349Z" transform="translate(-448.591 -301.169)" fill="#f7be52"/>
    <path id="Path_821" data-name="Path 821" d="M986.192,575.349s-39.62-6.311-43.232,29.2-76.16,40.427-76.16,40.427.47.325,1.361.907c59.92,39.335,117.2,25.054,108.573-27.177C973.5,599.289,973.761,579.784,986.192,575.349Z" transform="translate(-448.591 -301.169)" fill="#f5f5f5" opacity="0.2"/>
    <path id="Path_822" data-name="Path 822" d="M986.175,575.69s-30.755,6.754-28.23,34.72S912.255,671.887,866.76,645.3" transform="translate(-448.573 -301.51)" fill="none" stroke="#535461" stroke-miterlimit="10" stroke-width="2"/>
    <path id="Path_823" data-name="Path 823" d="M204.784,86.122c-4.514-.157-9.139,0-13.373,1.579-11.519,4.3-16.979,18.346-15.2,30.515s9.078,22.736,16.654,32.419,15.786,19.242,19.942,30.8c2.072,5.774,3.041,12.242.935,18-3.248,8.887-13.042,13.854-22.445,14.885s-18.844-.98-28.28-1.68c-3.959-.28-8.03-.314-11.76.986-4.094,1.417-7.5,4.306-10.64,7.319-12.236,11.816-22.03,27.944-20.446,44.879,1.792,19.2,17.774,34.373,35.28,42.51,5.8,2.7,11.928,4.883,17.03,8.736,13.44,10.158,16.458,29.193,15.12,46s-5.9,33.628-3.36,50.288a60.632,60.632,0,0,0,34.015,45.052c15.876,7.28,35.745,6.826,49.84-3.472,6.871-5.04,12.068-11.99,16.587-19.2a165.686,165.686,0,0,0,16.492-34.653c1.966-5.774,3.814-11.984,8.4-16,2.8-2.47,6.429-3.853,10.018-4.928,10.819-3.237,22.215-4.127,33.135-7.006s21.907-8.243,27.843-17.836c8.4-13.614,4.48-31.024,4.519-47.04.067-36.49,21.9-69.16,29.96-104.72,2.632-11.626,3.612-24.489-2.268-34.855-4-7.073-10.735-12.113-17.819-16.033-15.568-8.646-33.264-12.494-50.675-16.24-24.2-5.2-53.581-5.869-72.335-22.68C253.952,97.625,229.329,86.122,204.784,86.122Z" transform="translate(-120 -86.08)" fill="#f7be52" opacity="0.2"/>
    <g id="Group_199" data-name="Group 199" transform="translate(58.726 17.271)" opacity="0.5">
      <path id="Path_824" data-name="Path 824" d="M338.7,240.935a84.294,84.294,0,0,0-4.079-25.894L327.9,194.191v-1.03c.207-13.356-10.2-20.02-14.213-19.3-4.1.739-15.5-4.973-15.5-4.973v.157a21.34,21.34,0,0,1-2.106-2.878,18.267,18.267,0,0,0,3.758-25.861,8.024,8.024,0,0,0,2.7-3.629,9.222,9.222,0,0,0-1.294-7.93,15.368,15.368,0,0,0-2.24-2.671,28.358,28.358,0,0,0-4.178-3.416,31.756,31.756,0,0,0-12.32-5.6,5.129,5.129,0,0,0-2.358,0,9.772,9.772,0,0,0-1.91,1.03c-3.069,1.747-6.888.991-10.427.806s-7.84.806-8.96,4.127a30.32,30.32,0,0,0-.56,3.186c-.56,2.576-2.548,4.575-4.082,6.72s-2.682,5.04-1.406,7.37c.437.784,1.12,1.506,1.12,2.4a6.878,6.878,0,0,1-.56,1.837,3.885,3.885,0,0,0,1.462,3.814,6.21,6.21,0,0,0,1.68,1.282c1.775.907,3.819,1.187,5.628,2.027a9.246,9.246,0,0,1,2.453,1.68,9.643,9.643,0,0,1,2.666,6.961l.375.039v.33c.392.045.806.084,1.215.1a18.476,18.476,0,0,0,2.01,2.671q-.19.717-.431,1.456c-1.316.913-12.079,8.081-24.321,6.356-13.065-1.842-20.535,55.278-20.535,55.278a65.333,65.333,0,0,0-.706,9.867c-.056,8.4,1.708,19.393,11.536,17.775l5.225-1.719v28.252s.745,7.739-1.865,12.88,8.215,3.315,8.215,3.315.414.431,1.176,1.165l-.241.678.319.325a74.081,74.081,0,0,1-5.729,14.05l.308.157c-.2.375-.308.56-.308.56s4.021,2.055,9.554,4.7c4.446,15.03,14.179,49.84,10.976,56.471l.09.19h0c.6,1.243,3.948,8.574,3.27,15.288-.61,6,7.7,33.281,10.8,43.187l-1.467.3,5.225,18.794-1.12,12.163s-6.345,16.951,8.585,13.636,10.825-16.951,10.825-16.951l.375-27.642s-1.439-.8-3.214-1.568c-1.221-3.3-3.881-11.094-3.881-16.486,0-7-4.855-37.223-4.855-37.223v-.213l-.028-.4v-.067c0-.375-.062-.89-.106-1.518v-.034c-.56-8.17-2.24-35.93-1.014-50.4a32.341,32.341,0,0,1,3.36-2c3.634,9.184,13,34,12.4,44.408-.745,12.88-.185,2.766,0,1.12.056-.51.1.106.112,1.49v5.449c0,1.12,0,2.363-.039,3.657v.784c0,.79,0,1.6-.039,2.414,0,1.12-.045,2.206-.067,3.332-.056,2.52-.129,5.068-.218,7.454q0,.4-.028.79-.028.784-.062,1.534t-.067,1.467q-.034.711-.073,1.383c-.028.526-.062,1.03-.09,1.512l-2.027-.291-.431,4.659a50.658,50.658,0,0,0,2.8,21.84c.694,1.915,1.232,3.5,1.35,4.066.375,1.842,0,15.12,0,15.12s2.24,17.321,12.7,14c4.7-1.5,6.989-6.042,8.081-10.6a26.287,26.287,0,0,0-1.294-15.831c-1.484-3.73-3-8.96-1.932-13,1.865-7,1.865-16.951,1.865-16.951l-1.154-.162a18.39,18.39,0,0,0,.778-1.68s-.375-25.43,2.985-28.745c1.848-1.826,1.68-6.21,1.12-9.794a67.013,67.013,0,0,1-.56-15.68,24.924,24.924,0,0,1,.946-5.874c.986-1.949,1.971-21.594-2.391-31.047l.9-.28-.14-.694.14-.045a54.881,54.881,0,0,0,2.24,5.158,2.049,2.049,0,0,0,.745.37c12.09-2.122,12.578-13.406,11.906-19.566.51.246.79.4.79.4l1.12-16.24a23.477,23.477,0,0,0,1.546-9.481C344.838,257.712,338.7,240.935,338.7,240.935ZM325.373,287.1c-.829-7.073-1.977-13.731-1.977-13.731l-5.6-19.9v-7.246l8.882,33.152Z" transform="translate(-224.868 -116.925)" fill="url(#linear-gradient)"/>
    </g>
    <path id="Path_825" data-name="Path 825" d="M358.895,614.93l-.414,4.553a50.1,50.1,0,0,0,2.716,21.364c.666,1.876,1.187,3.422,1.3,3.976.358,1.8,0,14.767,0,14.767s2.162,16.929,12.247,13.686c4.536-1.456,6.72-5.908,7.8-10.36a26.006,26.006,0,0,0-1.254-15.467c-1.434-3.646-2.9-8.77-1.865-12.706,1.8-6.843,1.8-16.565,1.8-16.565Z" transform="translate(-224.842 -318.775)" fill="#5a5773"/>
    <path id="Path_826" data-name="Path 826" d="M340.09,465.452s14.045,34.216,13.322,46.816-.179,2.7,0,1.081c.319-2.884,0,31.36-1.081,35.28,0,0,14.767,10.8,20.53-3.6,0,0-.358-24.847,2.878-28.09,1.781-1.781,1.607-6.07,1.081-9.57a66.334,66.334,0,0,1-.56-15.3,23.226,23.226,0,0,1,.913-5.74c1.081-2.162,2.162-26.651-4.323-33.494Z" transform="translate(-216.84 -247.452)" fill="#605d82"/>
    <path id="Path_827" data-name="Path 827" d="M354.139,548.673c1.081-3.959,1.4-38.181,1.081-35.28-.179,1.618-.722,11.525,0-1.081S341.9,465.5,341.9,465.5l31.422-12.085c-.146-.185-.3-.358-.448-.521L340.1,465.5s14.045,34.216,13.322,46.816-.179,2.7,0,1.081c.319-2.884,0,31.36-1.081,35.28,0,0,5.9,4.312,11.693,3.853C358.877,552.139,354.139,548.673,354.139,548.673Z" transform="translate(-216.844 -247.478)" opacity="0.1"/>
    <path id="Path_828" data-name="Path 828" d="M318.22,671.166l5.04,18.368-1.081,11.883s-6.121,16.565,8.282,13.322,10.444-16.565,10.444-16.565l.358-27.009s-5.762-3.242-8.282-2.878S318.22,671.166,318.22,671.166Z" transform="translate(-207.217 -342.24)" fill="#5a5773"/>
    <path id="Path_829" data-name="Path 829" d="M273.85,459.94s16.565,53.659,12.606,61.942c0,0,3.959,7.924,3.242,15.12s11.525,45.735,11.525,45.735l18.01-3.242s-4.323-10.8-4.323-17.646-4.682-36.4-4.682-36.4-3.959-54.023.722-59.786Z" transform="translate(-187.694 -250.58)" fill="#605d82"/>
    <g id="Group_200" data-name="Group 200" transform="translate(86.156 209.36)" opacity="0.1">
      <path id="Path_830" data-name="Path 830" d="M336.618,478c-2.985,12.23.314,57.238.314,57.238s4.682,29.529,4.682,36.4c0,5.225,2.514,12.751,3.707,16.022l.974-.174s-4.323-10.8-4.323-17.646-4.682-36.4-4.682-36.4S334.277,492.308,336.618,478Z" transform="translate(-300.918 -467.886)"/>
      <path id="Path_831" data-name="Path 831" d="M296.36,570.255l.09.185c.028-.185.056-.381.073-.56A3.991,3.991,0,0,1,296.36,570.255Z" transform="translate(-283.754 -508.313)"/>
      <path id="Path_832" data-name="Path 832" d="M310.133,467.433a5.3,5.3,0,0,1,.812-1.73L273.85,459.94s.218.7.594,1.949Z" transform="translate(-273.85 -459.94)"/>
    </g>
    <path id="Path_833" data-name="Path 833" d="M415.3,422.948s5.4,20.16-10.8,23.05a1.971,1.971,0,0,1-.722-.358s-9.363-18.368-2.162-25.57Z" transform="translate(-242.711 -233.037)" fill="#a1616a"/>
    <path id="Path_834" data-name="Path 834" d="M299.527,186s1.081,15.12-10.8,22.327,25.2,27.009,25.2,27.009l19.449-30.974s-8.277,1.07-13.317-13.322Z" transform="translate(-193.206 -130.047)" fill="#a1616a"/>
    <path id="Path_835" data-name="Path 835" d="M280.438,227.78s18.368,38.175,34.933,2.162L340.94,356.7s-39.62,12.247-39.973,18.01S261,359.952,261,359.952s8.641-15.848,6.485-25.57S280.438,227.78,280.438,227.78Z" transform="translate(-182.04 -148.43)" opacity="0.1"/>
    <path id="Path_836" data-name="Path 836" d="M280.438,226.49s18.368,38.175,34.933,2.162l25.57,126.768s-39.62,12.247-39.973,18.01S261,358.662,261,358.662s8.641-15.848,6.485-25.57S280.438,226.49,280.438,226.49Z" transform="translate(-182.04 -147.862)" fill="#e1e7ef"/>
    <path id="Path_837" data-name="Path 837" d="M327.077,683.254S322.4,672.81,333.2,672.81s9,9.363,9,9.363Z" transform="translate(-210.67 -344.242)" fill="#5a5773"/>
    <path id="Path_838" data-name="Path 838" d="M370.929,634.158s-4.323-11.166,6.485-11.525,5.4,10.08,5.4,10.08Z" transform="translate(-230.033 -322.16)" fill="#5a5773"/>
    <path id="Path_839" data-name="Path 839" d="M355.2,212s10.982,5.6,14.946,4.861,14.4,6.121,13.686,19.807l6.507,20.418a83.384,83.384,0,0,1,3.92,25.318h0s9.363,25.928,4.323,37.453L397.5,335.7s-8.282-4.682-16.929-3.242l2.178-12.942-9.744-36.742L356.8,243.523Z" transform="translate(-223.488 -141.487)" opacity="0.1"/>
    <path id="Path_840" data-name="Path 840" d="M355.2,210.73s10.982,5.6,14.946,4.861,14.4,6.121,13.686,19.807l6.507,20.418a83.384,83.384,0,0,1,3.92,25.318h0s9.363,25.928,4.323,37.453L397.5,334.434s-8.282-4.682-16.929-3.242l2.162-12.964L373.008,281.5l-16.19-39.256Z" transform="translate(-223.488 -140.928)" fill="#67647e"/>
    <path id="Path_841" data-name="Path 841" d="M373.389,264.675v40.7l5.4,19.449s3.6,21.246,2.52,27.731-18.368,7.924-23.05,2.52-2.162-51.52-2.162-51.52l-.9-67.508.722-2.162Z" transform="translate(-223.488 -151.114)" opacity="0.1"/>
    <path id="Path_842" data-name="Path 842" d="M374.709,263.15v40.7l5.4,19.449s3.6,21.246,2.52,27.731-18.368,7.924-23.05,2.52-2.162-51.52-2.162-51.52l-.9-67.525Z" transform="translate(-224.069 -151.387)" fill="#67647e"/>
    <path id="Path_843" data-name="Path 843" d="M259.38,290.367l11.525,35.84-5.4,15.3s25.57,27.009,41.776,14.045c0,0,1.8-55.1-1.8-68.068s-20.888-56.56-20.888-56.56l-3.578-11.508-19.085,10.8Z" transform="translate(-181.327 -144.752)" opacity="0.1"/>
    <path id="Path_844" data-name="Path 844" d="M256.044,287.12V322.4s.722,7.566-1.8,12.606,7.924,3.242,7.924,3.242,25.57,27.009,41.776,14.045c0,0,1.8-55.1-1.8-68.068s-20.888-56.56-20.888-56.56l-3.6-11.525-19.085,10.8Z" transform="translate(-178.893 -143.309)" fill="#67647e"/>
    <path id="Path_845" data-name="Path 845" d="M272.977,204.95s-10.982,8.1-23.587,6.3-19.807,54.023-19.807,54.023-4.682,28.812,10.444,26.292L273.52,280.4s-7.2-7.566-6.121-17.287l-16.212,6.479.728-30.968Z" transform="translate(-167.915 -138.385)" opacity="0.1"/>
    <path id="Path_846" data-name="Path 846" d="M230.862,309.682s-4.682,28.812,10.444,26.292L274.8,324.807s-7.2-7.56-6.121-17.287L252.478,314Z" transform="translate(-168.479 -183.515)" opacity="0.1"/>
    <path id="Path_847" data-name="Path 847" d="M297.51,306.749s11.239-14.778,19.516-7.683-16.548,20.1-16.548,20.1Z" transform="translate(-198.105 -178.948)" fill="#a1616a"/>
    <path id="Path_848" data-name="Path 848" d="M272.977,203.66s-10.982,8.1-23.587,6.3-19.807,54.023-19.807,54.023S224.9,292.8,240.026,290.276l33.494-11.166s-7.2-7.566-6.121-17.287l-16.212,6.485.728-30.974,18.368-15.12Z" transform="translate(-167.915 -137.817)" fill="#67647e"/>
    <path id="Path_849" data-name="Path 849" d="M330.889,192.3l-20.53-5.04s1.07,1.21-.179,5.942c3.3,3.791,7.364,8.826,12.785,8.826a17.92,17.92,0,0,0,10.763-3.567A32.383,32.383,0,0,1,330.889,192.3Z" transform="translate(-203.679 -130.601)" opacity="0.1"/>
    <circle id="Ellipse_36" data-name="Ellipse 36" cx="18.01" cy="18.01" r="18.01" transform="translate(100.917 34.69)" fill="#a1616a"/>
    <path id="Path_850" data-name="Path 850" d="M314.7,146.184c4.178-.711,8.77-2.565,10.17-6.563a9.1,9.1,0,0,0-1.249-7.75,21.206,21.206,0,0,0-5.83-5.6,30.242,30.242,0,0,0-11.906-5.466,4.889,4.889,0,0,0-2.274,0,9.385,9.385,0,0,0-1.842,1.008c-2.962,1.708-6.647.969-10.08.79s-7.549.79-8.63,4.032c-.336,1-.314,2.083-.56,3.114-.56,2.52-2.458,4.48-3.92,6.58s-2.587,4.939-1.355,7.2c.42.767,1.12,1.473,1.12,2.346a7.279,7.279,0,0,1-.56,1.8c-.51,1.859.974,3.735,2.688,4.62s3.685,1.159,5.432,1.982a9.52,9.52,0,0,1,5.3,8.814c1.59.185,3.444.28,4.519-.907.482-.532.717-1.243,1.154-1.809a12.228,12.228,0,0,1,2.15-1.77c3.769-3.1,1.092-7.375,3.226-10.713,1.12-1.719,2.9-1.193,4.7-1.165A41.563,41.563,0,0,0,314.7,146.184Z" transform="translate(-188.948 -101.302)" opacity="0.1"/>
    <path id="Path_851" data-name="Path 851" d="M314.061,145.544c4.178-.711,8.77-2.565,10.17-6.563a9.1,9.1,0,0,0-1.249-7.75,21.207,21.207,0,0,0-5.83-5.6,30.242,30.242,0,0,0-11.906-5.466,4.889,4.889,0,0,0-2.274,0,9.386,9.386,0,0,0-1.842,1.008c-2.962,1.708-6.647.969-10.08.79s-7.549.79-8.63,4.032c-.336,1-.314,2.083-.56,3.114-.56,2.52-2.458,4.48-3.92,6.58s-2.587,4.939-1.355,7.2c.42.767,1.12,1.473,1.12,2.346a7.28,7.28,0,0,1-.56,1.8c-.51,1.859.974,3.735,2.688,4.62s3.685,1.159,5.432,1.982a9.52,9.52,0,0,1,5.32,8.837c1.59.185,3.444.28,4.519-.907.482-.532.717-1.243,1.154-1.809a12.228,12.228,0,0,1,2.15-1.77c3.769-3.1,1.092-7.375,3.226-10.713,1.12-1.719,2.9-1.193,4.7-1.165A41.562,41.562,0,0,0,314.061,145.544Z" transform="translate(-188.666 -101.021)" fill="#4a4347"/>
    <path id="Path_852" data-name="Path 852" d="M382.85,273.76s3.959,20.53,2.162,28.454a26.4,26.4,0,0,0,.47,13.955" transform="translate(-235.654 -168.661)" opacity="0.1"/>
    <path id="Path_853" data-name="Path 853" d="M268.157,289.19s-1.725,13.686,1.148,16.565" transform="translate(-184.963 -175.45)" opacity="0.1"/>
    <path id="Path_854" data-name="Path 854" d="M447.47,589.06a.84.84,0,1,0-.84-.84.84.84,0,0,0,.84.84Z" transform="translate(-263.717 -306.653)"/>
    <g id="Group_201" data-name="Group 201" transform="translate(136.147 66.483)" opacity="0.5">
      <path id="Path_855" data-name="Path 855" d="M669.374,322.867V322.4L516.583,204.914a.56.56,0,0,0-.666,0L363.12,322.4V504.515h.291v.291h306.26V322.693Z" transform="translate(-363.12 -204.804)" fill="url(#linear-gradient-2)"/>
    </g>
    <path id="Path_856" data-name="Path 856" d="M548.261,417.371H252.58V241.53L400.421,127.85,548.261,241.53Z" transform="translate(-111.135 -56.256)" fill="#fff"/>
    <path id="Path_857" data-name="Path 857" d="M545.981,415.133H271.58V251.949l137.2-105.5,137.2,105.5Z" transform="translate(-119.495 -64.44)" fill="#e0e0e0"/>
    <rect id="Rectangle_98" data-name="Rectangle 98" width="173.041" height="220.081" transform="translate(168.446 123.452) rotate(-14.69)" fill="#f7be52"/>
    <rect id="Rectangle_99" data-name="Rectangle 99" width="173.041" height="220.081" transform="translate(203.605 111.914)" fill="#f5f5f5"/>
    <path id="Path_858" data-name="Path 858" d="M255.08,331.35l147.841,87.92L255.08,507.191Z" transform="translate(-112.235 -145.796)" opacity="0.05"/>
    <path id="Path_859" data-name="Path 859" d="M253.08,331.35l147.841,87.92L253.08,507.191Z" transform="translate(-111.355 -145.796)" fill="#fff"/>
    <path id="Path_860" data-name="Path 860" d="M662.921,331.35,515.08,419.27l147.841,87.92Z" transform="translate(-226.635 -145.796)" opacity="0.05"/>
    <path id="Path_861" data-name="Path 861" d="M664.921,331.35,517.08,419.27l147.841,87.92Z" transform="translate(-227.515 -145.796)" fill="#fff"/>
    <path id="Path_862" data-name="Path 862" d="M253.08,549.71,400.921,434.35,548.761,549.71Z" transform="translate(-111.355 -191.115)" opacity="0.05"/>
    <path id="Path_863" data-name="Path 863" d="M253.08,554.71,400.921,439.35,548.761,554.71Z" transform="translate(-111.355 -193.315)" fill="#fff"/>
    <path id="Path_864" data-name="Path 864" d="M424.433,692.066s-7.426-25.2,1.394-43.759a39.81,39.81,0,0,0,3.22-24.976,66.956,66.956,0,0,0-3.534-11.721" transform="translate(-252.665 -317.314)" fill="none" stroke="#535461" stroke-miterlimit="10" stroke-width="2"/>
    <path id="Path_865" data-name="Path 865" d="M429.65,586.27c0,3.091-5.6,12.046-5.6,12.046s-5.6-8.96-5.6-12.046a5.6,5.6,0,1,1,11.2,0Z" transform="translate(-251.318 -303.701)" fill="#f7be52"/>
    <path id="Path_866" data-name="Path 866" d="M446.165,614.609c-1.68,2.593-11.245,7.073-11.245,7.073s.174-10.562,1.854-13.155a5.6,5.6,0,0,1,9.391,6.082Z" transform="translate(-258.565 -314.926)" fill="#f7be52"/>
    <path id="Path_867" data-name="Path 867" d="M443.808,665.035c-2.761,1.389-13.278.431-13.278.431s5.482-9.027,8.238-10.416a5.6,5.6,0,1,1,5.04,9.99Z" transform="translate(-256.633 -336.114)" fill="#f7be52"/>
    <path id="Path_868" data-name="Path 868" d="M434.574,705.024c-2.486,1.837-13.014,2.666-13.014,2.666s3.875-9.822,6.362-11.659a5.6,5.6,0,0,1,6.653,8.994Z" transform="translate(-252.686 -354.044)" fill="#f7be52"/>
    <path id="Path_869" data-name="Path 869" d="M412.721,627.516c2.24,2.15,12.538,4.385,12.538,4.385s-2.526-10.254-4.743-12.4a5.6,5.6,0,0,0-7.8,8.025Z" transform="translate(-248.131 -320.167)" fill="#f7be52"/>
    <path id="Path_870" data-name="Path 870" d="M401.2,672.894c2.761,1.389,13.278.431,13.278.431s-5.482-9.027-8.238-10.416a5.6,5.6,0,0,0-5.04,9.99Z" transform="translate(-242.466 -339.667)" fill="#f7be52"/>
    <path id="Path_871" data-name="Path 871" d="M397.492,719.37c2.486,1.837,13.014,2.666,13.014,2.666s-3.875-9.822-6.362-11.659a5.6,5.6,0,1,0-6.653,8.994Z" transform="translate(-241 -360.215)" fill="#f7be52"/>
    <rect id="Rectangle_100" data-name="Rectangle 100" width="69.44" height="5.6" transform="translate(213.685 121.994)" fill="#f7be52" opacity="0.5"/>
    <rect id="Rectangle_101" data-name="Rectangle 101" width="150.081" height="5.6" transform="translate(213.685 144.394)" fill="#f7be52" opacity="0.5"/>
    <rect id="Rectangle_102" data-name="Rectangle 102" width="150.081" height="5.6" transform="translate(213.685 158.954)" fill="#f7be52" opacity="0.5"/>
    <rect id="Rectangle_103" data-name="Rectangle 103" width="150.081" height="5.6" transform="translate(213.685 173.514)" fill="#f7be52" opacity="0.4"/>
    <rect id="Rectangle_104" data-name="Rectangle 104" width="150.081" height="5.6" transform="translate(213.685 188.074)" fill="#f7be52" opacity="0.4"/>
    <rect id="Rectangle_105" data-name="Rectangle 105" width="85.68" height="5.6" transform="translate(213.685 202.634)" fill="#f7be52" opacity="0.3"/>
    <rect id="Rectangle_106" data-name="Rectangle 106" width="117.04" height="5.6" transform="translate(213.685 217.195)" fill="#f7be52" opacity="0.3"/>
  </g>
</svg>
