<svg xmlns="http://www.w3.org/2000/svg" width="789" height="984" viewBox="0 0 789 984">
  <g id="Group_225" data-name="Group 225" transform="translate(-1131 -92)">
    <rect id="Rectangle_22" data-name="Rectangle 22" width="789" height="984" transform="translate(1131 92)" fill="#fad58d"/>
    <g id="Group_223" data-name="Group 223">
      <circle id="Ellipse_2" data-name="Ellipse 2" cx="9.302" cy="9.302" r="9.302" transform="translate(1300 940)" fill="#f7be52"/>
      <circle id="Ellipse_3" data-name="Ellipse 3" cx="9.302" cy="9.302" r="9.302" transform="translate(1350.672 940)" fill="#f7be52"/>
      <circle id="Ellipse_4" data-name="Ellipse 4" cx="9.302" cy="9.302" r="9.302" transform="translate(1401.347 940)" fill="#f7be52"/>
      <circle id="Ellipse_5" data-name="Ellipse 5" cx="9.302" cy="9.302" r="9.302" transform="translate(1452.022 940)" fill="#f7be52"/>
      <circle id="Ellipse_6" data-name="Ellipse 6" cx="9.302" cy="9.302" r="9.302" transform="translate(1502.694 940)" fill="#f7be52"/>
      <circle id="Ellipse_7" data-name="Ellipse 7" cx="9.302" cy="9.302" r="9.302" transform="translate(1553.369 940)" fill="#f7be52"/>
      <circle id="Ellipse_8" data-name="Ellipse 8" cx="9.302" cy="9.302" r="9.302" transform="translate(1604.041 940)" fill="#f7be52"/>
      <circle id="Ellipse_9" data-name="Ellipse 9" cx="9.302" cy="9.302" r="9.302" transform="translate(1300 990.675)" fill="#f7be52"/>
      <circle id="Ellipse_10" data-name="Ellipse 10" cx="9.302" cy="9.302" r="9.302" transform="translate(1350.672 990.675)" fill="#f7be52"/>
      <circle id="Ellipse_11" data-name="Ellipse 11" cx="9.302" cy="9.302" r="9.302" transform="translate(1401.347 990.675)" fill="#f7be52"/>
      <circle id="Ellipse_12" data-name="Ellipse 12" cx="9.302" cy="9.302" r="9.302" transform="translate(1452.022 990.675)" fill="#f7be52"/>
      <circle id="Ellipse_13" data-name="Ellipse 13" cx="9.302" cy="9.302" r="9.302" transform="translate(1502.694 990.675)" fill="#f7be52"/>
      <circle id="Ellipse_14" data-name="Ellipse 14" cx="9.302" cy="9.302" r="9.302" transform="translate(1553.369 990.675)" fill="#f7be52"/>
      <circle id="Ellipse_15" data-name="Ellipse 15" cx="9.302" cy="9.302" r="9.302" transform="translate(1604.041 990.675)" fill="#f7be52"/>
      <circle id="Ellipse_16" data-name="Ellipse 16" cx="9.302" cy="9.302" r="9.302" transform="translate(1300 1041.347)" fill="#f7be52"/>
      <circle id="Ellipse_17" data-name="Ellipse 17" cx="9.302" cy="9.302" r="9.302" transform="translate(1350.672 1041.347)" fill="#f7be52"/>
      <circle id="Ellipse_18" data-name="Ellipse 18" cx="9.302" cy="9.302" r="9.302" transform="translate(1401.347 1041.347)" fill="#f7be52"/>
      <circle id="Ellipse_19" data-name="Ellipse 19" cx="9.302" cy="9.302" r="9.302" transform="translate(1452.022 1041.347)" fill="#f7be52"/>
      <circle id="Ellipse_20" data-name="Ellipse 20" cx="9.302" cy="9.302" r="9.302" transform="translate(1502.694 1041.347)" fill="#f7be52"/>
      <circle id="Ellipse_21" data-name="Ellipse 21" cx="9.302" cy="9.302" r="9.302" transform="translate(1553.369 1041.347)" fill="#f7be52"/>
      <circle id="Ellipse_22" data-name="Ellipse 22" cx="9.302" cy="9.302" r="9.302" transform="translate(1604.041 1041.347)" fill="#f7be52"/>
    </g>
    <g id="Group_224" data-name="Group 224" transform="translate(-27)">
      <circle id="Ellipse_2-2" data-name="Ellipse 2" cx="9.302" cy="9.302" r="9.302" transform="translate(1883.297 105.653) rotate(90)" fill="#f7be52"/>
      <circle id="Ellipse_2-3" data-name="Ellipse 2" cx="9.302" cy="9.302" r="9.302" transform="translate(1934.297 105.653) rotate(90)" fill="#f7be52"/>
      <circle id="Ellipse_3-2" data-name="Ellipse 3" cx="9.302" cy="9.302" r="9.302" transform="translate(1883.297 156.325) rotate(90)" fill="#f7be52"/>
      <circle id="Ellipse_3-3" data-name="Ellipse 3" cx="9.302" cy="9.302" r="9.302" transform="translate(1934.297 156.325) rotate(90)" fill="#f7be52"/>
      <circle id="Ellipse_4-2" data-name="Ellipse 4" cx="9.302" cy="9.302" r="9.302" transform="translate(1883.297 207) rotate(90)" fill="#f7be52"/>
      <circle id="Ellipse_4-3" data-name="Ellipse 4" cx="9.302" cy="9.302" r="9.302" transform="translate(1934.297 207) rotate(90)" fill="#f7be52"/>
      <circle id="Ellipse_5-2" data-name="Ellipse 5" cx="9.302" cy="9.302" r="9.302" transform="translate(1883.297 257.675) rotate(90)" fill="#f7be52"/>
      <circle id="Ellipse_5-3" data-name="Ellipse 5" cx="9.302" cy="9.302" r="9.302" transform="translate(1934.297 257.675) rotate(90)" fill="#f7be52"/>
      <circle id="Ellipse_6-2" data-name="Ellipse 6" cx="9.302" cy="9.302" r="9.302" transform="translate(1883.297 308.347) rotate(90)" fill="#f7be52"/>
      <circle id="Ellipse_6-3" data-name="Ellipse 6" cx="9.302" cy="9.302" r="9.302" transform="translate(1934.297 308.347) rotate(90)" fill="#f7be52"/>
      <circle id="Ellipse_7-2" data-name="Ellipse 7" cx="9.302" cy="9.302" r="9.302" transform="translate(1883.297 359.022) rotate(90)" fill="#f7be52"/>
      <circle id="Ellipse_7-3" data-name="Ellipse 7" cx="9.302" cy="9.302" r="9.302" transform="translate(1934.297 359.022) rotate(90)" fill="#f7be52"/>
      <circle id="Ellipse_8-2" data-name="Ellipse 8" cx="9.302" cy="9.302" r="9.302" transform="translate(1883.297 409.694) rotate(90)" fill="#f7be52"/>
      <circle id="Ellipse_8-3" data-name="Ellipse 8" cx="9.302" cy="9.302" r="9.302" transform="translate(1934.297 409.694) rotate(90)" fill="#f7be52"/>
      <circle id="Ellipse_9-2" data-name="Ellipse 9" cx="9.302" cy="9.302" r="9.302" transform="translate(1832.622 105.653) rotate(90)" fill="#f7be52"/>
      <circle id="Ellipse_10-2" data-name="Ellipse 10" cx="9.302" cy="9.302" r="9.302" transform="translate(1832.622 156.325) rotate(90)" fill="#f7be52"/>
      <circle id="Ellipse_11-2" data-name="Ellipse 11" cx="9.302" cy="9.302" r="9.302" transform="translate(1832.622 207) rotate(90)" fill="#f7be52"/>
      <circle id="Ellipse_12-2" data-name="Ellipse 12" cx="9.302" cy="9.302" r="9.302" transform="translate(1832.622 257.675) rotate(90)" fill="#f7be52"/>
      <circle id="Ellipse_13-2" data-name="Ellipse 13" cx="9.302" cy="9.302" r="9.302" transform="translate(1832.622 308.347) rotate(90)" fill="#f7be52"/>
      <circle id="Ellipse_14-2" data-name="Ellipse 14" cx="9.302" cy="9.302" r="9.302" transform="translate(1832.622 359.022) rotate(90)" fill="#f7be52"/>
      <circle id="Ellipse_15-2" data-name="Ellipse 15" cx="9.302" cy="9.302" r="9.302" transform="translate(1832.622 409.694) rotate(90)" fill="#f7be52"/>
      <circle id="Ellipse_16-2" data-name="Ellipse 16" cx="9.302" cy="9.302" r="9.302" transform="translate(1781.95 105.653) rotate(90)" fill="#f7be52"/>
      <circle id="Ellipse_17-2" data-name="Ellipse 17" cx="9.302" cy="9.302" r="9.302" transform="translate(1781.95 156.325) rotate(90)" fill="#f7be52"/>
      <circle id="Ellipse_18-2" data-name="Ellipse 18" cx="9.302" cy="9.302" r="9.302" transform="translate(1781.95 207) rotate(90)" fill="#f7be52"/>
      <circle id="Ellipse_19-2" data-name="Ellipse 19" cx="9.302" cy="9.302" r="9.302" transform="translate(1781.95 257.675) rotate(90)" fill="#f7be52"/>
      <circle id="Ellipse_20-2" data-name="Ellipse 20" cx="9.302" cy="9.302" r="9.302" transform="translate(1781.95 308.347) rotate(90)" fill="#f7be52"/>
      <circle id="Ellipse_21-2" data-name="Ellipse 21" cx="9.302" cy="9.302" r="9.302" transform="translate(1781.95 359.022) rotate(90)" fill="#f7be52"/>
      <circle id="Ellipse_22-2" data-name="Ellipse 22" cx="9.302" cy="9.302" r="9.302" transform="translate(1781.95 409.694) rotate(90)" fill="#f7be52"/>
    </g>
  </g>
</svg>
