<svg xmlns="http://www.w3.org/2000/svg" xmlns:xlink="http://www.w3.org/1999/xlink" width="412.365" height="312.576" viewBox="0 0 412.365 312.576">
  <defs>
    <linearGradient id="linear-gradient" x1="0.5" y1="1" x2="0.5" gradientUnits="objectBoundingBox">
      <stop offset="0" stop-color="gray" stop-opacity="0.251"/>
      <stop offset="0.54" stop-color="gray" stop-opacity="0.122"/>
      <stop offset="1" stop-color="gray" stop-opacity="0.102"/>
    </linearGradient>
    <linearGradient id="linear-gradient-2" y1="1" y2="0" xlink:href="#linear-gradient"/>
    <linearGradient id="linear-gradient-3" x1="0" y1="0.5" x2="1" y2="0.5" xlink:href="#linear-gradient"/>
    <linearGradient id="linear-gradient-4" x1="2.581" y1="1" x2="2.581" y2="0" xlink:href="#linear-gradient"/>
    <linearGradient id="linear-gradient-5" y1="1" y2="0" xlink:href="#linear-gradient"/>
    <linearGradient id="linear-gradient-6" x1="-25.357" y1="1.001" x2="-25.357" y2="0" xlink:href="#linear-gradient"/>
  </defs>
  <g id="undraw_people_search_wctu_1_" data-name="undraw_people_search_wctu (1)" transform="translate(0 0.006)">
    <path id="Path_728" data-name="Path 728" d="M430.918,193.541c-14.5,19.893-9.713,48.289-1.333,70.911,2.807,7.573,6,15.583,4.54,23.822-1.778,10.073-10.132,17.62-18.816,21.73-15.831,7.491-34.532,6.3-48.692-3.144-12.22-8.147-20.823-21.686-33.28-29.444-20.849-12.979-47.915-7.18-71.119,2.729-16.416,7.01-34.4,16.038-50.4,9.565-11.258-4.555-18.838-16.149-22.826-28.544-1.926-5.984-3.274-12.48-7.11-17.164a26.247,26.247,0,0,0-8.395-6.347c-28.288-14.813-64.675-5.555-92.1-22.082-18.516-11.161-30.04-32.821-34.828-55.591s-3.6-46.808-1.7-70.434c1.355-16.79,3.5-34.732,13.594-47.926,10.676-13.95,28.57-19.493,44.571-17.308S133.379,35.388,145.929,46c15.7,13.235,30.14,29.851,49.663,34.876,13.3,3.422,27.425,1,41.249-.07,23.108-1.785,46.134.27,69.019,2.592,21.908,2.222,43.967,4.7,64.716,11.987,14.683,5.155,26.322,14.9,40.146,21.556,9.01,4.34,18.923,5.347,27.4,10.954,10.465,6.906,19.923,19.141,16.853,33.824C452.078,175.674,438.62,182.984,430.918,193.541Z" transform="translate(-43.2 -23.86)" fill="#f7be52" opacity="0.1"/>
    <g id="Group_196" data-name="Group 196" transform="translate(292.462 132.496)" opacity="0.5">
      <path id="Path_729" data-name="Path 729" d="M898.19,548.867s1.222-36.2,20.808-56.658a54.875,54.875,0,0,0,15.05-31.284,92.308,92.308,0,0,0,.459-16.875" transform="translate(-874.038 -420.948)" fill="none" stroke="#535461" stroke-miterlimit="10" stroke-width="2"/>
      <path id="Path_730" data-name="Path 730" d="M1003.97,391.81c-1.341,4.044-12.546,13.331-12.546,13.331s-3.433-14.15-2.092-18.19a7.711,7.711,0,0,1,14.638,4.855Z" transform="translate(-931.233 -381.666)" fill="#f7be52"/>
      <path id="Path_731" data-name="Path 731" d="M1011.775,456.686c-3.333,2.666-17.775,4.377-17.775,4.377s4.814-13.742,8.147-16.4a7.71,7.71,0,1,1,9.628,12.028Z" transform="translate(-934.369 -420.138)" fill="#f7be52"/>
      <path id="Path_732" data-name="Path 732" d="M976.467,557.139c-4.214.622-17.557-5.184-17.557-5.184s11.087-9.436,15.3-10.058a7.711,7.711,0,0,1,2.255,15.257Z" transform="translate(-912.273 -482.509)" fill="#f7be52"/>
      <path id="Path_733" data-name="Path 733" d="M930.872,629.365c-4.048,1.326-18.182-2.155-18.182-2.155s9.336-11.172,13.383-12.5a7.712,7.712,0,1,1,4.814,14.653Z" transform="translate(-883.169 -528.168)" fill="#f7be52"/>
      <path id="Path_734" data-name="Path 734" d="M950.332,461.359c1.966,3.777,14.52,11.172,14.52,11.172s1.141-14.513-.826-18.293a7.71,7.71,0,1,0-13.679,7.117Z" transform="translate(-906.332 -424.749)" fill="#f7be52"/>
      <path id="Path_735" data-name="Path 735" d="M896.957,542.71c3.007,3.018,17.183,6.321,17.183,6.321s-3.255-14.19-6.258-17.208a7.71,7.71,0,0,0-10.924,10.884Z" transform="translate(-871.846 -474.789)" fill="#f7be52"/>
      <path id="Path_736" data-name="Path 736" d="M859.85,633.056c2.451,3.481,15.868,9.136,15.868,9.136s-.807-14.535-3.262-18.019a7.71,7.71,0,1,0-12.591,8.888Z" transform="translate(-848.922 -532.182)" fill="#f7be52"/>
      <path id="Path_737" data-name="Path 737" d="M879.371,589.165S868.262,573,870.209,557.8a29.714,29.714,0,0,0-3.511-18.464,50.007,50.007,0,0,0-5.229-7.5" transform="translate(-850.916 -476.228)" fill="none" stroke="#535461" stroke-miterlimit="10" stroke-width="2"/>
      <path id="Path_738" data-name="Path 738" d="M850.793,501.05c.715,2.192-1.174,9.843-1.174,9.843s-6.047-5.058-6.762-7.247a4.174,4.174,0,1,1,7.936-2.592Z" transform="translate(-839.065 -455.03)" fill="#f7be52"/>
      <path id="Path_739" data-name="Path 739" d="M879.18,524.012c-.589,2.222-6.336,7.625-6.336,7.625s-2.326-7.532-1.737-9.761a4.175,4.175,0,0,1,8.073,2.137Z" transform="translate(-856.925 -467.997)" fill="#f7be52"/>
      <path id="Path_740" data-name="Path 740" d="M894.767,577.063c-1.633,1.626-9.317,3.385-9.317,3.385s1.792-7.677,3.429-9.3a4.177,4.177,0,1,1,5.888,5.925Z" transform="translate(-866.016 -500.214)" fill="#f7be52"/>
      <path id="Path_741" data-name="Path 741" d="M899.628,623.536c-1.337,1.878-8.628,4.9-8.628,4.9s.47-7.869,1.807-9.747a4.175,4.175,0,0,1,6.806,4.836Z" transform="translate(-869.511 -529.812)" fill="#f7be52"/>
      <path id="Path_742" data-name="Path 742" d="M849.859,548.526c2.07,1.015,9.91.2,9.91.2s-4.173-6.688-6.243-7.7a4.174,4.174,0,1,0-3.666,7.5Z" transform="translate(-842.13 -481.746)" fill="#f7be52"/>
      <path id="Path_743" data-name="Path 743" d="M852.8,601.158c2.281.348,9.517-2.774,9.517-2.774s-5.984-5.133-8.262-5.466a4.175,4.175,0,1,0-1.255,8.254Z" transform="translate(-843.221 -514.658)" fill="#f7be52"/>
      <path id="Path_744" data-name="Path 744" d="M865.907,652.506c2.188.741,9.85-1.111,9.85-1.111s-5.029-6.069-7.217-6.8a4.175,4.175,0,0,0-2.633,7.925Z" transform="translate(-851.909 -547.095)" fill="#f7be52"/>
      <path id="Path_745" data-name="Path 745" d="M850.793,501.05c.715,2.192-1.174,9.843-1.174,9.843s-6.047-5.058-6.762-7.247a4.174,4.174,0,1,1,7.936-2.592Z" transform="translate(-839.065 -455.03)" fill="#fff" opacity="0.5"/>
      <path id="Path_746" data-name="Path 746" d="M879.18,524.012c-.589,2.222-6.336,7.625-6.336,7.625s-2.326-7.532-1.737-9.761a4.175,4.175,0,0,1,8.073,2.137Z" transform="translate(-856.925 -467.997)" fill="#fff" opacity="0.5"/>
      <path id="Path_747" data-name="Path 747" d="M894.767,577.063c-1.633,1.626-9.317,3.385-9.317,3.385s1.792-7.677,3.429-9.3a4.177,4.177,0,1,1,5.888,5.925Z" transform="translate(-866.016 -500.214)" fill="#fff" opacity="0.5"/>
      <path id="Path_748" data-name="Path 748" d="M899.628,623.536c-1.337,1.878-8.628,4.9-8.628,4.9s.47-7.869,1.807-9.747a4.175,4.175,0,0,1,6.806,4.836Z" transform="translate(-869.511 -529.812)" fill="#fff" opacity="0.5"/>
      <path id="Path_749" data-name="Path 749" d="M849.859,548.526c2.07,1.015,9.91.2,9.91.2s-4.173-6.688-6.243-7.7a4.174,4.174,0,1,0-3.666,7.5Z" transform="translate(-842.13 -481.746)" fill="#fff" opacity="0.5"/>
      <path id="Path_750" data-name="Path 750" d="M852.8,601.158c2.281.348,9.517-2.774,9.517-2.774s-5.984-5.133-8.262-5.466a4.175,4.175,0,1,0-1.255,8.254Z" transform="translate(-843.221 -514.658)" fill="#fff" opacity="0.5"/>
      <path id="Path_751" data-name="Path 751" d="M865.907,652.506c2.188.741,9.85-1.111,9.85-1.111s-5.029-6.069-7.217-6.8a4.175,4.175,0,0,0-2.633,7.925Z" transform="translate(-851.909 -547.095)" fill="#fff" opacity="0.5"/>
      <path id="Path_752" data-name="Path 752" d="M797.669,699.169h31.6l7.9-48.189h-47.4Z" transform="translate(-789.77 -542.414)" fill="#474059"/>
      <path id="Path_753" data-name="Path 753" d="M795.817,650.98l7.38,45.03h26.588l-.518,3.159h-31.6l-7.9-48.189Z" transform="translate(-789.77 -542.414)" opacity="0.1"/>
    </g>
    <rect id="Rectangle_86" data-name="Rectangle 86" width="231.816" height="279.697" transform="translate(74.537 14.546)" fill="url(#linear-gradient)"/>
    <rect id="Rectangle_87" data-name="Rectangle 87" width="225.891" height="272.55" transform="translate(77.499 18.123)" fill="#fff"/>
    <rect id="Rectangle_88" data-name="Rectangle 88" width="91.097" height="4.444" transform="translate(165.263 48.859)" fill="#c0bccf"/>
    <rect id="Rectangle_89" data-name="Rectangle 89" width="91.097" height="4.444" transform="translate(165.263 62.931)" fill="#c0bccf"/>
    <rect id="Rectangle_90" data-name="Rectangle 90" width="47.4" height="4.444" transform="translate(187.112 77.003)" fill="#f7be52"/>
    <rect id="Rectangle_91" data-name="Rectangle 91" width="91.097" height="4.444" transform="translate(165.263 138.105)" fill="#c0bccf" opacity="0.5"/>
    <rect id="Rectangle_92" data-name="Rectangle 92" width="91.097" height="4.444" transform="translate(165.263 152.177)" fill="#c0bccf" opacity="0.5"/>
    <rect id="Rectangle_93" data-name="Rectangle 93" width="47.4" height="4.444" transform="translate(187.112 166.248)" fill="#f7be52" opacity="0.5"/>
    <rect id="Rectangle_94" data-name="Rectangle 94" width="91.097" height="4.444" transform="translate(165.263 227.35)" fill="#c0bccf" opacity="0.5"/>
    <rect id="Rectangle_95" data-name="Rectangle 95" width="91.097" height="4.444" transform="translate(165.263 241.422)" fill="#c0bccf" opacity="0.5"/>
    <rect id="Rectangle_96" data-name="Rectangle 96" width="47.4" height="4.444" transform="translate(187.112 255.494)" fill="#f7be52" opacity="0.5"/>
    <g id="Group_197" data-name="Group 197" transform="translate(89.719 129.213)" opacity="0.5">
      <path id="Path_754" data-name="Path 754" d="M335.843,397.98a25.063,25.063,0,0,1-6.062,16.386c-.193.226-.393.448-.6.667q-.152.17-.311.333a24.7,24.7,0,0,1-2.688,2.44l-.067.048a25.071,25.071,0,0,1-7.458,4.007l-.337.107c-.207.07-.422.133-.633.193l-.085.026a25.3,25.3,0,0,1-13.905,0h-.037c-.37-.107-.741-.219-1.081-.341l-.315-.111a24.428,24.428,0,0,1-3.481-1.541l-.07-.037a25.28,25.28,0,0,1-4.933-3.492l-.122-.115a23.541,23.541,0,0,1-2.152-2.222c-.089-.1-.174-.2-.259-.307-.163-.193-.318-.393-.474-.593a25.181,25.181,0,1,1,45.067-15.449Z" transform="translate(-285.48 -372.798)" fill="#c0bccf"/>
      <path id="Path_755" data-name="Path 755" d="M337.956,415.908l-1.911-.859a7.582,7.582,0,0,0,.037-.874,6.869,6.869,0,0,0,0-.741c-.189-1.948-1.429-3.644-2.307-5.425a15.408,15.408,0,0,1-1.507-5.184c-.233-2.222,0-4.525-.815-6.614a11.933,11.933,0,0,0-3.377-4.336,17.141,17.141,0,0,0-5.425-3.44,9.594,9.594,0,0,0-6.462-.174,13.942,13.942,0,0,0-4.655,3.362,15.646,15.646,0,0,0-2.629,2.992,12.94,12.94,0,0,0-1.481,4.525,69.235,69.235,0,0,0-.911,7.562c-.144,2.115-.37,4.514-2.177,5.81-.881.633-2.122.989-2.526,1.948a1.992,1.992,0,0,0-.133.907,3.332,3.332,0,0,0,.056.767c.026.148.056.293.093.441a32.5,32.5,0,0,0-1.3,3.955c-.27,1-.518,1.981-.741,2.933h.918l3.451.081h.048l3.7.085h.019l3.451.081h.085l1,.07h.326l13.8.318h.074l.918.022h.322l2.763.063h0l4.073.093h.03l3.066.074h.955l-.163-3.214C339.292,416.215,337.956,415.908,337.956,415.908Zm-15.505-.393c0,2.726-2.918,6.062-2.918,6.062l-2.937-4,.107-.156,2.829,3.851s2.918-3.333,2.918-6.062a3.2,3.2,0,0,1,.233-.4l.067.207A3.933,3.933,0,0,0,322.451,415.515Zm4.488,10.695a2.231,2.231,0,0,0-.026-.415c-.026-.137-.022-.259-.041-.393s-.033-.263-.052-.4-.044-.263-.07-.4-.052-.263-.081-.4a.622.622,0,0,0-.03-.133q-.061-.261-.133-.522c-.048-.174-.078-.281-.122-.418a.569.569,0,0,0-.059-.185c-.022-.059-.063-.2-.1-.3l-.067-.193c-.03-.085-.059-.174-.093-.259-.056-.156-.115-.307-.174-.463s-.122-.307-.185-.459c-.126-.311-.263-.618-.4-.93-.537-1.2-1.141-2.381-1.7-3.551a18.883,18.883,0,0,1-.792-1.881l-.07.093a3.928,3.928,0,0,0-.3.5c0,2.725-2.918,6.062-2.918,6.062l-2.937-4-2.57,3.7A3,3,0,0,0,313,422.988c-.081.241-.159.507-.233.785-.052.189-.1.37-.144.581-.026.1-.048.2-.07.3l-.067.315v.048c-.044.215-.089.437-.13.663s-.089.485-.13.741q-.044.241-.078.478c-.052.307-.1.618-.141.93-.026.181-.052.37-.074.537l-.089.689c.189.567.4,1.111.618,1.681a2.645,2.645,0,0,1,.241.952,26.988,26.988,0,0,0,13.905,0,.124.124,0,0,1,0-.033,3.866,3.866,0,0,1-.089-.944h0a24.4,24.4,0,0,1,.37-2.651,9.069,9.069,0,0,0,.07-1.3V426.6c-.011-.141-.015-.267-.019-.389Zm0,0a2.231,2.231,0,0,0-.026-.415c-.026-.137-.022-.259-.041-.393s-.033-.263-.052-.4-.044-.263-.07-.4-.052-.263-.081-.4a.622.622,0,0,0-.03-.133q-.061-.261-.133-.522c-.048-.174-.078-.281-.122-.418a.569.569,0,0,0-.059-.185c-.022-.059-.063-.2-.1-.3l-.067-.193c-.03-.085-.059-.174-.093-.259-.056-.156-.115-.307-.174-.463s-.122-.307-.185-.459c-.126-.311-.263-.618-.4-.93-.537-1.2-1.141-2.381-1.7-3.551a18.883,18.883,0,0,1-.792-1.881l-.07.093a3.928,3.928,0,0,0-.3.5c0,2.725-2.918,6.062-2.918,6.062l-2.937-4-2.57,3.7A3,3,0,0,0,313,422.988c-.081.241-.159.507-.233.785-.052.189-.1.37-.144.581-.026.1-.048.2-.07.3l-.067.315v.048c-.044.215-.089.437-.13.663s-.089.485-.13.741q-.044.241-.078.478c-.052.307-.1.618-.141.93-.026.181-.052.37-.074.537l-.089.689c.189.567.4,1.111.618,1.681a2.645,2.645,0,0,1,.241.952,26.988,26.988,0,0,0,13.905,0,.124.124,0,0,1,0-.033,3.866,3.866,0,0,1-.089-.944h0a24.4,24.4,0,0,1,.37-2.651,9.069,9.069,0,0,0,.07-1.3V426.6c-.011-.141-.015-.267-.019-.389Zm0,0a2.231,2.231,0,0,0-.026-.415c-.026-.137-.022-.259-.041-.393s-.033-.263-.052-.4-.044-.263-.07-.4-.052-.263-.081-.4a.622.622,0,0,0-.03-.133q-.061-.261-.133-.522c-.048-.174-.078-.281-.122-.418a.569.569,0,0,0-.059-.185c-.022-.059-.063-.2-.1-.3l-.067-.193c-.03-.085-.059-.174-.093-.259-.056-.156-.115-.307-.174-.463s-.122-.307-.185-.459c-.126-.311-.263-.618-.4-.93-.537-1.2-1.141-2.381-1.7-3.551a18.883,18.883,0,0,1-.792-1.881l-.07.093a3.928,3.928,0,0,0-.3.5c0,2.725-2.918,6.062-2.918,6.062l-2.937-4-2.57,3.7A3,3,0,0,0,313,422.988c-.081.241-.159.507-.233.785-.052.189-.1.37-.144.581-.026.1-.048.2-.07.3l-.067.315v.048c-.044.215-.089.437-.13.663s-.089.485-.13.741q-.044.241-.078.478c-.052.307-.1.618-.141.93-.026.181-.052.37-.074.537l-.089.689c.189.567.4,1.111.618,1.681a2.645,2.645,0,0,1,.241.952,26.988,26.988,0,0,0,13.905,0,.124.124,0,0,1,0-.033,3.866,3.866,0,0,1-.089-.944h0a24.4,24.4,0,0,1,.37-2.651,9.069,9.069,0,0,0,.07-1.3V426.6c-.011-.141-.015-.267-.019-.389Zm0,0a2.231,2.231,0,0,0-.026-.415c-.026-.137-.022-.259-.041-.393s-.033-.263-.052-.4-.044-.263-.07-.4-.052-.263-.081-.4a.622.622,0,0,0-.03-.133q-.061-.261-.133-.522c-.048-.174-.078-.281-.122-.418a.569.569,0,0,0-.059-.185c-.022-.059-.063-.2-.1-.3l-.067-.193c-.03-.085-.059-.174-.093-.259-.056-.156-.115-.307-.174-.463s-.122-.307-.185-.459c-.126-.311-.263-.618-.4-.93-.537-1.2-1.141-2.381-1.7-3.551a18.883,18.883,0,0,1-.792-1.881l-.07.093a3.928,3.928,0,0,0-.3.5c0,2.725-2.918,6.062-2.918,6.062l-2.937-4-2.57,3.7A3,3,0,0,0,313,422.988c-.081.241-.159.507-.233.785-.052.189-.1.37-.144.581-.026.1-.048.2-.07.3l-.067.315v.048c-.044.215-.089.437-.13.663s-.089.485-.13.741q-.044.241-.078.478c-.052.307-.1.618-.141.93-.026.181-.052.37-.074.537l-.089.689c.189.567.4,1.111.618,1.681a2.645,2.645,0,0,1,.241.952,26.988,26.988,0,0,0,13.905,0,.124.124,0,0,1,0-.033,3.866,3.866,0,0,1-.089-.944h0a24.4,24.4,0,0,1,.37-2.651,9.069,9.069,0,0,0,.07-1.3V426.6c-.011-.141-.015-.267-.019-.389Z" transform="translate(-294.484 -382.231)" fill="url(#linear-gradient-2)"/>
      <rect id="Rectangle_97" data-name="Rectangle 97" width="17.034" height="11.48" transform="translate(15.553 18.15)" fill="#493545"/>
      <path id="Path_756" data-name="Path 756" d="M347.031,437.827,339.9,447.87l-7.451-.648s-9.721.644-3.24-6.8c3.114-3.581,4.133-6.566,4.351-8.695a6.733,6.733,0,0,0-.463-3.614l8.1-.97a6.044,6.044,0,0,0-.133,3.381C342.08,434.728,347.031,437.827,347.031,437.827Z" transform="translate(-311.615 -407.016)" fill="#c77485"/>
      <path id="Path_757" data-name="Path 757" d="M351.455,430.5a8.1,8.1,0,0,1-7.5,1.207,6.733,6.733,0,0,0-.463-3.614l8.1-.97A6.043,6.043,0,0,0,351.455,430.5Z" transform="translate(-322.008 -407.004)" opacity="0.1"/>
      <circle id="Ellipse_30" data-name="Ellipse 30" cx="8.099" cy="8.099" r="8.099" transform="translate(16.464 8.614)" fill="#c77485"/>
      <path id="Path_758" data-name="Path 758" d="M343.106,451.829l-.189-.741-.163-.652-.241-.963-.044-.178-.037-.148s.193-.581-1.078-.393l-.237.041c-.2.041-.433.1-.7.17l-.241.074-.318.1h0a6.944,6.944,0,0,0-2.689,1.622,6.053,6.053,0,0,0-.9,1.089c-.026.037-.044.07-.067.1a3.5,3.5,0,0,0-.233.43c0,2.918-2.918,6.48-2.918,6.48l-2.848-4.114-.056-.081-.678-.985-.241-.318-.081-.111-1.481-1.989-.37-.5-.122-.167-.181-.241-.426-.567-1.666.974-2.222,1.3-1.3,8.425v.233l.041.7.27,4.577v.063l-.474,1.9.07.037a24.421,24.421,0,0,0,3.481,1.541l.315.111c.37.122.718.233,1.081.341a1.319,1.319,0,0,1,.03.167v-.159a25.3,25.3,0,0,0,13.905,0l.085-.026c.211-.059.426-.122.633-.193l.337-.107a24.818,24.818,0,0,0,2.681-1.074l.311-6.629.222-4.781v-.274Z" transform="translate(-307.985 -420.604)" opacity="0.1"/>
      <path id="Path_759" data-name="Path 759" d="M340.578,464.7a2.559,2.559,0,0,0-.026-.444c-.026-.148-.022-.278-.041-.418s-.033-.281-.052-.422-.044-.281-.07-.422-.052-.281-.081-.422a.638.638,0,0,0-.03-.141c-.041-.185-.085-.37-.133-.559s-.078-.3-.122-.448a.63.63,0,0,0-.059-.2c-.022-.063-.063-.215-.1-.322l-.067-.207c-.03-.093-.059-.185-.093-.278-.056-.167-.115-.33-.174-.5s-.122-.33-.185-.492c-.126-.333-.263-.663-.4-.992-.537-1.281-1.141-2.544-1.7-3.8a20.981,20.981,0,0,1-.792-2.011l-.07.1a4.269,4.269,0,0,0-.3.533c0,2.914-2.918,6.48-2.918,6.48l-2.937-4.277-2.57,3.951a3.228,3.228,0,0,0-1.029,1.829c-.081.259-.159.541-.233.841-.052.2-.1.411-.144.622-.026.107-.048.215-.07.326l-.067.337v.052c-.044.23-.089.467-.13.707s-.089.518-.13.781q-.044.256-.078.511c-.052.33-.1.663-.141.992-.026.193-.052.37-.074.574l-.089.741c.189.607.4,1.207.618,1.8a2.984,2.984,0,0,1,.241,1.018,25.3,25.3,0,0,0,13.905,0,.142.142,0,0,1,0-.037,4.411,4.411,0,0,1-.089-1.011h0a27.784,27.784,0,0,1,.37-2.833,10.369,10.369,0,0,0,.07-1.392v-.167C340.585,464.967,340.582,464.834,340.578,464.7Zm0,0a2.559,2.559,0,0,0-.026-.444c-.026-.148-.022-.278-.041-.418s-.033-.281-.052-.422-.044-.281-.07-.422-.052-.281-.081-.422a.638.638,0,0,0-.03-.141c-.041-.185-.085-.37-.133-.559s-.078-.3-.122-.448a.63.63,0,0,0-.059-.2c-.022-.063-.063-.215-.1-.322l-.067-.207c-.03-.093-.059-.185-.093-.278-.056-.167-.115-.33-.174-.5s-.122-.33-.185-.492c-.126-.333-.263-.663-.4-.992-.537-1.281-1.141-2.544-1.7-3.8a20.981,20.981,0,0,1-.792-2.011l-.07.1a4.269,4.269,0,0,0-.3.533c0,2.914-2.918,6.48-2.918,6.48l-2.937-4.277-2.57,3.951a3.228,3.228,0,0,0-1.029,1.829c-.081.259-.159.541-.233.841-.052.2-.1.411-.144.622-.026.107-.048.215-.07.326l-.067.337v.052c-.044.23-.089.467-.13.707s-.089.518-.13.781q-.044.256-.078.511c-.052.33-.1.663-.141.992-.026.193-.052.37-.074.574l-.089.741c.189.607.4,1.207.618,1.8a2.984,2.984,0,0,1,.241,1.018,25.3,25.3,0,0,0,13.905,0,.142.142,0,0,1,0-.037,4.411,4.411,0,0,1-.089-1.011h0a27.784,27.784,0,0,1,.37-2.833,10.369,10.369,0,0,0,.07-1.392v-.167C340.585,464.967,340.582,464.834,340.578,464.7Zm0,0a2.559,2.559,0,0,0-.026-.444c-.026-.148-.022-.278-.041-.418s-.033-.281-.052-.422-.044-.281-.07-.422-.052-.281-.081-.422a.638.638,0,0,0-.03-.141c-.041-.185-.085-.37-.133-.559s-.078-.3-.122-.448a.63.63,0,0,0-.059-.2c-.022-.063-.063-.215-.1-.322l-.067-.207c-.03-.093-.059-.185-.093-.278-.056-.167-.115-.33-.174-.5s-.122-.33-.185-.492c-.126-.333-.263-.663-.4-.992-.537-1.281-1.141-2.544-1.7-3.8a20.981,20.981,0,0,1-.792-2.011l-.07.1a4.269,4.269,0,0,0-.3.533c0,2.914-2.918,6.48-2.918,6.48l-2.937-4.277-2.57,3.951a3.228,3.228,0,0,0-1.029,1.829c-.081.259-.159.541-.233.841-.052.2-.1.411-.144.622-.026.107-.048.215-.07.326l-.067.337v.052c-.044.23-.089.467-.13.707s-.089.518-.13.781q-.044.256-.078.511c-.052.33-.1.663-.141.992-.026.193-.052.37-.074.574l-.089.741c.189.607.4,1.207.618,1.8a2.984,2.984,0,0,1,.241,1.018,25.3,25.3,0,0,0,13.905,0,.142.142,0,0,1,0-.037,4.411,4.411,0,0,1-.089-1.011h0a27.784,27.784,0,0,1,.37-2.833,10.369,10.369,0,0,0,.07-1.392v-.167C340.585,464.967,340.582,464.834,340.578,464.7Zm3.925-6.951-1.322-5.277-.226-.9-.063-.248h0l-.322-1.289a.243.243,0,0,0,0-.033h0a.3.3,0,0,0-.026-.167c-.048-.1-.17-.2-.456-.222a2.3,2.3,0,0,0-.326,0h0a5.636,5.636,0,0,0-.952.178c-.152.041-.315.085-.489.141l-.318.1h-.03a7.066,7.066,0,0,0-2.333,1.3,6.3,6.3,0,0,0-1.185,1.311l-.07.1a4.276,4.276,0,0,0-.3.533c0,2.914-2.918,6.48-2.918,6.48l-2.937-4.277-.167-.241-.03-.041-.426-.626-.322-.43-.085-.111L327.684,452h0l-.481-.655v-.022l-.167-.226-.318-.422-1.111.648-2.777,1.618-1.281,8.336v.089l.037.607.274,4.64v.263l-.418,1.67a24.416,24.416,0,0,0,3.481,1.54l.315.111c.37.122.718.233,1.081.341a1.314,1.314,0,0,1,.03.167v-.159a25.3,25.3,0,0,0,13.905,0l.085-.026c.211-.059.426-.122.633-.193l.337-.107a24.809,24.809,0,0,0,2.681-1.074l.307-6.621.222-4.729Zm-18.212,12.787a1.325,1.325,0,0,1,.03.167v-.159Zm14.287-5.836a2.559,2.559,0,0,0-.026-.444c-.026-.148-.022-.278-.041-.418s-.033-.281-.052-.422-.044-.281-.07-.422-.052-.281-.081-.422a.638.638,0,0,0-.03-.141c-.041-.185-.085-.37-.133-.559s-.078-.3-.122-.448a.63.63,0,0,0-.059-.2c-.022-.063-.063-.215-.1-.322l-.067-.207c-.03-.093-.059-.185-.093-.278-.056-.167-.115-.33-.174-.5s-.122-.33-.185-.492c-.126-.333-.263-.663-.4-.992-.537-1.281-1.141-2.544-1.7-3.8a20.981,20.981,0,0,1-.792-2.011l-.07.1a4.269,4.269,0,0,0-.3.533c0,2.914-2.918,6.48-2.918,6.48l-2.937-4.277-2.57,3.951a3.228,3.228,0,0,0-1.029,1.829c-.081.259-.159.541-.233.841-.052.2-.1.411-.144.622-.026.107-.048.215-.07.326l-.067.337v.052c-.044.23-.089.467-.13.707s-.089.518-.13.781q-.044.256-.078.511c-.052.33-.1.663-.141.992-.026.193-.052.37-.074.574l-.089.741c.189.607.4,1.207.618,1.8a2.984,2.984,0,0,1,.241,1.018,25.3,25.3,0,0,0,13.905,0,.142.142,0,0,1,0-.037,4.411,4.411,0,0,1-.089-1.011h0a27.784,27.784,0,0,1,.37-2.833,10.369,10.369,0,0,0,.07-1.392v-.167C340.585,464.967,340.582,464.834,340.578,464.7Zm0,0a2.559,2.559,0,0,0-.026-.444c-.026-.148-.022-.278-.041-.418s-.033-.281-.052-.422-.044-.281-.07-.422-.052-.281-.081-.422a.638.638,0,0,0-.03-.141c-.041-.185-.085-.37-.133-.559s-.078-.3-.122-.448a.63.63,0,0,0-.059-.2c-.022-.063-.063-.215-.1-.322l-.067-.207c-.03-.093-.059-.185-.093-.278-.056-.167-.115-.33-.174-.5s-.122-.33-.185-.492c-.126-.333-.263-.663-.4-.992-.537-1.281-1.141-2.544-1.7-3.8a20.981,20.981,0,0,1-.792-2.011l-.07.1a4.269,4.269,0,0,0-.3.533c0,2.914-2.918,6.48-2.918,6.48l-2.937-4.277-2.57,3.951a3.228,3.228,0,0,0-1.029,1.829c-.081.259-.159.541-.233.841-.052.2-.1.411-.144.622-.026.107-.048.215-.07.326l-.067.337v.052c-.044.23-.089.467-.13.707s-.089.518-.13.781q-.044.256-.078.511c-.052.33-.1.663-.141.992-.026.193-.052.37-.074.574l-.089.741c.189.607.4,1.207.618,1.8a2.984,2.984,0,0,1,.241,1.018,25.3,25.3,0,0,0,13.905,0,.142.142,0,0,1,0-.037,4.411,4.411,0,0,1-.089-1.011h0a27.784,27.784,0,0,1,.37-2.833,10.369,10.369,0,0,0,.07-1.392v-.167C340.585,464.967,340.582,464.834,340.578,464.7Zm0,0a2.559,2.559,0,0,0-.026-.444c-.026-.148-.022-.278-.041-.418s-.033-.281-.052-.422-.044-.281-.07-.422-.052-.281-.081-.422a.638.638,0,0,0-.03-.141c-.041-.185-.085-.37-.133-.559s-.078-.3-.122-.448a.63.63,0,0,0-.059-.2c-.022-.063-.063-.215-.1-.322l-.067-.207c-.03-.093-.059-.185-.093-.278-.056-.167-.115-.33-.174-.5s-.122-.33-.185-.492c-.126-.333-.263-.663-.4-.992-.537-1.281-1.141-2.544-1.7-3.8a20.981,20.981,0,0,1-.792-2.011l-.07.1a4.269,4.269,0,0,0-.3.533c0,2.914-2.918,6.48-2.918,6.48l-2.937-4.277-2.57,3.951a3.228,3.228,0,0,0-1.029,1.829c-.081.259-.159.541-.233.841-.052.2-.1.411-.144.622-.026.107-.048.215-.07.326l-.067.337v.052c-.044.23-.089.467-.13.707s-.089.518-.13.781q-.044.256-.078.511c-.052.33-.1.663-.141.992-.026.193-.052.37-.074.574l-.089.741c.189.607.4,1.207.618,1.8a2.984,2.984,0,0,1,.241,1.018,25.3,25.3,0,0,0,13.905,0,.142.142,0,0,1,0-.037,4.411,4.411,0,0,1-.089-1.011h0a27.784,27.784,0,0,1,.37-2.833,10.369,10.369,0,0,0,.07-1.392v-.167C340.585,464.967,340.582,464.834,340.578,464.7Zm0,0a2.559,2.559,0,0,0-.026-.444c-.026-.148-.022-.278-.041-.418s-.033-.281-.052-.422-.044-.281-.07-.422-.052-.281-.081-.422a.638.638,0,0,0-.03-.141c-.041-.185-.085-.37-.133-.559s-.078-.3-.122-.448a.63.63,0,0,0-.059-.2c-.022-.063-.063-.215-.1-.322l-.067-.207c-.03-.093-.059-.185-.093-.278-.056-.167-.115-.33-.174-.5s-.122-.33-.185-.492c-.126-.333-.263-.663-.4-.992-.537-1.281-1.141-2.544-1.7-3.8a20.981,20.981,0,0,1-.792-2.011l-.07.1a4.269,4.269,0,0,0-.3.533c0,2.914-2.918,6.48-2.918,6.48l-2.937-4.277-2.57,3.951a3.228,3.228,0,0,0-1.029,1.829c-.081.259-.159.541-.233.841-.052.2-.1.411-.144.622-.026.107-.048.215-.07.326l-.067.337v.052c-.044.23-.089.467-.13.707s-.089.518-.13.781q-.044.256-.078.511c-.052.33-.1.663-.141.992-.026.193-.052.37-.074.574l-.089.741c.189.607.4,1.207.618,1.8a2.984,2.984,0,0,1,.241,1.018,25.3,25.3,0,0,0,13.905,0,.142.142,0,0,1,0-.037,4.411,4.411,0,0,1-.089-1.011h0a27.784,27.784,0,0,1,.37-2.833,10.369,10.369,0,0,0,.07-1.392v-.167C340.585,464.967,340.582,464.834,340.578,464.7Zm0,0a2.559,2.559,0,0,0-.026-.444c-.026-.148-.022-.278-.041-.418s-.033-.281-.052-.422-.044-.281-.07-.422-.052-.281-.081-.422a.638.638,0,0,0-.03-.141c-.041-.185-.085-.37-.133-.559s-.078-.3-.122-.448a.63.63,0,0,0-.059-.2c-.022-.063-.063-.215-.1-.322l-.067-.207c-.03-.093-.059-.185-.093-.278-.056-.167-.115-.33-.174-.5s-.122-.33-.185-.492c-.126-.333-.263-.663-.4-.992-.537-1.281-1.141-2.544-1.7-3.8a20.981,20.981,0,0,1-.792-2.011l-.07.1a4.269,4.269,0,0,0-.3.533c0,2.914-2.918,6.48-2.918,6.48l-2.937-4.277-2.57,3.951a3.228,3.228,0,0,0-1.029,1.829c-.081.259-.159.541-.233.841-.052.2-.1.411-.144.622-.026.107-.048.215-.07.326l-.067.337v.052c-.044.23-.089.467-.13.707s-.089.518-.13.781q-.044.256-.078.511c-.052.33-.1.663-.141.992-.026.193-.052.37-.074.574l-.089.741c.189.607.4,1.207.618,1.8a2.984,2.984,0,0,1,.241,1.018,25.3,25.3,0,0,0,13.905,0,.142.142,0,0,1,0-.037,4.411,4.411,0,0,1-.089-1.011h0a27.784,27.784,0,0,1,.37-2.833,10.369,10.369,0,0,0,.07-1.392v-.167C340.585,464.967,340.582,464.834,340.578,464.7Zm0,0a2.559,2.559,0,0,0-.026-.444c-.026-.148-.022-.278-.041-.418s-.033-.281-.052-.422-.044-.281-.07-.422-.052-.281-.081-.422a.638.638,0,0,0-.03-.141c-.041-.185-.085-.37-.133-.559s-.078-.3-.122-.448a.63.63,0,0,0-.059-.2c-.022-.063-.063-.215-.1-.322l-.067-.207c-.03-.093-.059-.185-.093-.278-.056-.167-.115-.33-.174-.5s-.122-.33-.185-.492c-.126-.333-.263-.663-.4-.992-.537-1.281-1.141-2.544-1.7-3.8a20.981,20.981,0,0,1-.792-2.011l-.07.1a4.269,4.269,0,0,0-.3.533c0,2.914-2.918,6.48-2.918,6.48l-2.937-4.277-2.57,3.951a3.228,3.228,0,0,0-1.029,1.829c-.081.259-.159.541-.233.841-.052.2-.1.411-.144.622-.026.107-.048.215-.07.326l-.067.337v.052c-.044.23-.089.467-.13.707s-.089.518-.13.781q-.044.256-.078.511c-.052.33-.1.663-.141.992-.026.193-.052.37-.074.574l-.089.741c.189.607.4,1.207.618,1.8a2.984,2.984,0,0,1,.241,1.018,25.3,25.3,0,0,0,13.905,0,.142.142,0,0,1,0-.037,4.411,4.411,0,0,1-.089-1.011h0a27.784,27.784,0,0,1,.37-2.833,10.369,10.369,0,0,0,.07-1.392v-.167C340.585,464.967,340.582,464.834,340.578,464.7Zm0,0a2.559,2.559,0,0,0-.026-.444c-.026-.148-.022-.278-.041-.418s-.033-.281-.052-.422-.044-.281-.07-.422-.052-.281-.081-.422a.638.638,0,0,0-.03-.141c-.041-.185-.085-.37-.133-.559s-.078-.3-.122-.448a.63.63,0,0,0-.059-.2c-.022-.063-.063-.215-.1-.322l-.067-.207c-.03-.093-.059-.185-.093-.278-.056-.167-.115-.33-.174-.5s-.122-.33-.185-.492c-.126-.333-.263-.663-.4-.992-.537-1.281-1.141-2.544-1.7-3.8a20.981,20.981,0,0,1-.792-2.011l-.07.1a4.269,4.269,0,0,0-.3.533c0,2.914-2.918,6.48-2.918,6.48l-2.937-4.277-2.57,3.951a3.228,3.228,0,0,0-1.029,1.829c-.081.259-.159.541-.233.841-.052.2-.1.411-.144.622-.026.107-.048.215-.07.326l-.067.337v.052c-.044.23-.089.467-.13.707s-.089.518-.13.781q-.044.256-.078.511c-.052.33-.1.663-.141.992-.026.193-.052.37-.074.574l-.089.741c.189.607.4,1.207.618,1.8a2.984,2.984,0,0,1,.241,1.018,25.3,25.3,0,0,0,13.905,0,.142.142,0,0,1,0-.037,4.411,4.411,0,0,1-.089-1.011h0a27.784,27.784,0,0,1,.37-2.833,10.369,10.369,0,0,0,.07-1.392v-.167C340.585,464.967,340.582,464.834,340.578,464.7Zm0,0a2.559,2.559,0,0,0-.026-.444c-.026-.148-.022-.278-.041-.418s-.033-.281-.052-.422-.044-.281-.07-.422-.052-.281-.081-.422a.638.638,0,0,0-.03-.141c-.041-.185-.085-.37-.133-.559s-.078-.3-.122-.448a.63.63,0,0,0-.059-.2c-.022-.063-.063-.215-.1-.322l-.067-.207c-.03-.093-.059-.185-.093-.278-.056-.167-.115-.33-.174-.5s-.122-.33-.185-.492c-.126-.333-.263-.663-.4-.992-.537-1.281-1.141-2.544-1.7-3.8a20.981,20.981,0,0,1-.792-2.011l-.07.1a4.269,4.269,0,0,0-.3.533c0,2.914-2.918,6.48-2.918,6.48l-2.937-4.277-2.57,3.951a3.228,3.228,0,0,0-1.029,1.829c-.081.259-.159.541-.233.841-.052.2-.1.411-.144.622-.026.107-.048.215-.07.326l-.067.337v.052c-.044.23-.089.467-.13.707s-.089.518-.13.781q-.044.256-.078.511c-.052.33-.1.663-.141.992-.026.193-.052.37-.074.574l-.089.741c.189.607.4,1.207.618,1.8a2.984,2.984,0,0,1,.241,1.018,25.3,25.3,0,0,0,13.905,0,.142.142,0,0,1,0-.037,4.411,4.411,0,0,1-.089-1.011h0a27.784,27.784,0,0,1,.37-2.833,10.369,10.369,0,0,0,.07-1.392v-.167C340.585,464.967,340.582,464.834,340.578,464.7Z" transform="translate(-308.124 -421.162)" fill="#fff"/>
      <path id="Path_760" data-name="Path 760" d="M317.869,455.381l-.248-.033a9.025,9.025,0,0,1-1.111-.222l-.137-.037c-.9-.256-1.892-.715-2.114-1.522a1.441,1.441,0,0,1,.022-.789,6.764,6.764,0,0,1,.5-1.274v-.022a1.767,1.767,0,0,1,.093-.167,3.7,3.7,0,0,1,1.337-1.455l-.444.07-3.762.611-5.832.941s-1.037-.207-2.448,3.681a.6.6,0,0,1-.048.144c-.341.952-.7,2.14-1.07,3.625-.255,1.029-.489,2.04-.7,3.022-.063.3-.126.589-.185.878a23.529,23.529,0,0,0,2.152,2.222l.122.115a25.278,25.278,0,0,0,4.933,3.492l.07.037a24.416,24.416,0,0,0,3.481,1.54l.315.111c.067-.685.141-1.444.23-2.222a.632.632,0,0,1,.03-.233l.089-.741c.022-.189.048-.37.074-.574.044-.33.089-.663.141-.992q.033-.256.078-.511c.041-.263.085-.526.13-.781s.085-.478.13-.707v-.052l.067-.337c.022-.111.044-.218.07-.326.044-.211.093-.422.144-.622.074-.3.152-.581.233-.841a3.165,3.165,0,0,1,1.029-1.829l2.57-3.951.107-.167.048-.074Z" transform="translate(-295.706 -421.323)" opacity="0.1"/>
      <path id="Path_761" data-name="Path 761" d="M317.21,455.4l-2.729,4.192a3.131,3.131,0,0,0-1.011,1.774c-.085.274-.17.574-.252.889a44.282,44.282,0,0,0-.837,4.847.576.576,0,0,1-.03.222c-.126,1.029-.23,2.04-.315,2.933a24.416,24.416,0,0,1-3.481-1.54l-.07-.037a25.279,25.279,0,0,1-4.933-3.492l-.122-.115a23.533,23.533,0,0,1-2.152-2.222c-.089-.1-.174-.2-.259-.307.041-.193.081-.37.126-.578.211-.981.444-1.989.7-3.014a36.475,36.475,0,0,1,1.259-4.148,1.122,1.122,0,0,1,.048-.118c1.311-3.374,2.255-3.185,2.255-3.185l6.158-.992,3.888-.63-.122.07a3.944,3.944,0,0,0-1.07,1.141l-.107.181c-.044.07-.085.148-.13.226a6.561,6.561,0,0,0-.511,1.3,1.363,1.363,0,0,0,.089,1.059,3.527,3.527,0,0,0,2.285,1.326l.144.037A9.292,9.292,0,0,0,317.21,455.4Z" transform="translate(-295.265 -421.336)" fill="#444176"/>
      <path id="Path_762" data-name="Path 762" d="M383,461.28l-.152-3.288c.648-5.184-.648-5.507-.648-5.507l-1.541-.741h-.041l-6.2-3-.241-.118-.074-.033h0l-.807-.393h0l-.511-.248-.955-.463-.322-.156v1.285c0,.37.033.8.063,1.307.067,1.266.189,2.963.407,4.962.122,1.159.278,2.426.47,3.785.115.8.2,1.6.248,2.385a41.973,41.973,0,0,1-.244,7.888l.337-.107a25.075,25.075,0,0,0,7.458-4.007l.067-.048a24.707,24.707,0,0,0,2.688-2.44Z" transform="translate(-339.652 -419.73)" opacity="0.1"/>
      <path id="Path_763" data-name="Path 763" d="M383.865,461.248l-.152-3.3c.648-5.184-.648-5.507-.648-5.507l-1.852-.9h-.037l-6.214-3.014-.285-.137-.056-.026-.456-.222-.6-.293-1.192-.578v.526h0v.652c0,.37.033.855.067,1.407.063,1.181.174,2.729.37,4.57.133,1.263.3,2.666.518,4.177q.17,1.211.244,2.4a41.91,41.91,0,0,1-.23,7.777,25.075,25.075,0,0,0,7.458-4.007l.067-.048a24.71,24.71,0,0,0,2.688-2.44q.163-.163.311-.333Z" transform="translate(-340.193 -419.698)" fill="#444176"/>
      <path id="Path_764" data-name="Path 764" d="M322.14,391.735a5.388,5.388,0,0,0-.507,1.852c-.4,1.448-1.966,2.355-2.326,3.814-.211.852.033,1.755-.111,2.622-.263,1.6-1.722,2.677-2.537,4.073a5.5,5.5,0,0,0-.337,4.777,7.656,7.656,0,0,1,.47,1.207,4.41,4.41,0,0,1-.115,1.852c-.278,1.318-.563,2.77.074,3.959a3.788,3.788,0,0,0,2.774,1.777,10.778,10.778,0,0,0,3.4-.156,9.824,9.824,0,0,0,3.548-1.037l-4.01-9.68a8.079,8.079,0,0,1-.815-3.048,6.7,6.7,0,0,1,.5-2.274,19.7,19.7,0,0,1,3.333-5.758c.581.674.537,1.7,1.022,2.448a3.862,3.862,0,0,0,1.652,1.233A54.7,54.7,0,0,0,334,401.841a.767.767,0,0,1,.57,1.141l-1.511,6.236c-.333,1.374-.626,2.963.23,4.073s2.785,1.637,2.8,3.07a4.9,4.9,0,0,0,0,.681c.1.67.9.992,1.574,1.026a4.692,4.692,0,0,0,4.707-3.84c.37-2.451-1.252-4.71-1.929-7.1-1.141-4.018.37-8.732-1.87-12.261-1.815-2.863-5.121-3.64-8.262-4C328.1,390.613,323.691,389.687,322.14,391.735Z" transform="translate(-304.653 -383.906)" opacity="0.1"/>
      <path id="Path_765" data-name="Path 765" d="M322.14,390.735a5.388,5.388,0,0,0-.507,1.852c-.4,1.448-1.966,2.355-2.326,3.814-.211.852.033,1.755-.111,2.622-.263,1.6-1.722,2.677-2.537,4.073a5.5,5.5,0,0,0-.337,4.777,7.662,7.662,0,0,1,.47,1.207,4.41,4.41,0,0,1-.115,1.852c-.278,1.318-.563,2.77.074,3.959a3.788,3.788,0,0,0,2.774,1.777,10.779,10.779,0,0,0,3.4-.156,9.824,9.824,0,0,0,3.548-1.037l-4.01-9.68a8.08,8.08,0,0,1-.815-3.048,6.7,6.7,0,0,1,.5-2.274,19.7,19.7,0,0,1,3.333-5.758c.581.674.537,1.7,1.022,2.448a3.862,3.862,0,0,0,1.652,1.233A54.713,54.713,0,0,0,334,400.841a.767.767,0,0,1,.57,1.141l-1.511,6.236c-.333,1.374-.626,2.963.23,4.073s2.785,1.637,2.8,3.07a4.9,4.9,0,0,0,0,.681c.1.67.9.992,1.574,1.026a4.692,4.692,0,0,0,4.707-3.84c.37-2.451-1.252-4.71-1.929-7.1-1.141-4.018.37-8.732-1.87-12.261-1.815-2.863-5.121-3.64-8.262-4C328.1,389.613,323.691,388.687,322.14,390.735Z" transform="translate(-304.653 -383.276)" fill="#493545"/>
    </g>
    <g id="Group_198" data-name="Group 198" transform="translate(89.719 218.458)" opacity="0.5">
      <path id="Path_766" data-name="Path 766" d="M335.843,638.98a25.063,25.063,0,0,1-6.062,16.386c-.193.226-.393.448-.6.667q-.152.17-.311.333a24.7,24.7,0,0,1-2.688,2.44l-.067.048a25.075,25.075,0,0,1-7.458,4.007l-.337.107c-.207.07-.422.133-.633.193l-.085.026a25.3,25.3,0,0,1-13.905,0h-.037c-.37-.107-.741-.219-1.081-.341l-.315-.111a24.419,24.419,0,0,1-3.481-1.54l-.07-.037a25.28,25.28,0,0,1-4.933-3.492l-.122-.115a23.526,23.526,0,0,1-2.152-2.222c-.089-.1-.174-.2-.259-.307-.163-.193-.318-.393-.474-.593a25.181,25.181,0,1,1,45.067-15.45Z" transform="translate(-285.48 -613.798)" fill="#c0bccf"/>
      <path id="Path_767" data-name="Path 767" d="M338.924,663.413l-.152-3.333c.648-5.27-.648-5.6-.648-5.6l-1.852-.911-.037-.018-6.214-3.063-.285-.141-.037-.152s.122-.37-.493-.433a2.256,2.256,0,0,1-.155-.944,4.049,4.049,0,0,1,1.018-1.852,7.606,7.606,0,0,0,1.218-5.4,12.691,12.691,0,0,0-2.066-5.214l-.119-.174a6.276,6.276,0,0,0,.218-1.637c0-4.262-4.31-7.717-9.628-7.717-4.814,0-8.825,2.848-9.521,6.562a3.374,3.374,0,0,0-.293.459c-.978,1.829.533,3.2.581,5.021.033,1.259-.811,2.337-1.481,3.4s-1.166,2.485-.478,3.536c.226.348.567.611.77.974.715,1.263-.474,2.711-.907,4.1a3.917,3.917,0,0,0-.118.493l-2.859.467s-.944-.193-2.255,3.237a1.161,1.161,0,0,0-.048.122,37.547,37.547,0,0,0-1.259,4.218q-.383,1.567-.7,3.063c-.044.2-.085.393-.126.589.085.1.17.211.259.311a23.765,23.765,0,0,0,2.152,2.266l.122.118a25.286,25.286,0,0,0,4.933,3.551l.07.037a24.226,24.226,0,0,0,3.481,1.566l.315.111c.37.126.718.237,1.081.348a1.35,1.35,0,0,1,.03.17v-.163a24.907,24.907,0,0,0,13.905,0l.085-.026c.211-.059.426-.126.633-.2l.337-.107a24.973,24.973,0,0,0,7.458-4.073l.067-.048a24.859,24.859,0,0,0,2.688-2.481q.163-.163.311-.337Z" transform="translate(-295.253 -622.004)" fill="url(#linear-gradient-3)"/>
      <path id="Path_768" data-name="Path 768" d="M322.656,650.037c.033,1.241-.811,2.3-1.481,3.333s-1.166,2.444-.478,3.477c.226.341.567.6.77.959.715,1.241-.474,2.666-.907,4.029a5.058,5.058,0,0,0,1.133,4.61,12.271,12.271,0,0,0,3.97,2.9,35.431,35.431,0,0,0,9.821,3.5,9.4,9.4,0,0,0,5.384-.241,5.725,5.725,0,0,0,3.233-6.3c-.426-1.948-1.852-3.514-2.592-5.355a2.507,2.507,0,0,1-.244-1.159,3.915,3.915,0,0,1,1.018-1.814,7.406,7.406,0,0,0,1.2-5.27,12.369,12.369,0,0,0-2.066-5.133,5.621,5.621,0,0,0-1.481-1.629,6.5,6.5,0,0,0-2.77-.837c-4.022-.563-8.188-1.178-12.243-1.385a2.627,2.627,0,0,0-2.855,1.385C321.1,646.9,322.607,648.241,322.656,650.037Z" transform="translate(-307.447 -632.635)" fill="#444176"/>
      <path id="Path_769" data-name="Path 769" d="M350.544,678l-7.632,10.854-7.451-.648s-.244,2.592-3.24-6.8c-1.674-5.255,1.729-3.429,2.4-4.884s1.852-2.74,1.952-3.814a6.733,6.733,0,0,0-.463-3.614l8.1-.97a6.044,6.044,0,0,0-.133,3.381C345.09,675.715,350.544,678,350.544,678Z" transform="translate(-314.624 -648.004)" fill="#c77485"/>
      <ellipse id="Ellipse_31" data-name="Ellipse 31" cx="9.628" cy="7.591" rx="9.628" ry="7.591" transform="translate(14.813 5.559)" fill="#444176"/>
      <path id="Path_770" data-name="Path 770" d="M351.455,671.5a8.1,8.1,0,0,1-7.5,1.207,6.733,6.733,0,0,0-.463-3.614l8.1-.97A6.044,6.044,0,0,0,351.455,671.5Z" transform="translate(-322.008 -648.004)" opacity="0.1"/>
      <circle id="Ellipse_32" data-name="Ellipse 32" cx="8.099" cy="8.099" r="8.099" transform="translate(16.464 8.614)" fill="#c77485"/>
      <path id="Path_771" data-name="Path 771" d="M343.106,692.829l-.189-.741-.163-.652-.241-.963-.044-.178-.037-.148s.193-.581-1.078-.393l-.237.041c-.2.041-.433.1-.7.17l-.241.074-.318.1h0a6.944,6.944,0,0,0-2.689,1.622,6.053,6.053,0,0,0-.9,1.089c-.026.037-.044.07-.067.1a3.493,3.493,0,0,0-.233.43c0,2.918-2.918,6.481-2.918,6.481l-2.848-4.114-.056-.081-.678-.985-.241-.318-.081-.111-1.481-1.989-.37-.5-.122-.167-.181-.241-.426-.567-1.666.974-2.222,1.3-1.3,8.425v.233l.041.7.27,4.577v.063l-.474,1.9.07.037a24.421,24.421,0,0,0,3.481,1.54l.315.111c.37.122.718.233,1.081.341a1.319,1.319,0,0,1,.03.167v-.159a25.3,25.3,0,0,0,13.905,0l.085-.026c.211-.059.426-.122.633-.193l.337-.107a24.81,24.81,0,0,0,2.681-1.074l.311-6.629.222-4.781v-.274Z" transform="translate(-307.985 -661.604)" opacity="0.1"/>
      <path id="Path_772" data-name="Path 772" d="M340.578,705.7a2.559,2.559,0,0,0-.026-.444c-.026-.148-.022-.278-.041-.418s-.033-.281-.052-.422-.044-.281-.07-.422-.052-.281-.081-.422a.638.638,0,0,0-.03-.141c-.041-.185-.085-.37-.133-.559s-.078-.3-.122-.448a.63.63,0,0,0-.059-.2c-.022-.063-.063-.215-.1-.322l-.067-.207c-.03-.093-.059-.185-.093-.278-.056-.167-.115-.33-.174-.5s-.122-.33-.185-.492c-.126-.333-.263-.663-.4-.992-.537-1.281-1.141-2.544-1.7-3.8a20.976,20.976,0,0,1-.792-2.011l-.07.1a4.273,4.273,0,0,0-.3.533c0,2.914-2.918,6.48-2.918,6.48l-2.937-4.277-2.57,3.951a3.227,3.227,0,0,0-1.029,1.829c-.081.259-.159.541-.233.841-.052.2-.1.411-.144.622-.026.107-.048.215-.07.326l-.067.337v.052c-.044.23-.089.467-.13.707s-.089.518-.13.781q-.044.256-.078.511c-.052.33-.1.663-.141.992-.026.193-.052.37-.074.574l-.089.741c.189.607.4,1.207.618,1.8a2.984,2.984,0,0,1,.241,1.018,25.3,25.3,0,0,0,13.905,0,.142.142,0,0,1,0-.037,4.411,4.411,0,0,1-.089-1.011h0a27.782,27.782,0,0,1,.37-2.833,10.37,10.37,0,0,0,.07-1.392v-.167C340.585,705.967,340.582,705.834,340.578,705.7Zm0,0a2.559,2.559,0,0,0-.026-.444c-.026-.148-.022-.278-.041-.418s-.033-.281-.052-.422-.044-.281-.07-.422-.052-.281-.081-.422a.638.638,0,0,0-.03-.141c-.041-.185-.085-.37-.133-.559s-.078-.3-.122-.448a.63.63,0,0,0-.059-.2c-.022-.063-.063-.215-.1-.322l-.067-.207c-.03-.093-.059-.185-.093-.278-.056-.167-.115-.33-.174-.5s-.122-.33-.185-.492c-.126-.333-.263-.663-.4-.992-.537-1.281-1.141-2.544-1.7-3.8a20.976,20.976,0,0,1-.792-2.011l-.07.1a4.273,4.273,0,0,0-.3.533c0,2.914-2.918,6.48-2.918,6.48l-2.937-4.277-2.57,3.951a3.227,3.227,0,0,0-1.029,1.829c-.081.259-.159.541-.233.841-.052.2-.1.411-.144.622-.026.107-.048.215-.07.326l-.067.337v.052c-.044.23-.089.467-.13.707s-.089.518-.13.781q-.044.256-.078.511c-.052.33-.1.663-.141.992-.026.193-.052.37-.074.574l-.089.741c.189.607.4,1.207.618,1.8a2.984,2.984,0,0,1,.241,1.018,25.3,25.3,0,0,0,13.905,0,.142.142,0,0,1,0-.037,4.411,4.411,0,0,1-.089-1.011h0a27.782,27.782,0,0,1,.37-2.833,10.37,10.37,0,0,0,.07-1.392v-.167C340.585,705.967,340.582,705.834,340.578,705.7Zm0,0a2.559,2.559,0,0,0-.026-.444c-.026-.148-.022-.278-.041-.418s-.033-.281-.052-.422-.044-.281-.07-.422-.052-.281-.081-.422a.638.638,0,0,0-.03-.141c-.041-.185-.085-.37-.133-.559s-.078-.3-.122-.448a.63.63,0,0,0-.059-.2c-.022-.063-.063-.215-.1-.322l-.067-.207c-.03-.093-.059-.185-.093-.278-.056-.167-.115-.33-.174-.5s-.122-.33-.185-.492c-.126-.333-.263-.663-.4-.992-.537-1.281-1.141-2.544-1.7-3.8a20.976,20.976,0,0,1-.792-2.011l-.07.1a4.273,4.273,0,0,0-.3.533c0,2.914-2.918,6.48-2.918,6.48l-2.937-4.277-2.57,3.951a3.227,3.227,0,0,0-1.029,1.829c-.081.259-.159.541-.233.841-.052.2-.1.411-.144.622-.026.107-.048.215-.07.326l-.067.337v.052c-.044.23-.089.467-.13.707s-.089.518-.13.781q-.044.256-.078.511c-.052.33-.1.663-.141.992-.026.193-.052.37-.074.574l-.089.741c.189.607.4,1.207.618,1.8a2.984,2.984,0,0,1,.241,1.018,25.3,25.3,0,0,0,13.905,0,.142.142,0,0,1,0-.037,4.411,4.411,0,0,1-.089-1.011h0a27.782,27.782,0,0,1,.37-2.833,10.37,10.37,0,0,0,.07-1.392v-.167C340.585,705.967,340.582,705.834,340.578,705.7Zm3.925-6.951-1.322-5.277-.226-.9-.063-.248h0l-.322-1.289a.243.243,0,0,0,0-.033h0a.3.3,0,0,0-.026-.167c-.048-.1-.17-.2-.456-.222a2.313,2.313,0,0,0-.326,0h0a5.645,5.645,0,0,0-.952.178c-.152.041-.315.085-.489.141l-.318.1h-.03a7.066,7.066,0,0,0-2.333,1.3,6.294,6.294,0,0,0-1.185,1.311l-.07.1a4.268,4.268,0,0,0-.3.533c0,2.914-2.918,6.48-2.918,6.48l-2.937-4.277-.167-.241-.03-.041-.426-.626-.322-.43-.085-.111L327.684,693h0l-.481-.655v-.022l-.167-.226-.318-.422-1.111.648-2.777,1.618-1.281,8.336v.089l.037.607.274,4.64v.263l-.418,1.67a24.419,24.419,0,0,0,3.481,1.54l.315.111c.37.122.718.233,1.081.341a1.312,1.312,0,0,1,.03.167v-.159a25.3,25.3,0,0,0,13.905,0l.085-.026c.211-.059.426-.122.633-.193l.337-.107a24.809,24.809,0,0,0,2.681-1.074l.307-6.621.222-4.729Zm-18.212,12.787a1.317,1.317,0,0,1,.03.167v-.159Zm14.287-5.836a2.559,2.559,0,0,0-.026-.444c-.026-.148-.022-.278-.041-.418s-.033-.281-.052-.422-.044-.281-.07-.422-.052-.281-.081-.422a.638.638,0,0,0-.03-.141c-.041-.185-.085-.37-.133-.559s-.078-.3-.122-.448a.63.63,0,0,0-.059-.2c-.022-.063-.063-.215-.1-.322l-.067-.207c-.03-.093-.059-.185-.093-.278-.056-.167-.115-.33-.174-.5s-.122-.33-.185-.492c-.126-.333-.263-.663-.4-.992-.537-1.281-1.141-2.544-1.7-3.8a20.976,20.976,0,0,1-.792-2.011l-.07.1a4.273,4.273,0,0,0-.3.533c0,2.914-2.918,6.48-2.918,6.48l-2.937-4.277-2.57,3.951a3.227,3.227,0,0,0-1.029,1.829c-.081.259-.159.541-.233.841-.052.2-.1.411-.144.622-.026.107-.048.215-.07.326l-.067.337v.052c-.044.23-.089.467-.13.707s-.089.518-.13.781q-.044.256-.078.511c-.052.33-.1.663-.141.992-.026.193-.052.37-.074.574l-.089.741c.189.607.4,1.207.618,1.8a2.984,2.984,0,0,1,.241,1.018,25.3,25.3,0,0,0,13.905,0,.142.142,0,0,1,0-.037,4.411,4.411,0,0,1-.089-1.011h0a27.782,27.782,0,0,1,.37-2.833,10.37,10.37,0,0,0,.07-1.392v-.167C340.585,705.967,340.582,705.834,340.578,705.7Zm0,0a2.559,2.559,0,0,0-.026-.444c-.026-.148-.022-.278-.041-.418s-.033-.281-.052-.422-.044-.281-.07-.422-.052-.281-.081-.422a.638.638,0,0,0-.03-.141c-.041-.185-.085-.37-.133-.559s-.078-.3-.122-.448a.63.63,0,0,0-.059-.2c-.022-.063-.063-.215-.1-.322l-.067-.207c-.03-.093-.059-.185-.093-.278-.056-.167-.115-.33-.174-.5s-.122-.33-.185-.492c-.126-.333-.263-.663-.4-.992-.537-1.281-1.141-2.544-1.7-3.8a20.976,20.976,0,0,1-.792-2.011l-.07.1a4.273,4.273,0,0,0-.3.533c0,2.914-2.918,6.48-2.918,6.48l-2.937-4.277-2.57,3.951a3.227,3.227,0,0,0-1.029,1.829c-.081.259-.159.541-.233.841-.052.2-.1.411-.144.622-.026.107-.048.215-.07.326l-.067.337v.052c-.044.23-.089.467-.13.707s-.089.518-.13.781q-.044.256-.078.511c-.052.33-.1.663-.141.992-.026.193-.052.37-.074.574l-.089.741c.189.607.4,1.207.618,1.8a2.984,2.984,0,0,1,.241,1.018,25.3,25.3,0,0,0,13.905,0,.142.142,0,0,1,0-.037,4.411,4.411,0,0,1-.089-1.011h0a27.782,27.782,0,0,1,.37-2.833,10.37,10.37,0,0,0,.07-1.392v-.167C340.585,705.967,340.582,705.834,340.578,705.7Zm0,0a2.559,2.559,0,0,0-.026-.444c-.026-.148-.022-.278-.041-.418s-.033-.281-.052-.422-.044-.281-.07-.422-.052-.281-.081-.422a.638.638,0,0,0-.03-.141c-.041-.185-.085-.37-.133-.559s-.078-.3-.122-.448a.63.63,0,0,0-.059-.2c-.022-.063-.063-.215-.1-.322l-.067-.207c-.03-.093-.059-.185-.093-.278-.056-.167-.115-.33-.174-.5s-.122-.33-.185-.492c-.126-.333-.263-.663-.4-.992-.537-1.281-1.141-2.544-1.7-3.8a20.976,20.976,0,0,1-.792-2.011l-.07.1a4.273,4.273,0,0,0-.3.533c0,2.914-2.918,6.48-2.918,6.48l-2.937-4.277-2.57,3.951a3.227,3.227,0,0,0-1.029,1.829c-.081.259-.159.541-.233.841-.052.2-.1.411-.144.622-.026.107-.048.215-.07.326l-.067.337v.052c-.044.23-.089.467-.13.707s-.089.518-.13.781q-.044.256-.078.511c-.052.33-.1.663-.141.992-.026.193-.052.37-.074.574l-.089.741c.189.607.4,1.207.618,1.8a2.984,2.984,0,0,1,.241,1.018,25.3,25.3,0,0,0,13.905,0,.142.142,0,0,1,0-.037,4.411,4.411,0,0,1-.089-1.011h0a27.782,27.782,0,0,1,.37-2.833,10.37,10.37,0,0,0,.07-1.392v-.167C340.585,705.967,340.582,705.834,340.578,705.7Zm0,0a2.559,2.559,0,0,0-.026-.444c-.026-.148-.022-.278-.041-.418s-.033-.281-.052-.422-.044-.281-.07-.422-.052-.281-.081-.422a.638.638,0,0,0-.03-.141c-.041-.185-.085-.37-.133-.559s-.078-.3-.122-.448a.63.63,0,0,0-.059-.2c-.022-.063-.063-.215-.1-.322l-.067-.207c-.03-.093-.059-.185-.093-.278-.056-.167-.115-.33-.174-.5s-.122-.33-.185-.492c-.126-.333-.263-.663-.4-.992-.537-1.281-1.141-2.544-1.7-3.8a20.976,20.976,0,0,1-.792-2.011l-.07.1a4.273,4.273,0,0,0-.3.533c0,2.914-2.918,6.48-2.918,6.48l-2.937-4.277-2.57,3.951a3.227,3.227,0,0,0-1.029,1.829c-.081.259-.159.541-.233.841-.052.2-.1.411-.144.622-.026.107-.048.215-.07.326l-.067.337v.052c-.044.23-.089.467-.13.707s-.089.518-.13.781q-.044.256-.078.511c-.052.33-.1.663-.141.992-.026.193-.052.37-.074.574l-.089.741c.189.607.4,1.207.618,1.8a2.984,2.984,0,0,1,.241,1.018,25.3,25.3,0,0,0,13.905,0,.142.142,0,0,1,0-.037,4.411,4.411,0,0,1-.089-1.011h0a27.782,27.782,0,0,1,.37-2.833,10.37,10.37,0,0,0,.07-1.392v-.167C340.585,705.967,340.582,705.834,340.578,705.7Zm0,0a2.559,2.559,0,0,0-.026-.444c-.026-.148-.022-.278-.041-.418s-.033-.281-.052-.422-.044-.281-.07-.422-.052-.281-.081-.422a.638.638,0,0,0-.03-.141c-.041-.185-.085-.37-.133-.559s-.078-.3-.122-.448a.63.63,0,0,0-.059-.2c-.022-.063-.063-.215-.1-.322l-.067-.207c-.03-.093-.059-.185-.093-.278-.056-.167-.115-.33-.174-.5s-.122-.33-.185-.492c-.126-.333-.263-.663-.4-.992-.537-1.281-1.141-2.544-1.7-3.8a20.976,20.976,0,0,1-.792-2.011l-.07.1a4.273,4.273,0,0,0-.3.533c0,2.914-2.918,6.48-2.918,6.48l-2.937-4.277-2.57,3.951a3.227,3.227,0,0,0-1.029,1.829c-.081.259-.159.541-.233.841-.052.2-.1.411-.144.622-.026.107-.048.215-.07.326l-.067.337v.052c-.044.23-.089.467-.13.707s-.089.518-.13.781q-.044.256-.078.511c-.052.33-.1.663-.141.992-.026.193-.052.37-.074.574l-.089.741c.189.607.4,1.207.618,1.8a2.984,2.984,0,0,1,.241,1.018,25.3,25.3,0,0,0,13.905,0,.142.142,0,0,1,0-.037,4.411,4.411,0,0,1-.089-1.011h0a27.782,27.782,0,0,1,.37-2.833,10.37,10.37,0,0,0,.07-1.392v-.167C340.585,705.967,340.582,705.834,340.578,705.7Zm0,0a2.559,2.559,0,0,0-.026-.444c-.026-.148-.022-.278-.041-.418s-.033-.281-.052-.422-.044-.281-.07-.422-.052-.281-.081-.422a.638.638,0,0,0-.03-.141c-.041-.185-.085-.37-.133-.559s-.078-.3-.122-.448a.63.63,0,0,0-.059-.2c-.022-.063-.063-.215-.1-.322l-.067-.207c-.03-.093-.059-.185-.093-.278-.056-.167-.115-.33-.174-.5s-.122-.33-.185-.492c-.126-.333-.263-.663-.4-.992-.537-1.281-1.141-2.544-1.7-3.8a20.976,20.976,0,0,1-.792-2.011l-.07.1a4.273,4.273,0,0,0-.3.533c0,2.914-2.918,6.48-2.918,6.48l-2.937-4.277-2.57,3.951a3.227,3.227,0,0,0-1.029,1.829c-.081.259-.159.541-.233.841-.052.2-.1.411-.144.622-.026.107-.048.215-.07.326l-.067.337v.052c-.044.23-.089.467-.13.707s-.089.518-.13.781q-.044.256-.078.511c-.052.33-.1.663-.141.992-.026.193-.052.37-.074.574l-.089.741c.189.607.4,1.207.618,1.8a2.984,2.984,0,0,1,.241,1.018,25.3,25.3,0,0,0,13.905,0,.142.142,0,0,1,0-.037,4.411,4.411,0,0,1-.089-1.011h0a27.782,27.782,0,0,1,.37-2.833,10.37,10.37,0,0,0,.07-1.392v-.167C340.585,705.967,340.582,705.834,340.578,705.7Zm0,0a2.559,2.559,0,0,0-.026-.444c-.026-.148-.022-.278-.041-.418s-.033-.281-.052-.422-.044-.281-.07-.422-.052-.281-.081-.422a.638.638,0,0,0-.03-.141c-.041-.185-.085-.37-.133-.559s-.078-.3-.122-.448a.63.63,0,0,0-.059-.2c-.022-.063-.063-.215-.1-.322l-.067-.207c-.03-.093-.059-.185-.093-.278-.056-.167-.115-.33-.174-.5s-.122-.33-.185-.492c-.126-.333-.263-.663-.4-.992-.537-1.281-1.141-2.544-1.7-3.8a20.976,20.976,0,0,1-.792-2.011l-.07.1a4.273,4.273,0,0,0-.3.533c0,2.914-2.918,6.48-2.918,6.48l-2.937-4.277-2.57,3.951a3.227,3.227,0,0,0-1.029,1.829c-.081.259-.159.541-.233.841-.052.2-.1.411-.144.622-.026.107-.048.215-.07.326l-.067.337v.052c-.044.23-.089.467-.13.707s-.089.518-.13.781q-.044.256-.078.511c-.052.33-.1.663-.141.992-.026.193-.052.37-.074.574l-.089.741c.189.607.4,1.207.618,1.8a2.984,2.984,0,0,1,.241,1.018,25.3,25.3,0,0,0,13.905,0,.142.142,0,0,1,0-.037,4.411,4.411,0,0,1-.089-1.011h0a27.782,27.782,0,0,1,.37-2.833,10.37,10.37,0,0,0,.07-1.392v-.167C340.585,705.967,340.582,705.834,340.578,705.7Zm0,0a2.559,2.559,0,0,0-.026-.444c-.026-.148-.022-.278-.041-.418s-.033-.281-.052-.422-.044-.281-.07-.422-.052-.281-.081-.422a.638.638,0,0,0-.03-.141c-.041-.185-.085-.37-.133-.559s-.078-.3-.122-.448a.63.63,0,0,0-.059-.2c-.022-.063-.063-.215-.1-.322l-.067-.207c-.03-.093-.059-.185-.093-.278-.056-.167-.115-.33-.174-.5s-.122-.33-.185-.492c-.126-.333-.263-.663-.4-.992-.537-1.281-1.141-2.544-1.7-3.8a20.976,20.976,0,0,1-.792-2.011l-.07.1a4.273,4.273,0,0,0-.3.533c0,2.914-2.918,6.48-2.918,6.48l-2.937-4.277-2.57,3.951a3.227,3.227,0,0,0-1.029,1.829c-.081.259-.159.541-.233.841-.052.2-.1.411-.144.622-.026.107-.048.215-.07.326l-.067.337v.052c-.044.23-.089.467-.13.707s-.089.518-.13.781q-.044.256-.078.511c-.052.33-.1.663-.141.992-.026.193-.052.37-.074.574l-.089.741c.189.607.4,1.207.618,1.8a2.984,2.984,0,0,1,.241,1.018,25.3,25.3,0,0,0,13.905,0,.142.142,0,0,1,0-.037,4.411,4.411,0,0,1-.089-1.011h0a27.782,27.782,0,0,1,.37-2.833,10.37,10.37,0,0,0,.07-1.392v-.167C340.585,705.967,340.582,705.834,340.578,705.7Z" transform="translate(-308.124 -662.162)" fill="#444176"/>
      <path id="Path_773" data-name="Path 773" d="M317.869,696.381l-.248-.033a9.008,9.008,0,0,1-1.111-.222l-.137-.037c-.9-.255-1.892-.715-2.114-1.522a1.441,1.441,0,0,1,.022-.789,6.765,6.765,0,0,1,.5-1.274v-.022a1.775,1.775,0,0,1,.093-.167,3.7,3.7,0,0,1,1.337-1.455l-.444.07-3.762.611-5.832.941s-1.037-.207-2.448,3.681a.6.6,0,0,1-.048.144c-.341.952-.7,2.141-1.07,3.625-.255,1.03-.489,2.041-.7,3.022-.063.3-.126.589-.185.878a23.515,23.515,0,0,0,2.152,2.222l.122.115a25.271,25.271,0,0,0,4.933,3.492l.07.037a24.406,24.406,0,0,0,3.481,1.541l.315.111c.067-.685.141-1.444.23-2.222a.632.632,0,0,1,.03-.233l.089-.741c.022-.189.048-.37.074-.574.044-.33.089-.663.141-.992q.033-.255.078-.511c.041-.263.085-.526.13-.781s.085-.478.13-.707v-.052l.067-.337c.022-.111.044-.219.07-.326.044-.211.093-.422.144-.622.074-.3.152-.581.233-.841a3.165,3.165,0,0,1,1.029-1.829l2.57-3.951.107-.167.048-.074Z" transform="translate(-295.706 -662.323)" opacity="0.1"/>
      <path id="Path_774" data-name="Path 774" d="M317.21,696.4l-2.729,4.192a3.13,3.13,0,0,0-1.011,1.774c-.085.274-.17.574-.252.889a44.279,44.279,0,0,0-.837,4.847.575.575,0,0,1-.03.222c-.126,1.03-.23,2.04-.315,2.933a24.433,24.433,0,0,1-3.481-1.541l-.07-.037a25.276,25.276,0,0,1-4.933-3.492l-.122-.115a23.533,23.533,0,0,1-2.152-2.222c-.089-.1-.174-.2-.259-.307.041-.193.081-.37.126-.578.211-.981.444-1.989.7-3.014a36.494,36.494,0,0,1,1.259-4.147,1.134,1.134,0,0,1,.048-.119c1.311-3.374,2.255-3.185,2.255-3.185l6.158-.992,3.888-.63-.122.07a3.947,3.947,0,0,0-1.07,1.141l-.107.182c-.044.07-.085.148-.13.226a6.558,6.558,0,0,0-.511,1.3,1.363,1.363,0,0,0,.089,1.059,3.527,3.527,0,0,0,2.285,1.326l.144.037A9.27,9.27,0,0,0,317.21,696.4Z" transform="translate(-295.265 -662.336)" fill="#f1d2d7"/>
      <path id="Path_775" data-name="Path 775" d="M383,702.28l-.152-3.288c.648-5.184-.648-5.507-.648-5.507l-1.541-.741h-.041l-6.2-3-.241-.119-.074-.033h0l-.807-.393h0l-.511-.248-.955-.463-.322-.156v1.285c0,.37.033.8.063,1.307.067,1.266.189,2.962.407,4.962.122,1.159.278,2.426.47,3.785.115.8.2,1.6.248,2.385a41.972,41.972,0,0,1-.244,7.888l.337-.107a25.079,25.079,0,0,0,7.458-4.007l.067-.048a24.7,24.7,0,0,0,2.688-2.44Z" transform="translate(-339.652 -660.73)" opacity="0.1"/>
      <path id="Path_776" data-name="Path 776" d="M383.865,702.248l-.152-3.3c.648-5.184-.648-5.506-.648-5.506l-1.852-.9h-.037l-6.214-3.014-.285-.137-.056-.026-.456-.222-.6-.293-1.192-.578v.526h0v.652c0,.37.033.855.067,1.407.063,1.181.174,2.729.37,4.57.133,1.263.3,2.666.518,4.177q.17,1.211.244,2.4a41.909,41.909,0,0,1-.23,7.776,25.073,25.073,0,0,0,7.458-4.007l.067-.048a24.71,24.71,0,0,0,2.688-2.44q.163-.163.311-.333Z" transform="translate(-340.193 -660.698)" fill="#f1d2d7"/>
      <path id="Path_777" data-name="Path 777" d="M336.059,641.056a9.264,9.264,0,0,1,3.466-.37,11.347,11.347,0,0,1,2.648,1.285,6.855,6.855,0,0,0,2.733.722,1.607,1.607,0,0,0,1-.2,1.556,1.556,0,0,0,.448-1.526,8.759,8.759,0,0,0-2.222-4.162,8.149,8.149,0,0,0-1.392-1.411,7.355,7.355,0,0,0-4.736-1.074,11.866,11.866,0,0,0-5.425,1.392c-1.111.637-3.659,2.644-2.774,4.1C330.738,641.33,334.6,641.3,336.059,641.056Z" transform="translate(-313.277 -626.713)" opacity="0.1"/>
      <path id="Path_778" data-name="Path 778" d="M336.059,640.056a9.266,9.266,0,0,1,3.466-.37,11.347,11.347,0,0,1,2.648,1.285,6.856,6.856,0,0,0,2.733.722,1.607,1.607,0,0,0,1-.2,1.556,1.556,0,0,0,.448-1.526,8.759,8.759,0,0,0-2.222-4.162,8.142,8.142,0,0,0-1.392-1.411,7.355,7.355,0,0,0-4.736-1.074,11.866,11.866,0,0,0-5.425,1.392c-1.111.637-3.659,2.644-2.774,4.1C330.738,640.33,334.6,640.3,336.059,640.056Z" transform="translate(-313.277 -626.083)" fill="#444176"/>
    </g>
    <path id="Path_779" data-name="Path 779" d="M620.055,427.72h.056c.081,2.481.433,4.725,1.111,5.347,1.615,1.481,8.31-1.481,7.851-3.274-.093-.37-.248-.978-.444-1.744,1.807-.226,3.351-.741,3.966-1.8l1.163,3.585.081.255h.089c.767,7.266,2.5,22.352,3.892,24.374,1.852,2.677,3.981,14.279,3.981,14.279l3.981,23.8s1.533,13.7,2.451,15.183a1.722,1.722,0,0,0,1.007.522,14.587,14.587,0,0,1-2.222,4.533c-1.852,2.081-4.288,6.247-6.432,5.951s-2.755,4.166,1.226,4.759a32.9,32.9,0,0,0,8.417-.493c0,1.192.829,2.563,2.914,2.874,3.981.6,12.25-1.189,12.25-1.189s7.036-2.962,7.351-5.058c.222-1.518-.855-7.614-1.455-10.809,1.111-1.781-.074-17.153-.074-17.153l-2.144-29.451s1.226-16.36,0-19.338c-.767-1.852-1.052-10.369-1.159-16.46l1.481.1a2.739,2.739,0,0,0,.23-.322l.37.026a4.92,4.92,0,0,0,.307-5.355c-1.137-2.433-.922-13.416-.741-18.886h0l.219-2.592a.74.74,0,0,0,.181-.281,27.161,27.161,0,0,0,8.269-2.5,8.391,8.391,0,0,0,2.17-1.318c1.533-1.481.611-10.413-2.451-23.8s-5.818-12.2-5.818-12.2-7.351-.6-10.721-5.058-5.632-4.4-5.632-4.4h0c-.085-.585-.144-1.137-.185-1.652,0-.193-.03-.37-.041-.563a9.79,9.79,0,0,0,2.548-3.862,19.138,19.138,0,0,0,2.2-.959,2.614,2.614,0,0,0,.456-.422,3.744,3.744,0,0,0,1.181-2.329,9.524,9.524,0,0,0-.137-2.922,7.08,7.08,0,0,0-4.673-6.414q-4.859-2.551-9.743-5.051a5.377,5.377,0,0,0-2.085-.741c-1.3-.074-2.474.818-3.525,1.666a15.062,15.062,0,0,0-1.2,1.055,6.758,6.758,0,0,0-.885.952,9.127,9.127,0,0,0-1.211,6.81.933.933,0,0,0,.989.833,9.547,9.547,0,0,0-1.018,4.3,9.739,9.739,0,0,0,4.521,8.18c0,.207,0,.411.019.607a21.732,21.732,0,0,1-.074,2.277s-8.147,4.4-9.062,6.484-4.288,3.57-4.288,3.57-6.432,3.274-6.432,14.875l-3.37,16.36-.611,31.236s.422-.37,1.111-.9c-.022.207-.041.422-.059.641a35.249,35.249,0,0,0-.093,3.588ZM661.2,508.563c-.126.478-.311,1.111-.544,1.852-.1-.615-.207-1.222-.311-1.8C660.608,508.589,660.893,508.574,661.2,508.563Z" transform="translate(-405.862 -213.424)" fill="url(#linear-gradient-4)"/>
    <path id="Path_780" data-name="Path 780" d="M684.371,809.005s-1.181,5.31-2.962,7.373-4.114,6.2-6.173,5.9-2.655,4.129,1.181,4.718,11.78-1.178,11.78-1.178,6.784-2.963,7.077-5.014-1.77-12.683-1.77-12.683Z" transform="translate(-440.161 -517.702)" fill="#53526b"/>
    <path id="Path_781" data-name="Path 781" d="M684.371,809.005s-1.181,5.31-2.962,7.373-4.114,6.2-6.173,5.9-2.655,4.129,1.181,4.718,11.78-1.178,11.78-1.178,6.784-2.963,7.077-5.014-1.77-12.683-1.77-12.683Z" transform="translate(-440.161 -517.702)" opacity="0.05"/>
    <path id="Path_782" data-name="Path 782" d="M713.831,815.369s-1.181,5.31-2.962,7.373-4.125,6.2-6.181,5.9-2.655,4.129,1.181,4.718,11.8-1.181,11.8-1.181,6.784-2.963,7.077-5.014-1.77-12.683-1.77-12.683Z" transform="translate(-458.708 -521.707)" fill="#53526b"/>
    <path id="Path_783" data-name="Path 783" d="M659.66,598.67s2.359,25.363,4.129,28.018,3.833,14.157,3.833,14.157l3.833,23.593s1.481,13.568,2.359,15.042,11.824.841,11.824.841l-6.806-78.114Z" transform="translate(-431.377 -385.814)" fill="#5f5d7e"/>
    <path id="Path_784" data-name="Path 784" d="M659.66,598.67s2.359,25.363,4.129,28.018,3.833,14.157,3.833,14.157l3.833,23.593s1.481,13.568,2.359,15.042,11.824.841,11.824.841l-6.806-78.114Z" transform="translate(-431.377 -385.814)" opacity="0.05"/>
    <path id="Path_785" data-name="Path 785" d="M646.92,566l.77,2.448,4.166,13.224.081.252h.022c.559.126,12.365,2.84,14.913,3.673a3.63,3.63,0,0,1,.4.152c1.181.589,2.655,21.823,2.655,21.823s.885,20.056,1.481,21.53,2.963,31.847,4.425,30.966,12.091,0,12.091,0c1.181-1.181,0-17.1,0-17.1l-2.1-29.192s1.181-16.22,0-19.171-1.181-22.708-1.181-22.708l-24.141-3.773-2.333-.37Z" transform="translate(-423.355 -365.242)" fill="#5f5d7e"/>
    <path id="Path_786" data-name="Path 786" d="M649,571.2l4.166,13.224.1.259c.559.126,12.365,2.84,14.913,3.674h.256l-6.6-17.486-.189-.5-2.144.137Z" transform="translate(-424.664 -367.994)" opacity="0.02"/>
    <path id="Path_787" data-name="Path 787" d="M677.74,406.73s-10.913,11.8-17.7,2.063l-6.488,4.425L654.736,420,650.9,471.316s10.028-.3,17.1,2.063a10.976,10.976,0,0,0,11.5-2.655L678.34,425.6,681,411.744Z" transform="translate(-425.861 -264.952)" opacity="0.1"/>
    <path id="Path_788" data-name="Path 788" d="M677.74,404.34s-10.913,11.8-17.7,2.063l-6.488,4.425,1.181,6.784L650.9,468.926s10.028-.3,17.1,2.063a10.976,10.976,0,0,0,11.5-2.655l-1.167-45.119L681,409.354Z" transform="translate(-425.861 -263.447)" fill="#53526b"/>
    <g id="TESLA" transform="translate(226.654 192.218)">
      <g id="g8">
        <path id="polyline10" d="M615.645,522.36v1.859h-.592v-1.237h-2.166v1.237h-.6v-1.855l3.355,0" transform="translate(-612.205 -521.145)" fill="#e82127"/>
        <path id="path12" d="M658.171,543.555h-2.289a.844.844,0,0,1-.622-.615h3.529a.848.848,0,0,1-.622.615" transform="translate(-655.26 -542.94)" fill="#e82127"/>
      </g>
      <g id="g30" transform="translate(19.745 0.022)">
        <path id="path32" d="M712.439,543a.856.856,0,0,1-.618.611h-.963l-.048.018v2.429h-.593V543.63l-.056-.018H709.2a.866.866,0,0,1-.618-.611h3.859" transform="translate(-708.58 -543)" fill="#e82127"/>
      </g>
    </g>
    <path id="Path_789" data-name="Path 789" d="M638.481,569.2s0,7.669-1.77,10.913-12.091,1.481-12.091,1.481l2.063-10.913Z" transform="translate(-409.313 -367.257)" fill="#d6dbe6"/>
    <path id="Path_790" data-name="Path 790" d="M625.805,593.539c1.555,1.481,8-1.481,7.558-3.244-.311-1.248-1.4-5.714-2.018-8.247l-.43-1.781s-3.777-1.181-5.11,0c-.485.43-.826,2.122-.985,4.166C624.546,587.985,624.824,592.6,625.805,593.539Z" transform="translate(-409.376 -373.895)" fill="#fdc2cc"/>
    <path id="Path_791" data-name="Path 791" d="M666,384.629l10.321,7.962s15.335-.885,11.5-8.258a27.492,27.492,0,0,1-2.962-10.421,21.778,21.778,0,0,1,0-4.033s-14.157-12.961-12.387,1.77a33.418,33.418,0,0,1,.244,3.407C672.929,386.114,666,384.629,666,384.629Z" transform="translate(-435.369 -238.429)" fill="#fdc2cc"/>
    <path id="Path_792" data-name="Path 792" d="M683.3,371.648a33.436,33.436,0,0,1,.244,3.407,9.665,9.665,0,0,0,5.358,1.607c2.64,0,4.584-2.57,6.34-4.277-.2-2.448.441-2.507.441-2.507S681.529,356.9,683.3,371.648Z" transform="translate(-446.166 -238.424)" opacity="0.1"/>
    <circle id="Ellipse_33" data-name="Ellipse 33" cx="9.732" cy="9.732" r="9.732" transform="translate(233.005 118.185)" fill="#fdc2cc"/>
    <path id="Path_793" data-name="Path 793" d="M703.915,394.38s1.622.148,4.866,4.57,10.321,5.014,10.321,5.014,2.655-1.181,5.6,12.091,3.833,22.119,2.359,23.593-7.373,3.544-10.336,3.544c0,0-.885,18.579.589,21.823a5.027,5.027,0,0,1-.3,5.31l-12.961-.885s-4.425-5.6-5.31-15.335-3.833-37.457-2.359-40.7,7.962-11.5,7.669-12.387S703.915,394.38,703.915,394.38Z" transform="translate(-454.25 -257.175)" opacity="0.1"/>
    <path id="Path_794" data-name="Path 794" d="M704.963,394.14s2.181-.059,5.425,4.366S720.7,403.52,720.7,403.52s2.655-1.181,5.6,12.091,3.833,22.119,2.359,23.593-7.373,3.54-10.321,3.54c0,0-.885,18.579.589,21.823a5.027,5.027,0,0,1-.3,5.31l-12.961-.885s-4.425-5.6-5.31-15.335S696.527,416.2,698,412.974s7.962-11.5,7.669-12.387S704.963,394.14,704.963,394.14Z" transform="translate(-455.265 -257.024)" fill="#d6dbe6"/>
    <path id="Path_795" data-name="Path 795" d="M625,584.423c1.411-1.078,4.073-2.755,6.525-2.385l-.43-1.781s-3.777-1.181-5.11,0C625.493,580.687,625.156,582.375,625,584.423Z" transform="translate(-409.552 -373.889)" opacity="0.1"/>
    <path id="Path_796" data-name="Path 796" d="M646.641,399.16s-7.521,4.866-8.406,6.932-4.129,3.54-4.129,3.54-6.192,3.244-6.192,14.746L624.67,440.6l14.746,20.645s1.77-20.645,2.655-25.659,2.063-14.442,2.063-14.442,4.425-5.6,3.833-7.077S646.641,399.16,646.641,399.16Z" transform="translate(-409.344 -260.185)" opacity="0.1"/>
    <path id="Path_797" data-name="Path 797" d="M645.1,398.92s-7.843,4.366-8.725,6.429-4.129,3.54-4.129,3.54-6.192,3.244-6.192,14.746l-3.244,16.22-.589,30.966s5.31-5.014,9.143-2.655,6.192-7.669,6.192-7.669,1.77-20.645,2.655-25.659,2.063-14.442,2.063-14.442,4.425-5.6,3.833-7.077S645.1,398.92,645.1,398.92Z" transform="translate(-407.801 -260.034)" fill="#d6dbe6"/>
    <path id="Path_798" data-name="Path 798" d="M673.3,331.63a9.628,9.628,0,0,1,1.718-1.7c1.015-.844,2.137-1.726,3.4-1.652a5.081,5.081,0,0,1,2.007.718q4.7,2.477,9.38,5.007a8.723,8.723,0,0,1,3.144,2.4,9.251,9.251,0,0,1,1.355,3.962,9.714,9.714,0,0,1,.133,2.9,3.633,3.633,0,0,1-1.281,2.433c-.841.611-1.992.615-2.7,1.415a7.883,7.883,0,0,0-.874,1.674c-.289.563-.789,1.111-1.359,1.011a1.427,1.427,0,0,1-1-1.315,7.981,7.981,0,0,1,.107-1.852,4.384,4.384,0,0,0-.674-3.114c-.444-.563-1.081-.9-1.511-1.481-1.029-1.392-.559-3.7-1.689-5.01a2.677,2.677,0,0,0-2.592-.741,11.083,11.083,0,0,0-2.592,1.111,19.252,19.252,0,0,1-3.551,1.37c-1.029.281-2.222.955-2.574-.415A9.13,9.13,0,0,1,673.3,331.63Z" transform="translate(-439.109 -215.552)" opacity="0.1"/>
    <path id="Path_799" data-name="Path 799" d="M674.1,330.84a9.627,9.627,0,0,1,1.718-1.7c1.015-.844,2.137-1.726,3.4-1.652a5.081,5.081,0,0,1,2.007.718c3.133,1.652,5.736.089,9.38,5.007.778,1.052,2.34,1.281,3.144,2.4a9.251,9.251,0,0,1,1.355,3.962,9.712,9.712,0,0,1,.133,2.9,3.633,3.633,0,0,1-1.281,2.433c-.841.611-1.992.615-2.7,1.415a7.879,7.879,0,0,0-.874,1.674c-.289.563-.789,1.111-1.359,1.011a1.427,1.427,0,0,1-1-1.315,7.978,7.978,0,0,1,.107-1.852,4.384,4.384,0,0,0-.674-3.114c-.444-.563-1.081-.9-1.511-1.481-1.029-1.392-.559-3.7-1.689-5.01a2.677,2.677,0,0,0-2.592-.741,11.079,11.079,0,0,0-2.592,1.111,19.252,19.252,0,0,1-3.551,1.37c-1.029.281-2.222.955-2.574-.415A9.11,9.11,0,0,1,674.1,330.84Z" transform="translate(-439.61 -215.054)" fill="#865a61"/>
    <path id="Path_800" data-name="Path 800" d="M738.837,458.09s3.933,10.028.981,14.157l-6.488-1.481s5.9,1.77,5.014-1.77S738.837,458.09,738.837,458.09Z" transform="translate(-477.766 -297.293)" opacity="0.1"/>
    <path id="Path_801" data-name="Path 801" d="M735.443,522.991s-8.554.589-10.913-1.181a22.589,22.589,0,0,0,10.647,4.425Z" transform="translate(-472.225 -337.416)" opacity="0.1"/>
    <path id="Path_802" data-name="Path 802" d="M647.445,474s-4.425,13.568-4.129,15.631.885,24.774.885,24.774l.885-.3-.3-24.774Z" transform="translate(-421.076 -307.311)" opacity="0.1"/>
    <path id="Path_803" data-name="Path 803" d="M403.317,226.574l-101.1-81.469a6.325,6.325,0,0,0-4.481-1.852h-4.3a54.806,54.806,0,1,0-9.491,9.491v4.292a6.325,6.325,0,0,0,1.852,4.481l101.1,81.469a6.3,6.3,0,0,0,8.939,0l7.451-7.443A6.358,6.358,0,0,0,403.317,226.574ZM250.2,143.254a13.98,13.98,0,1,1,0,.007Z" transform="translate(-139.058 -43.302)" fill="url(#linear-gradient-5)"/>
    <path id="Path_804" data-name="Path 804" d="M405.317,224.574l-101.1-81.469a6.325,6.325,0,0,0-4.481-1.852h-4.3a54.806,54.806,0,1,0-9.491,9.491v4.292a6.325,6.325,0,0,0,1.852,4.481l101.1,81.469a6.3,6.3,0,0,0,8.939,0l7.451-7.443a6.358,6.358,0,0,0,.026-8.969ZM252.2,141.254a13.98,13.98,0,1,1,0,.007Z" transform="translate(-140.317 -42.043)" fill="#f7be52"/>
    <path id="Path_805" data-name="Path 805" d="M716.6,480.768s-14.757-16.923-12.683-5.31c1.481,8.258,7.077,12.683,9.732,13.568S716.6,480.768,716.6,480.768Z" transform="translate(-459.121 -305.665)" fill="#fdc2cc"/>
    <path id="Path_806" data-name="Path 806" d="M731.522,454.51s.3,10.913,1.77,12.387-.885,3.244-.885,3.244l-5.9-1.481s1.481,9.732-4.718,8.554c0,0,4.129,3.833,8.258,4.425s3.833-.885,3.833-.885l6.192-7.373Z" transform="translate(-470.499 -295.038)" fill="#d6dbe6"/>
    <path id="Path_807" data-name="Path 807" d="M703.613,492.5l5.984-1.315-.8-2.759-3.7-1.481-4.814,2.222Z" transform="translate(-440.957 -306.63)" fill="#d6dbe6"/>
    <path id="Path_808" data-name="Path 808" d="M280.78,156.99a25.063,25.063,0,0,0,5.029,15.1c.33.441.674.867,1.033,1.285.193.226.393.448.6.667q.152.17.311.333a24.7,24.7,0,0,0,2.688,2.44l.067.048a25.073,25.073,0,0,0,7.458,4.007l.337.107c.207.07.422.133.633.193l.085.026c.107.03.215.063.326.089a25.074,25.074,0,0,0,6.6.878c.37,0,.759,0,1.137-.026a24.9,24.9,0,0,0,5.84-.955h.037c.352-.1.7-.211,1.044-.33h.037l.315-.111a24.414,24.414,0,0,0,3.481-1.54l.07-.037c.122-.067.244-.133.37-.2a25.118,25.118,0,0,0,4.57-3.288l.122-.115a23.535,23.535,0,0,0,2.151-2.222l.078-.093c.063-.07.122-.141.181-.215.163-.193.318-.393.474-.593A25.181,25.181,0,1,0,280.78,156.99Z" transform="translate(-192.801 -91.841)" fill="#c0bccf"/>
    <path id="Path_809" data-name="Path 809" d="M298.082,174.645s5.462-.463,7.965-3.936c2.44-3.381,4.1-3.422,4.181-3.422h0c.063-.452.107-.881.137-1.281v-.056a.741.741,0,0,1-.344.152c-.489.074-.918-.389-1.163-.881a6.876,6.876,0,0,0-.741-1.459c-.6-.7-1.592-.7-2.311-1.229a3.177,3.177,0,0,1-1.111-2.118,5.831,5.831,0,0,1-.044-.926,10.25,10.25,0,0,1,.156-1.974,8.131,8.131,0,0,1,1.163-3.448c.685-.967,2.026-1.174,2.692-2.089,3.122-4.281,5.347-2.922,8.032-4.359a4.3,4.3,0,0,1,1.718-.626,4.493,4.493,0,0,1,2.907,1.441,8.3,8.3,0,0,1,1.481,1.481,8.037,8.037,0,0,1,1.17,4.5,6.734,6.734,0,0,1-.17,1.759c-.215.852-.8.8-1.433.6a7.7,7.7,0,0,1-2.614,9.658v.389a.666.666,0,0,0,0,.085,17.527,17.527,0,0,0,.059,1.77c.063.033,6.051,3.429,6.729,5.04s3.188,2.777,3.188,2.777,2.759,1.481,4.073,6.132l-.078.093a23.75,23.75,0,0,1-2.152,2.266l-.122.118a25.133,25.133,0,0,1-4.57,3.333c-.118.07-.241.141-.37.207l-.07.037a24.211,24.211,0,0,1-3.481,1.566l-.315.115h-.037c-.344.122-.692.23-1.044.333h-.037a24.521,24.521,0,0,1-5.84.97c-.37.019-.741.026-1.137.026a24.682,24.682,0,0,1-6.584-.855c-.111-.026-.218-.059-.326-.089l-.085-.026c-.211-.059-.426-.126-.633-.2l-.337-.107a24.967,24.967,0,0,1-7.469-4.077l-.067-.048a24.861,24.861,0,0,1-2.688-2.481q-.159-.163-.311-.341c-.2-.222-.4-.448-.6-.678-.37-.426-.7-.859-1.033-1.307C296.4,173.882,298.082,174.645,298.082,174.645Z" transform="translate(-201.39 -101.397)" fill="url(#linear-gradient-6)"/>
    <path id="Path_810" data-name="Path 810" d="M339.424,201.69l7.965-6.143s-5.336,1.144-5.184-7.384a.661.661,0,0,1,0-.085,21.822,21.822,0,0,1,.185-2.544c1.366-11.38-9.558-1.366-9.558-1.366a16.3,16.3,0,0,1,0,3.029v.081a21.159,21.159,0,0,1-2.274,8.039C327.592,201,339.424,201.69,339.424,201.69Z" transform="translate(-223.845 -122.243)" fill="#fdc2cc"/>
    <path id="Path_811" data-name="Path 811" d="M338.516,185.615c1.352,1.315,2.177,3.7,4.21,3.7a7.462,7.462,0,0,0,4.136-1.241,21.821,21.821,0,0,1,.185-2.544c1.366-11.38-9.558-1.366-9.558-1.366S338.66,183.763,338.516,185.615Z" transform="translate(-228.511 -122.243)" opacity="0.1"/>
    <circle id="Ellipse_34" data-name="Ellipse 34" cx="7.51" cy="7.51" r="7.51" transform="translate(106.706 51.685)" fill="#fdc2cc"/>
    <path id="Path_812" data-name="Path 812" d="M340.212,152.869a8.239,8.239,0,0,0-1.481-1.452A4.491,4.491,0,0,0,335.824,150a4.351,4.351,0,0,0-1.718.615c-2.685,1.415-4.91.078-8.032,4.285-.667.9-2,1.111-2.692,2.055a7.877,7.877,0,0,0-1.163,3.392,8.315,8.315,0,0,0-.115,2.481,3.107,3.107,0,0,0,1.111,2.081c.718.522,1.707.526,2.311,1.211a6.719,6.719,0,0,1,.741,1.433c.244.481.674.937,1.163.867a1.2,1.2,0,0,0,.852-1.111,6.828,6.828,0,0,0-.093-1.581,3.783,3.783,0,0,1,.578-2.666c.37-.485.926-.774,1.292-1.266.881-1.189.481-3.185,1.448-4.288a2.292,2.292,0,0,1,2.222-.618,9.469,9.469,0,0,1,2.222.955,16.486,16.486,0,0,0,3.04,1.174c.881.241,1.9.818,2.2-.37A7.826,7.826,0,0,0,340.212,152.869Z" transform="translate(-218.794 -103.292)" opacity="0.1"/>
    <path id="Path_813" data-name="Path 813" d="M340.212,151.869a8.239,8.239,0,0,0-1.481-1.452A4.491,4.491,0,0,0,335.824,149a4.351,4.351,0,0,0-1.718.615c-2.685,1.415-4.91.078-8.032,4.285-.667.9-2,1.111-2.692,2.055a7.877,7.877,0,0,0-1.163,3.392,8.315,8.315,0,0,0-.115,2.481,3.107,3.107,0,0,0,1.111,2.081c.718.522,1.707.526,2.311,1.211a6.719,6.719,0,0,1,.741,1.433c.244.481.674.937,1.163.867a1.2,1.2,0,0,0,.852-1.111,6.828,6.828,0,0,0-.093-1.581,3.783,3.783,0,0,1,.578-2.666c.37-.485.926-.774,1.292-1.266.881-1.189.481-3.185,1.448-4.288a2.292,2.292,0,0,1,2.222-.618,9.469,9.469,0,0,1,2.222.955,16.486,16.486,0,0,0,3.04,1.174c.881.241,1.9.818,2.2-.37A7.826,7.826,0,0,0,340.212,151.869Z" transform="translate(-218.794 -102.662)" fill="#865a61"/>
    <path id="Path_814" data-name="Path 814" d="M327.887,224.321l-.148,5.684a25.073,25.073,0,0,0,6.6.878c.37,0,.759,0,1.137-.026a24.9,24.9,0,0,0,5.84-.955h.037c.352-.1.7-.211,1.044-.33h.037l.315-.111a24.413,24.413,0,0,0,3.481-1.54l.07-.037c.122-.067.244-.133.37-.2l-.574-7.662.915-5.255-5.007-3.411a8.813,8.813,0,0,1-.941,1.141,6.3,6.3,0,0,1-1.711,1.266c-3.592,1.77-7.68-1.044-9.713-2.785l-.463-.411c-.526-.478-.826-.8-.826-.8l-2.5,3.866Z" transform="translate(-221.181 -140.922)" opacity="0.1"/>
    <path id="Path_815" data-name="Path 815" d="M327.887,225.321l-.148,5.684a25.073,25.073,0,0,0,6.6.878c.37,0,.759,0,1.137-.026a24.9,24.9,0,0,0,5.84-.955h.037c.352-.1.7-.211,1.044-.33h.037l.315-.111a24.411,24.411,0,0,0,3.481-1.54l.07-.037c.122-.067.244-.133.37-.2l-.574-7.662.915-5.255-5.007-3.411a8.816,8.816,0,0,1-.941,1.141,6.3,6.3,0,0,1-1.711,1.266c-3.592,1.77-7.68-1.044-9.713-2.785l-.463-.411c-.526-.478-.826-.8-.826-.8l-2.5,3.866Z" transform="translate(-221.181 -141.552)" fill="#53526b"/>
    <path id="Path_816" data-name="Path 816" d="M294.36,216.835c.33.441.674.867,1.033,1.285.193.226.393.448.6.667q.152.17.311.333a24.709,24.709,0,0,0,2.688,2.44l.067.048a25.074,25.074,0,0,0,7.458,4.007l.337.107c.207.07.422.133.633.193l.085.026c.107.03.215.063.326.089a25.073,25.073,0,0,0,6.6.878c.37,0,.759,0,1.137-.026.289-4.725.37-8.517-.081-9.491a15.278,15.278,0,0,0-.915-1.637c-1.829-2.94-5.184-7.362-5-7.921a5.8,5.8,0,0,0,.152-.833c.2-1.459.393-4.129.393-4.129h0c-.081,0-1.741.041-4.181,3.366-2.5,3.414-7.965,3.87-7.965,3.87S296.363,209.365,294.36,216.835Z" transform="translate(-201.352 -136.584)" fill="#555388"/>
    <path id="Path_817" data-name="Path 817" d="M363.755,223.176s.274,2.181.633,4.788h.037l.315-.111a24.412,24.412,0,0,0,3.481-1.54l.07-.037c.122-.067.244-.133.37-.2a25.119,25.119,0,0,0,4.57-3.288l.122-.115a23.529,23.529,0,0,0,2.151-2.222l.078-.093c-1.322-4.588-4.073-6.032-4.073-6.032s-2.5-1.141-3.188-2.733-6.732-4.958-6.732-4.958v.026c0,.285-.1,2.9-.241,5.521-.093,1.707-.207,3.422-.341,4.51a5.27,5.27,0,0,1-.193,1.044C360.344,218.854,363.755,223.176,363.755,223.176Z" transform="translate(-243.17 -138.952)" fill="#555388"/>
  </g>
</svg>
