<svg xmlns="http://www.w3.org/2000/svg" width="263.974" height="305.434" viewBox="0 0 263.974 305.434">
  <g id="memphis" transform="translate(-831.486 -296)">
    <circle id="Ellipse_2" data-name="Ellipse 2" cx="7.61" cy="7.61" r="7.61" transform="translate(831.486 296)" fill="#f7be52"/>
    <circle id="Ellipse_3" data-name="Ellipse 3" cx="7.61" cy="7.61" r="7.61" transform="translate(872.944 296)" fill="#f7be52"/>
    <circle id="Ellipse_4" data-name="Ellipse 4" cx="7.61" cy="7.61" r="7.61" transform="translate(914.404 296)" fill="#f7be52"/>
    <circle id="Ellipse_5" data-name="Ellipse 5" cx="7.61" cy="7.61" r="7.61" transform="translate(955.864 296)" fill="#f7be52"/>
    <circle id="Ellipse_6" data-name="Ellipse 6" cx="7.61" cy="7.61" r="7.61" transform="translate(997.322 296)" fill="#f7be52"/>
    
    <circle id="Ellipse_9" data-name="Ellipse 9" cx="7.61" cy="7.61" r="7.61" transform="translate(831.486 337.46)" fill="#f7be52"/>
    <circle id="Ellipse_10" data-name="Ellipse 10" cx="7.61" cy="7.61" r="7.61" transform="translate(872.944 337.46)" fill="#f7be52"/>
    <circle id="Ellipse_11" data-name="Ellipse 11" cx="7.61" cy="7.61" r="7.61" transform="translate(914.404 337.46)" fill="#f7be52"/>
    <circle id="Ellipse_12" data-name="Ellipse 12" cx="7.61" cy="7.61" r="7.61" transform="translate(955.864 337.46)" fill="#f7be52"/>
    <circle id="Ellipse_13" data-name="Ellipse 13" cx="7.61" cy="7.61" r="7.61" transform="translate(997.322 337.46)" fill="#f7be52"/>
    
    <circle id="Ellipse_16" data-name="Ellipse 16" cx="7.61" cy="7.61" r="7.61" transform="translate(831.486 378.918)" fill="#f7be52"/>
    <circle id="Ellipse_17" data-name="Ellipse 17" cx="7.61" cy="7.61" r="7.61" transform="translate(872.944 378.918)" fill="#f7be52"/>
    <circle id="Ellipse_18" data-name="Ellipse 18" cx="7.61" cy="7.61" r="7.61" transform="translate(914.404 378.918)" fill="#f7be52"/>
    <circle id="Ellipse_19" data-name="Ellipse 19" cx="7.61" cy="7.61" r="7.61" transform="translate(955.864 378.918)" fill="#f7be52"/>
    <circle id="Ellipse_20" data-name="Ellipse 20" cx="7.61" cy="7.61" r="7.61" transform="translate(997.322 378.918)" fill="#f7be52"/>
    
    <circle id="Ellipse_23" data-name="Ellipse 23" cx="7.61" cy="7.61" r="7.61" transform="translate(831.486 420.378)" fill="#f7be52"/>
    <circle id="Ellipse_24" data-name="Ellipse 24" cx="7.61" cy="7.61" r="7.61" transform="translate(872.944 420.378)" fill="#f7be52"/>
    <circle id="Ellipse_25" data-name="Ellipse 25" cx="7.61" cy="7.61" r="7.61" transform="translate(914.404 420.378)" fill="#f7be52"/>
    <circle id="Ellipse_26" data-name="Ellipse 26" cx="7.61" cy="7.61" r="7.61" transform="translate(955.864 420.378)" fill="#f7be52"/>
    <circle id="Ellipse_27" data-name="Ellipse 27" cx="7.61" cy="7.61" r="7.61" transform="translate(997.322 420.378)" fill="#f7be52"/>
    
    <circle id="Ellipse_30" data-name="Ellipse 30" cx="7.61" cy="7.61" r="7.61" transform="translate(831.486 461.836)" fill="#f7be52"/>
    <circle id="Ellipse_31" data-name="Ellipse 31" cx="7.61" cy="7.61" r="7.61" transform="translate(872.944 461.836)" fill="#f7be52"/>
    <circle id="Ellipse_32" data-name="Ellipse 32" cx="7.61" cy="7.61" r="7.61" transform="translate(914.404 461.836)" fill="#f7be52"/>
    <circle id="Ellipse_33" data-name="Ellipse 33" cx="7.61" cy="7.61" r="7.61" transform="translate(955.864 461.836)" fill="#f7be52"/>
    <circle id="Ellipse_34" data-name="Ellipse 34" cx="7.61" cy="7.61" r="7.61" transform="translate(997.322 461.836)" fill="#f7be52"/>
    
    <circle id="Ellipse_37" data-name="Ellipse 37" cx="7.61" cy="7.61" r="7.61" transform="translate(831.486 503.296)" fill="#f7be52"/>
    <circle id="Ellipse_38" data-name="Ellipse 38" cx="7.61" cy="7.61" r="7.61" transform="translate(872.944 503.296)" fill="#f7be52"/>
    <circle id="Ellipse_39" data-name="Ellipse 39" cx="7.61" cy="7.61" r="7.61" transform="translate(914.404 503.296)" fill="#f7be52"/>
    <circle id="Ellipse_40" data-name="Ellipse 40" cx="7.61" cy="7.61" r="7.61" transform="translate(955.864 503.296)" fill="#f7be52"/>
    <circle id="Ellipse_41" data-name="Ellipse 41" cx="7.61" cy="7.61" r="7.61" transform="translate(997.322 503.296)" fill="#f7be52"/>
    
    <circle id="Ellipse_44" data-name="Ellipse 44" cx="7.61" cy="7.61" r="7.61" transform="translate(831.486 544.756)" fill="#f7be52"/>
    <circle id="Ellipse_45" data-name="Ellipse 45" cx="7.61" cy="7.61" r="7.61" transform="translate(872.944 544.756)" fill="#f7be52"/>
    <circle id="Ellipse_46" data-name="Ellipse 46" cx="7.61" cy="7.61" r="7.61" transform="translate(914.404 544.756)" fill="#f7be52"/>
    <circle id="Ellipse_47" data-name="Ellipse 47" cx="7.61" cy="7.61" r="7.61" transform="translate(955.864 544.756)" fill="#f7be52"/>
    <circle id="Ellipse_48" data-name="Ellipse 48" cx="7.61" cy="7.61" r="7.61" transform="translate(997.322 544.756)" fill="#f7be52"/>
    
    <circle id="Ellipse_51" data-name="Ellipse 51" cx="7.61" cy="7.61" r="7.61" transform="translate(831.486 586.213)" fill="#f7be52"/>
    <circle id="Ellipse_52" data-name="Ellipse 52" cx="7.61" cy="7.61" r="7.61" transform="translate(872.944 586.213)" fill="#f7be52"/>
    <circle id="Ellipse_53" data-name="Ellipse 53" cx="7.61" cy="7.61" r="7.61" transform="translate(914.404 586.213)" fill="#f7be52"/>
    <circle id="Ellipse_54" data-name="Ellipse 54" cx="7.61" cy="7.61" r="7.61" transform="translate(955.864 586.213)" fill="#f7be52"/>
    <circle id="Ellipse_55" data-name="Ellipse 55" cx="7.61" cy="7.61" r="7.61" transform="translate(997.322 586.213)" fill="#f7be52"/>
    </g>
</svg>
