<svg xmlns="http://www.w3.org/2000/svg" width="137.403" height="137.402" viewBox="0 0 137.403 137.402">
  <g id="online-support" transform="translate(0 0)">
    <path id="Path_639" data-name="Path 639" d="M245.055,105.687h-77.3c-1.889,0-3.42-2.231-3.42-4.984V14.984c0-2.752,1.531-4.984,3.42-4.984h77.3c1.889,0,3.42,2.231,3.42,4.984V100.7C248.475,103.456,246.944,105.687,245.055,105.687Z" transform="translate(-113.565 -7.508)" fill="#c8f5ff"/>
    <path id="Path_640" data-name="Path 640" d="M159.021,127.741H59.47A5.244,5.244,0,0,1,54,122.757V58.948a5.244,5.244,0,0,1,5.47-4.984h99.551a5.244,5.244,0,0,1,5.47,4.984v63.809A5.244,5.244,0,0,1,159.021,127.741Z" transform="translate(-40.544 -40.517)" fill="#fff"/>
    <path id="Path_641" data-name="Path 641" d="M173.488,272.131c0-4.4-3.442-6.908-8.509-7.976l-10.766-2.7a13.767,13.767,0,0,1-1.721-.688,13.767,13.767,0,0,1-1.721.688l-10.363,3.512c-5.066,1.068-8.908,2.757-8.908,7.162v5.9a4.984,4.984,0,0,0,4.984,4.984h37Z" transform="translate(-94.973 -192.48)" fill="#ff5a5a"/>
    <path id="Path_642" data-name="Path 642" d="M170.865,242.8c-2.52-.844-4.2-1.887-4.2-4.215V235.66l-6.544-.071v4.928c0,3.667-2.56,5.375-6.445,6.726l6.153,3,13.911-6.792Z" transform="translate(-111.886 -177.275)" fill="#ffcdac"/>
    <g id="Group_184" data-name="Group 184" transform="translate(24.169 37.704)">
      <path id="Path_643" data-name="Path 643" d="M239.637,151.877h1.744a6.23,6.23,0,0,0,6.23-6.23h0a6.23,6.23,0,0,0-6.23-6.23h-1.744Z" transform="translate(-201.493 -139.418)" fill="#ff5a5a"/>
      <path id="Path_644" data-name="Path 644" d="M94.534,139.418H92.79a6.23,6.23,0,0,0-6.23,6.23h0a6.23,6.23,0,0,0,6.23,6.23h1.744Z" transform="translate(-86.56 -139.418)" fill="#ff5a5a"/>
    </g>
    <path id="Path_645" data-name="Path 645" d="M181.419,97.893V85.8a15.008,15.008,0,0,0-9.555-13.981A15.008,15.008,0,0,0,162.309,85.8V97.893a15.008,15.008,0,0,0,9.555,13.981A15.007,15.007,0,0,0,181.419,97.893Z" transform="translate(-118.203 -53.922)" fill="#ffcdac"/>
    <rect id="Rectangle_45" data-name="Rectangle 45" width="15.773" height="16.945" transform="translate(67.678 107.999)" fill="#78d2fa"/>
    <path id="Path_646" data-name="Path 646" d="M244.431,462H233.3a9.968,9.968,0,0,0-9.967,9.967H254.4A9.968,9.968,0,0,0,244.431,462Z" transform="translate(-162.02 -337.057)" fill="#78d2fa"/>
    <path id="Path_647" data-name="Path 647" d="M319.887,86.726v20.433a7.536,7.536,0,0,0,.094,1.184h2.426v4.411a7.477,7.477,0,0,0,1.878,1.218l5.629-5.629h16.913a7.476,7.476,0,0,0,7.476-7.476V80.434a7.533,7.533,0,0,0-.094-1.184H327.363A7.475,7.475,0,0,0,319.887,86.726Z" transform="translate(-230.356 -57.414)" fill="#f5c86e"/>
    <path id="Path_648" data-name="Path 648" d="M129.352,0H8.051A8.06,8.06,0,0,0,0,8.051v92.317a8.06,8.06,0,0,0,8.051,8.051H50.728v13.5a13.442,13.442,0,0,0-9.4,12.8,2.684,2.684,0,0,0,2.684,2.684H93.391a2.684,2.684,0,0,0,2.684-2.684,13.441,13.441,0,0,0-9.4-12.8v-13.5h8.864a2.684,2.684,0,1,0,0-5.367H8.051a2.687,2.687,0,0,1-2.684-2.684V8.051A2.687,2.687,0,0,1,8.051,5.367h121.3a2.687,2.687,0,0,1,2.684,2.684v92.317a2.687,2.687,0,0,1-2.684,2.684h-6.843a2.684,2.684,0,1,0,0,5.367h6.843a8.06,8.06,0,0,0,8.051-8.051V8.051A8.06,8.06,0,0,0,129.352,0Zm-39.1,132.035H47.155a8.065,8.065,0,0,1,7.591-5.367h27.91A8.065,8.065,0,0,1,90.247,132.035Zm-8.941-23.616V121.3H56.1V108.419Z"/>
    <path id="Path_649" data-name="Path 649" d="M400.492,384a2.493,2.493,0,1,0,1.761.73A2.5,2.5,0,0,0,400.492,384Z" transform="translate(-290.881 -280.649)"/>
    <path id="Path_650" data-name="Path 650" d="M337.31,84.409a2.492,2.492,0,0,0,2.492-2.492,2.492,2.492,0,1,1,2.492,2.492A2.492,2.492,0,0,0,339.8,86.9v2.247a2.492,2.492,0,1,0,4.984,0v-.182a7.476,7.476,0,1,0-9.967-7.049A2.492,2.492,0,0,0,337.31,84.409Z" transform="translate(-244.112 -55.892)"/>
    <path id="Path_651" data-name="Path 651" d="M357.311,148.46a2.493,2.493,0,1,0,1.762.73A2.505,2.505,0,0,0,357.311,148.46Z" transform="translate(-259.322 -108.503)"/>
    <path id="Path_652" data-name="Path 652" d="M174.492,184.4a2.493,2.493,0,1,0-1.762-.73A2.51,2.51,0,0,0,174.492,184.4Z" transform="translate(-125.707 -131.13)"/>
    <g id="Group_185" data-name="Group 185" transform="translate(44.106 16.871)">
      <path id="Path_653" data-name="Path 653" d="M198.142,70.9q.316.108.626.228Q198.458,71.009,198.142,70.9Z" transform="translate(-189.213 -70.105)" fill="#878791"/>
      <path id="Path_654" data-name="Path 654" d="M195.579,70.1q.307.089.609.191Q195.886,70.185,195.579,70.1Z" transform="translate(-187.288 -69.499)" fill="#878791"/>
      <path id="Path_655" data-name="Path 655" d="M178.779,67.7Z" transform="translate(-174.675 -67.703)" fill="#878791"/>
      <path id="Path_656" data-name="Path 656" d="M169.667,67.7a15.058,15.058,0,0,0-3.024.305,15.058,15.058,0,0,1,3.024-.305Z" transform="translate(-165.563 -67.703)" fill="#878791"/>
      <path id="Path_657" data-name="Path 657" d="M192.953,69.4q.293.071.581.153C193.342,69.495,193.148,69.443,192.953,69.4Z" transform="translate(-185.317 -68.974)" fill="#878791"/>
      <path id="Path_658" data-name="Path 658" d="M181.756,67.778c.108.005.215.015.323.023C181.971,67.793,181.864,67.783,181.756,67.778Z" transform="translate(-176.91 -67.759)" fill="#878791"/>
      <path id="Path_659" data-name="Path 659" d="M190.261,68.809c.182.035.363.075.542.117C190.624,68.884,190.443,68.844,190.261,68.809Z" transform="translate(-183.296 -68.533)" fill="#878791"/>
      <path id="Path_660" data-name="Path 660" d="M171.863,71.818A15.008,15.008,0,0,0,162.308,85.8v3.178a21.265,21.265,0,0,0,11.28-5.889L170.713,86.2a10.227,10.227,0,0,0,7.231,3h3.474V85.8A15.008,15.008,0,0,0,171.863,71.818Z" transform="translate(-162.308 -70.793)" fill="#878791"/>
      <path id="Path_661" data-name="Path 661" d="M187.5,68.339c.165.024.329.053.492.082C187.826,68.392,187.662,68.363,187.5,68.339Z" transform="translate(-181.22 -68.181)" fill="#878791"/>
      <path id="Path_662" data-name="Path 662" d="M184.661,67.993c.143.014.285.033.427.051C184.946,68.026,184.8,68.007,184.661,67.993Z" transform="translate(-179.091 -67.921)" fill="#878791"/>
    </g>
    <path id="Path_663" data-name="Path 663" d="M159.474,115.267V91.656a2.734,2.734,0,0,0-5.447,0v23.611a2.618,2.618,0,0,1-2.723,2.492h-34.86v-8.381c0-3.062-1.487-8.483-11.439-10.409l-11.61-2.417c-2.6-.814-2.6-1.345-2.6-1.814V91.864a17.968,17.968,0,0,0,7.985-9.136h.412a10,10,0,0,0,6.365-2.236,11.26,11.26,0,0,0,8.614,3.876h5v5.015a2.5,2.5,0,0,0,1.681,2.3,2.938,2.938,0,0,0,1.042.19,2.858,2.858,0,0,0,1.926-.73l7.408-6.778h17.357c6.007,0,10.894-4.471,10.894-9.967V53.967c0-5.5-4.887-9.967-10.894-9.967H114.166c-6.007,0-10.894,4.471-10.894,9.967V66.128a10.164,10.164,0,0,0-3.442-.821v-.395c0-9.648-8.579-17.5-19.124-17.5s-19.124,7.849-19.124,17.5v.407c-4.875.381-8.715,4.13-8.715,8.687,0,4.809,4.276,8.721,9.532,8.721h.238a17.823,17.823,0,0,0,7.046,8.563,2.277,2.277,0,0,0-.032.365v3.081c0,.469,0,1-2.6,1.814L55.438,98.968a21.033,21.033,0,0,0-5.991,2.012v-49.5a2.618,2.618,0,0,1,2.723-2.492h7.778a2.5,2.5,0,1,0,0-4.984H52.17C47.665,44,44,47.354,44,51.476v63.8c0,4.122,3.665,7.476,8.17,7.476h61.55c.066,0,.13,0,.195-.009H151.3C155.809,122.742,159.474,119.389,159.474,115.267Zm-50.755-61.3a5.237,5.237,0,0,1,5.447-4.984h34.414a5.237,5.237,0,0,1,5.447,4.984V74.4a5.237,5.237,0,0,1-5.447,4.984H130.1a2.858,2.858,0,0,0-1.926.73l-3.556,3.253V81.876a2.615,2.615,0,0,0-2.723-2.492h-7.725a5.237,5.237,0,0,1-5.447-4.984Zm-5.447,20.039A3.861,3.861,0,0,1,99.811,77.7c.01-.229.019-.458.019-.69V70.32A3.859,3.859,0,0,1,103.272,74.006ZM80.706,52.4c7.541,0,13.677,5.614,13.677,12.514v.907H92.825a9.039,9.039,0,0,1-3.952-.894q.571-.465,1.117-.963a2.345,2.345,0,0,0,0-3.524,2.906,2.906,0,0,0-3.852,0,21.388,21.388,0,0,1-14.512,5.5h-4.6V64.912C67.03,58.012,73.165,52.4,80.706,52.4ZM58.315,74.006a3.844,3.844,0,0,1,3.268-3.663v6.662c0,.223.009.444.019.665A3.846,3.846,0,0,1,58.315,74.006Zm8.715,3V70.922h4.6A27.74,27.74,0,0,0,84.124,68a14.615,14.615,0,0,0,8.7,2.8h1.558v6.2c0,.248-.01.494-.026.738h-2.8a2.5,2.5,0,1,0,0,4.984h1.3A13.881,13.881,0,0,1,80.706,89.52C73.165,89.52,67.03,83.906,67.03,77.006ZM80.706,94.5a20.768,20.768,0,0,0,4.636-.523v.757a5.945,5.945,0,0,0,3.306,5.291l-8.053,3.6L72.11,99.836a5.836,5.836,0,0,0,2.988-5.1v-1A20.7,20.7,0,0,0,80.706,94.5ZM56.582,103.84l.043-.008,8.2-1.706L79.4,108.639a2.952,2.952,0,0,0,2.39,0l14.341-6.407,7.685,1.6.043.008C111,105.216,111,108.349,111,109.378v8.381H52.17a2.618,2.618,0,0,1-2.723-2.492v-5.889C49.447,108.348,49.447,105.216,56.582,103.84Z" transform="translate(-33.036 -33.036)"/>
  </g>
</svg>
