<svg id="Icon_Set" enable-background="new 0 0 256 256" height="512" viewBox="0 0 256 256" width="512" xmlns="http://www.w3.org/2000/svg"><path d="m227.991 27.055h-199.982c-11.836 0-21.431 9.595-21.431 21.431v102.559c0 11.836 9.595 21.431 21.431 21.431h30.863l-3.521 5.535-25.371 39.88c-4.101 6.446 3.416 13.962 9.862 9.862l39.88-25.371 47.007-29.905h101.263c11.836 0 21.431-9.595 21.431-21.431v-102.56c-.001-11.836-9.596-21.431-21.432-21.431z" fill="#f9d335"/><path d="m43.294 172.48h-15.282c-11.839 0-21.436-9.597-21.436-21.436v-102.557c0-11.839 9.597-21.436 21.436-21.436h15.283c-11.839 0-21.436 9.598-21.436 21.436v102.556c-.001 11.839 9.596 21.437 21.435 21.437z" fill="#f9e27d"/><path d="m111.73 172.475h15l-47.01 29.9-39.88 25.38c-4.08 2.6-8.6.53-10.31-2.98l35.19-22.4z" fill="#f2c300"/><path d="m249.42 48.485v102.56c0 11.84-9.59 21.43-21.43 21.43h-15c11.84 0 21.43-9.59 21.43-21.43v-102.56c0-11.84-9.59-21.43-21.43-21.43h15c11.84 0 21.43 9.59 21.43 21.43z" fill="#f2c300"/><path d="m74.155 172.48-3.525 5.532-25.37 39.877c-1.467 2.303-1.447 4.738-.509 6.735l-4.911 3.128c-6.439 4.096-13.958-3.413-9.862-9.862l25.369-39.877 3.525-5.532h15.283z" fill="#f9e27d"/><g fill="#5f266d"><path d="m227.988 22.974h-199.976c-14.071 0-25.512 11.441-25.512 25.511v102.556c0 14.07 11.441 25.512 25.512 25.512h23.433l-24.9 39.144c-6.445 10.122 5.413 21.951 15.486 15.486l85.888-54.63h100.07c14.07 0 25.512-11.441 25.512-25.512v-102.556c-.001-14.07-11.442-25.511-25.513-25.511zm17.361 128.067c0 9.567-7.784 17.361-17.361 17.361h-101.262c-.774 0-1.528.214-2.191.632l-86.885 55.272c-2.753 1.772-6.007-1.45-4.228-4.228l28.894-45.42c1.717-2.707-.226-6.256-3.444-6.256h-30.86c-9.577 0-17.361-7.794-17.361-17.361v-102.556c0-9.567 7.784-17.361 17.361-17.361h199.977c9.577 0 17.361 7.794 17.361 17.361v102.556z"/><path d="m195.009 70.115c-.632-1.763-2.323-2.944-4.198-2.944h-4.941c-1.865 0-3.556 1.182-4.188 2.934l-20.947 57.605c-1.071 2.928 1.109 5.991 4.187 5.991h1.6c1.875 0 3.566-1.182 4.197-2.944l3.566-9.883c.346-.958 1.263-1.6 2.282-1.6h23.464c1.009 0 1.926.642 2.272 1.6l3.576 9.883c.632 1.763 2.323 2.944 4.188 2.944h1.61c3.078 0 5.262-3.07 4.198-5.98zm.122 40.234h-13.673c-1.667 0-2.84-1.653-2.282-3.24l6.836-19.103c.777-2.147 3.815-2.12 4.564 0l6.836 19.103c.572 1.564-.583 3.24-2.281 3.24z"/><path d="m77.802 126.844c8.039-6.357 12.471-15.955 12.471-27.009 0-19.47-14.447-34.151-33.591-34.151-19.154 0-33.591 14.681-33.591 34.151 0 19.46 14.437 34.141 33.591 34.141 2.71 0 5.43-.296 8.11-.886.795-.173 1.63.071 2.211.652l10.565 10.565c3.861 3.861 12.499-1.367 7.509-6.317l-7.529-7.489c-1.073-1.071-.878-2.767.254-3.657zm-21.12-51.777c13.693 0 22.893 9.954 22.893 24.768 0 14.803-9.2 24.757-22.893 24.757s-22.903-9.954-22.903-24.757c-.001-14.814 9.209-24.768 22.903-24.768z"/><path d="m224.28 37.991h-7.641c-5.385 0-5.393 8.151 0 8.151h7.641c2.343 0 4.248 1.905 4.248 4.239v11.89c0 5.385 8.151 5.393 8.151 0v-11.891c0-6.836-5.563-12.389-12.399-12.389z"/><path d="m228.528 77.553v2.975c0 5.388 8.151 5.385 8.151 0v-2.975c0-5.385-8.151-5.393-8.151 0z"/><path d="m149.375 98.245h-3.057c-1.569 0-2.914 1.131-3.189 2.7-1.131 6.48-2.771 11.513-5.013 15.334-3.749-4.208-8.874-10.127-13.978-16.036 9.414-4.88 13.622-10.311 13.622-17.504 0-8.456-6.378-14.6-15.16-14.6-11.34 0-17.269 8.446-17.269 16.78 0 4.371 1.712 8.945 4.962 13.286-8.079 4.687-12.175 11.115-12.175 19.103 0 9.424 7.101 18.971 20.682 18.971 7.224 0 13.337-2.262 18.645-6.908 1.712 1.844 3.199 3.413 4.656 4.901.611.611 1.447.958 2.313.958h3.861c2.835 0 4.293-3.367 2.374-5.44-2.221-2.394-4.33-4.666-6.47-6.928 3.892-4.89 6.561-11.523 8.375-20.733.389-2.054-1.171-3.884-3.179-3.884zm-34.182 6.154c6.256 7.162 12.522 14.039 16.301 18.196l.53.581c-3.128 3.057-7.376 4.799-11.808 4.799-6.999 0-12.083-5.002-12.083-11.9 0-4.524 2.374-8.456 7.06-11.676zm3.851-10.066c-2.18-2.812-4.075-6.011-4.075-10.168 0-4.126 2.18-8.293 7.05-8.293 5.043 0 6.388 4.554 6.388 7.244.001 4.676-3.555 7.804-9.363 11.217z"/></g></svg>