<?xml version="1.0" encoding="UTF-8"?>
<!DOCTYPE svg PUBLIC "-//W3C//DTD SVG 1.1//EN" "http://www.w3.org/Graphics/SVG/1.1/DTD/svg11.dtd">
<!-- Creator: CorelDRAW 2018 (64-Bit Evaluation Version) -->
<svg xmlns="http://www.w3.org/2000/svg" xml:space="preserve" width="6.35425in" height="6.77806in" version="1.1" style="shape-rendering:geometricPrecision; text-rendering:geometricPrecision; image-rendering:optimizeQuality; fill-rule:evenodd; clip-rule:evenodd"
viewBox="0 0 1705.68 1819.45"
 xmlns:xlink="http://www.w3.org/1999/xlink">
 <defs>
  <style type="text/css">
   <![CDATA[
    .fil1 {fill:#040404}
    .fil0 {fill:#3F95E9}
   ]]>
  </style>
 </defs>
 <g id="Layer_x0020_1">
  <metadata id="CorelCorpID_0Corel-Layer"/>
  <g id="_2401625846896">
   <path class="fil0" d="M0 1149.12c0,55.27 31.85,104.88 86.64,104.88 104.03,0 173.21,-30.35 261.42,-71.46 97.13,-45.26 176.33,-91.36 268.45,-146.52 22.87,-13.7 53.34,-27.66 58.37,-46.51 -41.5,3.45 -249.61,99.22 -348.16,51.76 -112.49,-54.18 105.93,-324.42 137.74,-367.06l76.99 -91.74c10.78,-11.79 19.62,-14.9 32.07,-27.21 148.53,-146.99 608.67,-516.6 814.31,-406.37 12.92,6.93 20.89,13.66 32.36,22.36 13.18,10 18.18,20.47 34.46,24.82 31.57,-59.65 50.75,-196.08 -72.96,-196.08 -152.63,0 -338.38,110.08 -469.66,177.87 -54.95,28.38 -144.04,83.93 -196.12,118.52 -78.22,51.94 -240.58,174.1 -306.65,240.55 -14.07,14.16 -24.78,26.09 -39.89,37.62 -14.89,11.36 -26.21,23.6 -39.99,37.53 -14.47,14.62 -20.85,25.82 -36.37,41.15 -92.15,91.02 -293,356.87 -293,495.88z"/>
   <path class="fil1" d="M839.04 893.76c12.25,5.67 17.44,0.76 31.21,-5.03l103.82 -42.34c41.74,-14.55 207.89,-65.09 254.01,-13.36 58.86,66.03 -12.26,203.16 -47.05,252.23l-80.97 96.87c-20.13,19.87 -24.84,32 -56.9,61.66l-125.58 111.54c-10.64,9.28 -21.6,18.29 -32.29,26.99 -116.57,94.93 -353.14,263.03 -485.93,343.99 -22.87,13.95 -134.48,80.14 -144,93.12 45.3,0 165.91,-69.28 206.72,-89.68 106.73,-53.36 288.8,-151.58 386.97,-214.95 31.93,-20.62 60.15,-37.02 92.14,-58.34 31.67,-21.12 59.61,-40.1 89.36,-61.12 58.34,-41.22 113.68,-86.55 169.4,-131.56 8,-6.46 10.9,-10.75 18.94,-17.55 103.06,-87.17 195.36,-182.65 265.82,-299.62 37.42,-62.12 144.22,-288.49 10.54,-335.16 -107.22,-37.43 -304.78,66.14 -378.25,108.81l-142.04 81.4c-23.78,15 -125.21,77.47 -135.92,92.09z"/>
   <path class="fil1" d="M1345.21 405.84c0,54.41 56.68,97.63 106.62,112.26 180.18,52.77 342.88,-103.8 198.15,-198.15 -108.87,-70.98 -304.78,-20.45 -304.78,85.89z"/>
  </g>
 </g>
</svg>
